G04 #@! TF.GenerationSoftware,KiCad,Pcbnew,5.1.9-73d0e3b20d~88~ubuntu20.04.1*
G04 #@! TF.CreationDate,2021-01-17T19:34:15+02:00*
G04 #@! TF.ProjectId,USB-TypeC-Switch,5553422d-5479-4706-9543-2d5377697463,rev?*
G04 #@! TF.SameCoordinates,Original*
G04 #@! TF.FileFunction,Copper,L1,Top*
G04 #@! TF.FilePolarity,Positive*
%FSLAX46Y46*%
G04 Gerber Fmt 4.6, Leading zero omitted, Abs format (unit mm)*
G04 Created by KiCad (PCBNEW 5.1.9-73d0e3b20d~88~ubuntu20.04.1) date 2021-01-17 19:34:15*
%MOMM*%
%LPD*%
G01*
G04 APERTURE LIST*
G04 #@! TA.AperFunction,SMDPad,CuDef*
%ADD10R,0.710000X0.200000*%
G04 #@! TD*
G04 #@! TA.AperFunction,SMDPad,CuDef*
%ADD11R,0.200000X0.710000*%
G04 #@! TD*
G04 #@! TA.AperFunction,SMDPad,CuDef*
%ADD12R,0.950000X1.750000*%
G04 #@! TD*
G04 #@! TA.AperFunction,SMDPad,CuDef*
%ADD13R,0.200000X0.800000*%
G04 #@! TD*
G04 #@! TA.AperFunction,SMDPad,CuDef*
%ADD14R,0.800000X0.200000*%
G04 #@! TD*
G04 #@! TA.AperFunction,SMDPad,CuDef*
%ADD15R,0.914400X0.225000*%
G04 #@! TD*
G04 #@! TA.AperFunction,SMDPad,CuDef*
%ADD16R,0.812800X0.225000*%
G04 #@! TD*
G04 #@! TA.AperFunction,SMDPad,CuDef*
%ADD17R,0.225000X0.812800*%
G04 #@! TD*
G04 #@! TA.AperFunction,SMDPad,CuDef*
%ADD18R,0.178600X0.604799*%
G04 #@! TD*
G04 #@! TA.AperFunction,SMDPad,CuDef*
%ADD19R,0.604799X0.178600*%
G04 #@! TD*
G04 #@! TA.AperFunction,SMDPad,CuDef*
%ADD20R,1.346200X0.812800*%
G04 #@! TD*
G04 #@! TA.AperFunction,ComponentPad*
%ADD21O,0.900000X1.500000*%
G04 #@! TD*
G04 #@! TA.AperFunction,ComponentPad*
%ADD22O,1.500000X0.900000*%
G04 #@! TD*
G04 #@! TA.AperFunction,SMDPad,CuDef*
%ADD23R,0.700000X0.320000*%
G04 #@! TD*
G04 #@! TA.AperFunction,ComponentPad*
%ADD24C,0.600000*%
G04 #@! TD*
G04 #@! TA.AperFunction,ComponentPad*
%ADD25O,1.800000X0.900000*%
G04 #@! TD*
G04 #@! TA.AperFunction,SMDPad,CuDef*
%ADD26R,0.650000X1.220000*%
G04 #@! TD*
G04 #@! TA.AperFunction,SMDPad,CuDef*
%ADD27C,0.100000*%
G04 #@! TD*
G04 #@! TA.AperFunction,SMDPad,CuDef*
%ADD28R,0.900000X1.300000*%
G04 #@! TD*
G04 #@! TA.AperFunction,SMDPad,CuDef*
%ADD29R,1.000000X1.700000*%
G04 #@! TD*
G04 #@! TA.AperFunction,ComponentPad*
%ADD30R,1.000000X1.000000*%
G04 #@! TD*
G04 #@! TA.AperFunction,ComponentPad*
%ADD31O,1.000000X1.000000*%
G04 #@! TD*
G04 #@! TA.AperFunction,SMDPad,CuDef*
%ADD32R,0.600000X0.450000*%
G04 #@! TD*
G04 #@! TA.AperFunction,SMDPad,CuDef*
%ADD33R,0.450000X0.600000*%
G04 #@! TD*
G04 #@! TA.AperFunction,ViaPad*
%ADD34C,0.450000*%
G04 #@! TD*
G04 #@! TA.AperFunction,Conductor*
%ADD35C,0.500000*%
G04 #@! TD*
G04 #@! TA.AperFunction,Conductor*
%ADD36C,0.200000*%
G04 #@! TD*
G04 #@! TA.AperFunction,Conductor*
%ADD37C,0.250000*%
G04 #@! TD*
G04 #@! TA.AperFunction,Conductor*
%ADD38C,0.300000*%
G04 #@! TD*
G04 #@! TA.AperFunction,Conductor*
%ADD39C,0.150000*%
G04 #@! TD*
G04 #@! TA.AperFunction,Conductor*
%ADD40C,1.250000*%
G04 #@! TD*
G04 #@! TA.AperFunction,Conductor*
%ADD41C,1.000000*%
G04 #@! TD*
G04 #@! TA.AperFunction,Conductor*
%ADD42C,0.750000*%
G04 #@! TD*
G04 #@! TA.AperFunction,Conductor*
%ADD43C,0.125000*%
G04 #@! TD*
G04 APERTURE END LIST*
G04 #@! TA.AperFunction,SMDPad,CuDef*
G36*
G01*
X49191250Y-129975000D02*
X48028750Y-129975000D01*
G75*
G02*
X47810000Y-129756250I0J218750D01*
G01*
X47810000Y-129318750D01*
G75*
G02*
X48028750Y-129100000I218750J0D01*
G01*
X49191250Y-129100000D01*
G75*
G02*
X49410000Y-129318750I0J-218750D01*
G01*
X49410000Y-129756250D01*
G75*
G02*
X49191250Y-129975000I-218750J0D01*
G01*
G37*
G04 #@! TD.AperFunction*
G04 #@! TA.AperFunction,SMDPad,CuDef*
G36*
G01*
X49191250Y-132100000D02*
X48028750Y-132100000D01*
G75*
G02*
X47810000Y-131881250I0J218750D01*
G01*
X47810000Y-131443750D01*
G75*
G02*
X48028750Y-131225000I218750J0D01*
G01*
X49191250Y-131225000D01*
G75*
G02*
X49410000Y-131443750I0J-218750D01*
G01*
X49410000Y-131881250D01*
G75*
G02*
X49191250Y-132100000I-218750J0D01*
G01*
G37*
G04 #@! TD.AperFunction*
D10*
X56345000Y-115800000D03*
X56345000Y-115400000D03*
X56345000Y-115000000D03*
X56345000Y-114600000D03*
X56345000Y-114200000D03*
D11*
X55950000Y-113605000D03*
X55550000Y-113605000D03*
X55150000Y-113605000D03*
X54750000Y-113605000D03*
D10*
X54355000Y-114200000D03*
X54355000Y-114600000D03*
X54355000Y-115000000D03*
X54355000Y-115400000D03*
X54355000Y-115800000D03*
D11*
X54750000Y-116395000D03*
X55150000Y-116395000D03*
X55550000Y-116395000D03*
X55950000Y-116395000D03*
D12*
X55350000Y-115000000D03*
D10*
X56345000Y-107800000D03*
X56345000Y-107400000D03*
X56345000Y-107000000D03*
X56345000Y-106600000D03*
X56345000Y-106200000D03*
D11*
X55950000Y-105605000D03*
X55550000Y-105605000D03*
X55150000Y-105605000D03*
X54750000Y-105605000D03*
D10*
X54355000Y-106200000D03*
X54355000Y-106600000D03*
X54355000Y-107000000D03*
X54355000Y-107400000D03*
X54355000Y-107800000D03*
D11*
X54750000Y-108395000D03*
X55150000Y-108395000D03*
X55550000Y-108395000D03*
X55950000Y-108395000D03*
D12*
X55350000Y-107000000D03*
D13*
X63390000Y-123450000D03*
X62990000Y-123450000D03*
X62590000Y-123450000D03*
X62190000Y-123450000D03*
D14*
X61490000Y-123750000D03*
X61490000Y-124150000D03*
X61490000Y-124550000D03*
X61490000Y-124950000D03*
D13*
X62190000Y-125250000D03*
X62590000Y-125250000D03*
X62990000Y-125250000D03*
X63390000Y-125250000D03*
D14*
X64090000Y-124950000D03*
X64090000Y-124550000D03*
X64090000Y-124150000D03*
X64090000Y-123750000D03*
D15*
X62253900Y-119000000D03*
D16*
X62203100Y-119400000D03*
D17*
X62400001Y-120060100D03*
X62800000Y-120060100D03*
X63199999Y-120060100D03*
D16*
X63396900Y-119400000D03*
X63396900Y-119000000D03*
D17*
X63199999Y-118339900D03*
X62800000Y-118339900D03*
X62400001Y-118339900D03*
D15*
X63346100Y-102900000D03*
D16*
X63396900Y-102500000D03*
D17*
X63199999Y-101839900D03*
X62800000Y-101839900D03*
X62400001Y-101839900D03*
D16*
X62203100Y-102500000D03*
X62203100Y-102900000D03*
D17*
X62400001Y-103560100D03*
X62800000Y-103560100D03*
X63199999Y-103560100D03*
D18*
X35530001Y-112843800D03*
X35029999Y-112843800D03*
X34530000Y-112843800D03*
X34030001Y-112843800D03*
X33529999Y-112843800D03*
D19*
X33033800Y-113339999D03*
X33033800Y-113840001D03*
X33033800Y-114340000D03*
X33033800Y-114839999D03*
X33033800Y-115340001D03*
D18*
X33529999Y-115836200D03*
X34030001Y-115836200D03*
X34530000Y-115836200D03*
X35029999Y-115836200D03*
X35530001Y-115836200D03*
D19*
X36026200Y-115340001D03*
X36026200Y-114839999D03*
X36026200Y-113840001D03*
X36026200Y-113339999D03*
D20*
X34700000Y-113820000D03*
X34700000Y-114860000D03*
D18*
X35530001Y-106223800D03*
X35029999Y-106223800D03*
X34530000Y-106223800D03*
X34030001Y-106223800D03*
X33529999Y-106223800D03*
D19*
X33033800Y-106719999D03*
X33033800Y-107220001D03*
X33033800Y-107720000D03*
X33033800Y-108219999D03*
X33033800Y-108720001D03*
D18*
X33529999Y-109216200D03*
X34030001Y-109216200D03*
X34530000Y-109216200D03*
X35029999Y-109216200D03*
X35530001Y-109216200D03*
D19*
X36026200Y-108720001D03*
X36026200Y-108219999D03*
X36026200Y-107220001D03*
X36026200Y-106719999D03*
D20*
X34700000Y-107200000D03*
X34700000Y-108240000D03*
D21*
X38580000Y-125980000D03*
D22*
X38280000Y-126330000D03*
X38280000Y-117670000D03*
D23*
X40240000Y-119250000D03*
X40240000Y-119750000D03*
X40240000Y-120250000D03*
X40240000Y-120750000D03*
X40240000Y-121250000D03*
X40240000Y-121750000D03*
X40240000Y-122250000D03*
X40240000Y-122750000D03*
X40240000Y-123250000D03*
X40240000Y-123750000D03*
X40240000Y-124250000D03*
X40240000Y-124750000D03*
D24*
X38930000Y-121600000D03*
D21*
X38580000Y-118020000D03*
D24*
X38930000Y-120800000D03*
X38930000Y-119200000D03*
X38930000Y-122400000D03*
X38930000Y-123200000D03*
X38930000Y-124800000D03*
X38230000Y-121200000D03*
X38230000Y-120400000D03*
X38230000Y-119600000D03*
X38230000Y-122800000D03*
X38230000Y-123600000D03*
X38230000Y-124400000D03*
D25*
X32380000Y-117670000D03*
X32380000Y-126330000D03*
D21*
X71420000Y-107020000D03*
D22*
X71720000Y-106670000D03*
X71720000Y-115330000D03*
D23*
X69760000Y-113750000D03*
X69760000Y-113250000D03*
X69760000Y-112750000D03*
X69760000Y-112250000D03*
X69760000Y-111750000D03*
X69760000Y-111250000D03*
X69760000Y-110750000D03*
X69760000Y-110250000D03*
X69760000Y-109750000D03*
X69760000Y-109250000D03*
X69760000Y-108750000D03*
X69760000Y-108250000D03*
D24*
X71070000Y-111400000D03*
D21*
X71420000Y-114980000D03*
D24*
X71070000Y-112200000D03*
X71070000Y-113800000D03*
X71070000Y-110600000D03*
X71070000Y-109800000D03*
X71070000Y-108200000D03*
X71770000Y-111800000D03*
X71770000Y-112600000D03*
X71770000Y-113400000D03*
X71770000Y-110200000D03*
X71770000Y-109400000D03*
X71770000Y-108600000D03*
D25*
X77620000Y-115330000D03*
X77620000Y-106670000D03*
D21*
X38580000Y-103980000D03*
D22*
X38280000Y-104330000D03*
X38280000Y-95670000D03*
D23*
X40240000Y-97250000D03*
X40240000Y-97750000D03*
X40240000Y-98250000D03*
X40240000Y-98750000D03*
X40240000Y-99250000D03*
X40240000Y-99750000D03*
X40240000Y-100250000D03*
X40240000Y-100750000D03*
X40240000Y-101250000D03*
X40240000Y-101750000D03*
X40240000Y-102250000D03*
X40240000Y-102750000D03*
D24*
X38930000Y-99600000D03*
D21*
X38580000Y-96020000D03*
D24*
X38930000Y-98800000D03*
X38930000Y-97200000D03*
X38930000Y-100400000D03*
X38930000Y-101200000D03*
X38930000Y-102800000D03*
X38230000Y-99200000D03*
X38230000Y-98400000D03*
X38230000Y-97600000D03*
X38230000Y-100800000D03*
X38230000Y-101600000D03*
X38230000Y-102400000D03*
D25*
X32380000Y-95670000D03*
X32380000Y-104330000D03*
G04 #@! TA.AperFunction,SMDPad,CuDef*
G36*
G01*
X43095000Y-130150000D02*
X42145000Y-130150000D01*
G75*
G02*
X41895000Y-129900000I0J250000D01*
G01*
X41895000Y-129400000D01*
G75*
G02*
X42145000Y-129150000I250000J0D01*
G01*
X43095000Y-129150000D01*
G75*
G02*
X43345000Y-129400000I0J-250000D01*
G01*
X43345000Y-129900000D01*
G75*
G02*
X43095000Y-130150000I-250000J0D01*
G01*
G37*
G04 #@! TD.AperFunction*
G04 #@! TA.AperFunction,SMDPad,CuDef*
G36*
G01*
X43095000Y-132050000D02*
X42145000Y-132050000D01*
G75*
G02*
X41895000Y-131800000I0J250000D01*
G01*
X41895000Y-131300000D01*
G75*
G02*
X42145000Y-131050000I250000J0D01*
G01*
X43095000Y-131050000D01*
G75*
G02*
X43345000Y-131300000I0J-250000D01*
G01*
X43345000Y-131800000D01*
G75*
G02*
X43095000Y-132050000I-250000J0D01*
G01*
G37*
G04 #@! TD.AperFunction*
G04 #@! TA.AperFunction,SMDPad,CuDef*
G36*
G01*
X68915000Y-97706000D02*
X69865000Y-97706000D01*
G75*
G02*
X70115000Y-97956000I0J-250000D01*
G01*
X70115000Y-98456000D01*
G75*
G02*
X69865000Y-98706000I-250000J0D01*
G01*
X68915000Y-98706000D01*
G75*
G02*
X68665000Y-98456000I0J250000D01*
G01*
X68665000Y-97956000D01*
G75*
G02*
X68915000Y-97706000I250000J0D01*
G01*
G37*
G04 #@! TD.AperFunction*
G04 #@! TA.AperFunction,SMDPad,CuDef*
G36*
G01*
X68915000Y-99606000D02*
X69865000Y-99606000D01*
G75*
G02*
X70115000Y-99856000I0J-250000D01*
G01*
X70115000Y-100356000D01*
G75*
G02*
X69865000Y-100606000I-250000J0D01*
G01*
X68915000Y-100606000D01*
G75*
G02*
X68665000Y-100356000I0J250000D01*
G01*
X68665000Y-99856000D01*
G75*
G02*
X68915000Y-99606000I250000J0D01*
G01*
G37*
G04 #@! TD.AperFunction*
G04 #@! TA.AperFunction,SMDPad,CuDef*
G36*
G01*
X66883000Y-99606000D02*
X67833000Y-99606000D01*
G75*
G02*
X68083000Y-99856000I0J-250000D01*
G01*
X68083000Y-100356000D01*
G75*
G02*
X67833000Y-100606000I-250000J0D01*
G01*
X66883000Y-100606000D01*
G75*
G02*
X66633000Y-100356000I0J250000D01*
G01*
X66633000Y-99856000D01*
G75*
G02*
X66883000Y-99606000I250000J0D01*
G01*
G37*
G04 #@! TD.AperFunction*
G04 #@! TA.AperFunction,SMDPad,CuDef*
G36*
G01*
X66883000Y-97706000D02*
X67833000Y-97706000D01*
G75*
G02*
X68083000Y-97956000I0J-250000D01*
G01*
X68083000Y-98456000D01*
G75*
G02*
X67833000Y-98706000I-250000J0D01*
G01*
X66883000Y-98706000D01*
G75*
G02*
X66633000Y-98456000I0J250000D01*
G01*
X66633000Y-97956000D01*
G75*
G02*
X66883000Y-97706000I250000J0D01*
G01*
G37*
G04 #@! TD.AperFunction*
G04 #@! TA.AperFunction,SMDPad,CuDef*
G36*
G01*
X61427000Y-89538000D02*
X60477000Y-89538000D01*
G75*
G02*
X60227000Y-89288000I0J250000D01*
G01*
X60227000Y-88788000D01*
G75*
G02*
X60477000Y-88538000I250000J0D01*
G01*
X61427000Y-88538000D01*
G75*
G02*
X61677000Y-88788000I0J-250000D01*
G01*
X61677000Y-89288000D01*
G75*
G02*
X61427000Y-89538000I-250000J0D01*
G01*
G37*
G04 #@! TD.AperFunction*
G04 #@! TA.AperFunction,SMDPad,CuDef*
G36*
G01*
X61427000Y-91438000D02*
X60477000Y-91438000D01*
G75*
G02*
X60227000Y-91188000I0J250000D01*
G01*
X60227000Y-90688000D01*
G75*
G02*
X60477000Y-90438000I250000J0D01*
G01*
X61427000Y-90438000D01*
G75*
G02*
X61677000Y-90688000I0J-250000D01*
G01*
X61677000Y-91188000D01*
G75*
G02*
X61427000Y-91438000I-250000J0D01*
G01*
G37*
G04 #@! TD.AperFunction*
G04 #@! TA.AperFunction,SMDPad,CuDef*
G36*
G01*
X59395000Y-91438000D02*
X58445000Y-91438000D01*
G75*
G02*
X58195000Y-91188000I0J250000D01*
G01*
X58195000Y-90688000D01*
G75*
G02*
X58445000Y-90438000I250000J0D01*
G01*
X59395000Y-90438000D01*
G75*
G02*
X59645000Y-90688000I0J-250000D01*
G01*
X59645000Y-91188000D01*
G75*
G02*
X59395000Y-91438000I-250000J0D01*
G01*
G37*
G04 #@! TD.AperFunction*
G04 #@! TA.AperFunction,SMDPad,CuDef*
G36*
G01*
X59395000Y-89538000D02*
X58445000Y-89538000D01*
G75*
G02*
X58195000Y-89288000I0J250000D01*
G01*
X58195000Y-88788000D01*
G75*
G02*
X58445000Y-88538000I250000J0D01*
G01*
X59395000Y-88538000D01*
G75*
G02*
X59645000Y-88788000I0J-250000D01*
G01*
X59645000Y-89288000D01*
G75*
G02*
X59395000Y-89538000I-250000J0D01*
G01*
G37*
G04 #@! TD.AperFunction*
G04 #@! TA.AperFunction,SMDPad,CuDef*
G36*
G01*
X40305000Y-110579999D02*
X40305000Y-111480001D01*
G75*
G02*
X40055001Y-111730000I-249999J0D01*
G01*
X39529999Y-111730000D01*
G75*
G02*
X39280000Y-111480001I0J249999D01*
G01*
X39280000Y-110579999D01*
G75*
G02*
X39529999Y-110330000I249999J0D01*
G01*
X40055001Y-110330000D01*
G75*
G02*
X40305000Y-110579999I0J-249999D01*
G01*
G37*
G04 #@! TD.AperFunction*
G04 #@! TA.AperFunction,SMDPad,CuDef*
G36*
G01*
X38480000Y-110579999D02*
X38480000Y-111480001D01*
G75*
G02*
X38230001Y-111730000I-249999J0D01*
G01*
X37704999Y-111730000D01*
G75*
G02*
X37455000Y-111480001I0J249999D01*
G01*
X37455000Y-110579999D01*
G75*
G02*
X37704999Y-110330000I249999J0D01*
G01*
X38230001Y-110330000D01*
G75*
G02*
X38480000Y-110579999I0J-249999D01*
G01*
G37*
G04 #@! TD.AperFunction*
G04 #@! TA.AperFunction,SMDPad,CuDef*
G36*
G01*
X32965000Y-111480001D02*
X32965000Y-110579999D01*
G75*
G02*
X33214999Y-110330000I249999J0D01*
G01*
X33740001Y-110330000D01*
G75*
G02*
X33990000Y-110579999I0J-249999D01*
G01*
X33990000Y-111480001D01*
G75*
G02*
X33740001Y-111730000I-249999J0D01*
G01*
X33214999Y-111730000D01*
G75*
G02*
X32965000Y-111480001I0J249999D01*
G01*
G37*
G04 #@! TD.AperFunction*
G04 #@! TA.AperFunction,SMDPad,CuDef*
G36*
G01*
X34790000Y-111480001D02*
X34790000Y-110579999D01*
G75*
G02*
X35039999Y-110330000I249999J0D01*
G01*
X35565001Y-110330000D01*
G75*
G02*
X35815000Y-110579999I0J-249999D01*
G01*
X35815000Y-111480001D01*
G75*
G02*
X35565001Y-111730000I-249999J0D01*
G01*
X35039999Y-111730000D01*
G75*
G02*
X34790000Y-111480001I0J249999D01*
G01*
G37*
G04 #@! TD.AperFunction*
G04 #@! TA.AperFunction,SMDPad,CuDef*
G36*
G01*
X41840000Y-89379999D02*
X41840000Y-90280001D01*
G75*
G02*
X41590001Y-90530000I-249999J0D01*
G01*
X41064999Y-90530000D01*
G75*
G02*
X40815000Y-90280001I0J249999D01*
G01*
X40815000Y-89379999D01*
G75*
G02*
X41064999Y-89130000I249999J0D01*
G01*
X41590001Y-89130000D01*
G75*
G02*
X41840000Y-89379999I0J-249999D01*
G01*
G37*
G04 #@! TD.AperFunction*
G04 #@! TA.AperFunction,SMDPad,CuDef*
G36*
G01*
X43665000Y-89379999D02*
X43665000Y-90280001D01*
G75*
G02*
X43415001Y-90530000I-249999J0D01*
G01*
X42889999Y-90530000D01*
G75*
G02*
X42640000Y-90280001I0J249999D01*
G01*
X42640000Y-89379999D01*
G75*
G02*
X42889999Y-89130000I249999J0D01*
G01*
X43415001Y-89130000D01*
G75*
G02*
X43665000Y-89379999I0J-249999D01*
G01*
G37*
G04 #@! TD.AperFunction*
G04 #@! TA.AperFunction,SMDPad,CuDef*
G36*
G01*
X47085000Y-89379999D02*
X47085000Y-90280001D01*
G75*
G02*
X46835001Y-90530000I-249999J0D01*
G01*
X46309999Y-90530000D01*
G75*
G02*
X46060000Y-90280001I0J249999D01*
G01*
X46060000Y-89379999D01*
G75*
G02*
X46309999Y-89130000I249999J0D01*
G01*
X46835001Y-89130000D01*
G75*
G02*
X47085000Y-89379999I0J-249999D01*
G01*
G37*
G04 #@! TD.AperFunction*
G04 #@! TA.AperFunction,SMDPad,CuDef*
G36*
G01*
X45260000Y-89379999D02*
X45260000Y-90280001D01*
G75*
G02*
X45010001Y-90530000I-249999J0D01*
G01*
X44484999Y-90530000D01*
G75*
G02*
X44235000Y-90280001I0J249999D01*
G01*
X44235000Y-89379999D01*
G75*
G02*
X44484999Y-89130000I249999J0D01*
G01*
X45010001Y-89130000D01*
G75*
G02*
X45260000Y-89379999I0J-249999D01*
G01*
G37*
G04 #@! TD.AperFunction*
G04 #@! TA.AperFunction,SMDPad,CuDef*
G36*
G01*
X43655000Y-92829999D02*
X43655000Y-93730001D01*
G75*
G02*
X43405001Y-93980000I-249999J0D01*
G01*
X42879999Y-93980000D01*
G75*
G02*
X42630000Y-93730001I0J249999D01*
G01*
X42630000Y-92829999D01*
G75*
G02*
X42879999Y-92580000I249999J0D01*
G01*
X43405001Y-92580000D01*
G75*
G02*
X43655000Y-92829999I0J-249999D01*
G01*
G37*
G04 #@! TD.AperFunction*
G04 #@! TA.AperFunction,SMDPad,CuDef*
G36*
G01*
X41830000Y-92829999D02*
X41830000Y-93730001D01*
G75*
G02*
X41580001Y-93980000I-249999J0D01*
G01*
X41054999Y-93980000D01*
G75*
G02*
X40805000Y-93730001I0J249999D01*
G01*
X40805000Y-92829999D01*
G75*
G02*
X41054999Y-92580000I249999J0D01*
G01*
X41580001Y-92580000D01*
G75*
G02*
X41830000Y-92829999I0J-249999D01*
G01*
G37*
G04 #@! TD.AperFunction*
G04 #@! TA.AperFunction,SMDPad,CuDef*
G36*
G01*
X45330000Y-92809999D02*
X45330000Y-93710001D01*
G75*
G02*
X45080001Y-93960000I-249999J0D01*
G01*
X44554999Y-93960000D01*
G75*
G02*
X44305000Y-93710001I0J249999D01*
G01*
X44305000Y-92809999D01*
G75*
G02*
X44554999Y-92560000I249999J0D01*
G01*
X45080001Y-92560000D01*
G75*
G02*
X45330000Y-92809999I0J-249999D01*
G01*
G37*
G04 #@! TD.AperFunction*
G04 #@! TA.AperFunction,SMDPad,CuDef*
G36*
G01*
X47155000Y-92809999D02*
X47155000Y-93710001D01*
G75*
G02*
X46905001Y-93960000I-249999J0D01*
G01*
X46379999Y-93960000D01*
G75*
G02*
X46130000Y-93710001I0J249999D01*
G01*
X46130000Y-92809999D01*
G75*
G02*
X46379999Y-92560000I249999J0D01*
G01*
X46905001Y-92560000D01*
G75*
G02*
X47155000Y-92809999I0J-249999D01*
G01*
G37*
G04 #@! TD.AperFunction*
G04 #@! TA.AperFunction,SMDPad,CuDef*
G36*
G01*
X77209000Y-122639999D02*
X77209000Y-123540001D01*
G75*
G02*
X76959001Y-123790000I-249999J0D01*
G01*
X76433999Y-123790000D01*
G75*
G02*
X76184000Y-123540001I0J249999D01*
G01*
X76184000Y-122639999D01*
G75*
G02*
X76433999Y-122390000I249999J0D01*
G01*
X76959001Y-122390000D01*
G75*
G02*
X77209000Y-122639999I0J-249999D01*
G01*
G37*
G04 #@! TD.AperFunction*
G04 #@! TA.AperFunction,SMDPad,CuDef*
G36*
G01*
X75384000Y-122639999D02*
X75384000Y-123540001D01*
G75*
G02*
X75134001Y-123790000I-249999J0D01*
G01*
X74608999Y-123790000D01*
G75*
G02*
X74359000Y-123540001I0J249999D01*
G01*
X74359000Y-122639999D01*
G75*
G02*
X74608999Y-122390000I249999J0D01*
G01*
X75134001Y-122390000D01*
G75*
G02*
X75384000Y-122639999I0J-249999D01*
G01*
G37*
G04 #@! TD.AperFunction*
G04 #@! TA.AperFunction,SMDPad,CuDef*
G36*
G01*
X76190000Y-125770001D02*
X76190000Y-124869999D01*
G75*
G02*
X76439999Y-124620000I249999J0D01*
G01*
X76965001Y-124620000D01*
G75*
G02*
X77215000Y-124869999I0J-249999D01*
G01*
X77215000Y-125770001D01*
G75*
G02*
X76965001Y-126020000I-249999J0D01*
G01*
X76439999Y-126020000D01*
G75*
G02*
X76190000Y-125770001I0J249999D01*
G01*
G37*
G04 #@! TD.AperFunction*
G04 #@! TA.AperFunction,SMDPad,CuDef*
G36*
G01*
X74365000Y-125770001D02*
X74365000Y-124869999D01*
G75*
G02*
X74614999Y-124620000I249999J0D01*
G01*
X75140001Y-124620000D01*
G75*
G02*
X75390000Y-124869999I0J-249999D01*
G01*
X75390000Y-125770001D01*
G75*
G02*
X75140001Y-126020000I-249999J0D01*
G01*
X74614999Y-126020000D01*
G75*
G02*
X74365000Y-125770001I0J249999D01*
G01*
G37*
G04 #@! TD.AperFunction*
G04 #@! TA.AperFunction,SMDPad,CuDef*
G36*
G01*
X73250001Y-91075000D02*
X72349999Y-91075000D01*
G75*
G02*
X72100000Y-90825001I0J249999D01*
G01*
X72100000Y-90299999D01*
G75*
G02*
X72349999Y-90050000I249999J0D01*
G01*
X73250001Y-90050000D01*
G75*
G02*
X73500000Y-90299999I0J-249999D01*
G01*
X73500000Y-90825001D01*
G75*
G02*
X73250001Y-91075000I-249999J0D01*
G01*
G37*
G04 #@! TD.AperFunction*
G04 #@! TA.AperFunction,SMDPad,CuDef*
G36*
G01*
X73250001Y-89250000D02*
X72349999Y-89250000D01*
G75*
G02*
X72100000Y-89000001I0J249999D01*
G01*
X72100000Y-88474999D01*
G75*
G02*
X72349999Y-88225000I249999J0D01*
G01*
X73250001Y-88225000D01*
G75*
G02*
X73500000Y-88474999I0J-249999D01*
G01*
X73500000Y-89000001D01*
G75*
G02*
X73250001Y-89250000I-249999J0D01*
G01*
G37*
G04 #@! TD.AperFunction*
G04 #@! TA.AperFunction,SMDPad,CuDef*
G36*
G01*
X75980000Y-105100001D02*
X75980000Y-104199999D01*
G75*
G02*
X76229999Y-103950000I249999J0D01*
G01*
X76755001Y-103950000D01*
G75*
G02*
X77005000Y-104199999I0J-249999D01*
G01*
X77005000Y-105100001D01*
G75*
G02*
X76755001Y-105350000I-249999J0D01*
G01*
X76229999Y-105350000D01*
G75*
G02*
X75980000Y-105100001I0J249999D01*
G01*
G37*
G04 #@! TD.AperFunction*
G04 #@! TA.AperFunction,SMDPad,CuDef*
G36*
G01*
X74155000Y-105100001D02*
X74155000Y-104199999D01*
G75*
G02*
X74404999Y-103950000I249999J0D01*
G01*
X74930001Y-103950000D01*
G75*
G02*
X75180000Y-104199999I0J-249999D01*
G01*
X75180000Y-105100001D01*
G75*
G02*
X74930001Y-105350000I-249999J0D01*
G01*
X74404999Y-105350000D01*
G75*
G02*
X74155000Y-105100001I0J249999D01*
G01*
G37*
G04 #@! TD.AperFunction*
D26*
X46560000Y-131850000D03*
X45610000Y-131850000D03*
X44660000Y-131850000D03*
X44660000Y-129230000D03*
X45610000Y-129230000D03*
X46560000Y-129230000D03*
G04 #@! TA.AperFunction,SMDPad,CuDef*
D27*
G36*
X54053500Y-133240000D02*
G01*
X54053500Y-130115000D01*
X54470000Y-130115000D01*
X54470000Y-128640000D01*
X55370000Y-128640000D01*
X55370000Y-130115000D01*
X55786500Y-130115000D01*
X55786500Y-133240000D01*
X54053500Y-133240000D01*
G37*
G04 #@! TD.AperFunction*
D28*
X53420000Y-129290000D03*
X56420000Y-129290000D03*
G04 #@! TA.AperFunction,SMDPad,CuDef*
D27*
G36*
X62785025Y-92804416D02*
G01*
X65330609Y-95350000D01*
X62785025Y-97895584D01*
X60239441Y-95350000D01*
X62785025Y-92804416D01*
G37*
G04 #@! TD.AperFunction*
G04 #@! TA.AperFunction,SMDPad,CuDef*
G36*
G01*
X65604613Y-95517938D02*
X66081910Y-95995235D01*
G75*
G02*
X66081910Y-96083623I-44194J-44194D01*
G01*
X65993521Y-96172012D01*
G75*
G02*
X65905133Y-96172012I-44194J44194D01*
G01*
X65427836Y-95694715D01*
G75*
G02*
X65427836Y-95606327I44194J44194D01*
G01*
X65516225Y-95517938D01*
G75*
G02*
X65604613Y-95517938I44194J-44194D01*
G01*
G37*
G04 #@! TD.AperFunction*
G04 #@! TA.AperFunction,SMDPad,CuDef*
G36*
G01*
X65251060Y-95871491D02*
X65728357Y-96348788D01*
G75*
G02*
X65728357Y-96437176I-44194J-44194D01*
G01*
X65639968Y-96525565D01*
G75*
G02*
X65551580Y-96525565I-44194J44194D01*
G01*
X65074283Y-96048268D01*
G75*
G02*
X65074283Y-95959880I44194J44194D01*
G01*
X65162672Y-95871491D01*
G75*
G02*
X65251060Y-95871491I44194J-44194D01*
G01*
G37*
G04 #@! TD.AperFunction*
G04 #@! TA.AperFunction,SMDPad,CuDef*
G36*
G01*
X64897507Y-96225045D02*
X65374804Y-96702342D01*
G75*
G02*
X65374804Y-96790730I-44194J-44194D01*
G01*
X65286415Y-96879119D01*
G75*
G02*
X65198027Y-96879119I-44194J44194D01*
G01*
X64720730Y-96401822D01*
G75*
G02*
X64720730Y-96313434I44194J44194D01*
G01*
X64809119Y-96225045D01*
G75*
G02*
X64897507Y-96225045I44194J-44194D01*
G01*
G37*
G04 #@! TD.AperFunction*
G04 #@! TA.AperFunction,SMDPad,CuDef*
G36*
G01*
X64543953Y-96578598D02*
X65021250Y-97055895D01*
G75*
G02*
X65021250Y-97144283I-44194J-44194D01*
G01*
X64932861Y-97232672D01*
G75*
G02*
X64844473Y-97232672I-44194J44194D01*
G01*
X64367176Y-96755375D01*
G75*
G02*
X64367176Y-96666987I44194J44194D01*
G01*
X64455565Y-96578598D01*
G75*
G02*
X64543953Y-96578598I44194J-44194D01*
G01*
G37*
G04 #@! TD.AperFunction*
G04 #@! TA.AperFunction,SMDPad,CuDef*
G36*
G01*
X64190400Y-96932151D02*
X64667697Y-97409448D01*
G75*
G02*
X64667697Y-97497836I-44194J-44194D01*
G01*
X64579308Y-97586225D01*
G75*
G02*
X64490920Y-97586225I-44194J44194D01*
G01*
X64013623Y-97108928D01*
G75*
G02*
X64013623Y-97020540I44194J44194D01*
G01*
X64102012Y-96932151D01*
G75*
G02*
X64190400Y-96932151I44194J-44194D01*
G01*
G37*
G04 #@! TD.AperFunction*
G04 #@! TA.AperFunction,SMDPad,CuDef*
G36*
G01*
X63836847Y-97285705D02*
X64314144Y-97763002D01*
G75*
G02*
X64314144Y-97851390I-44194J-44194D01*
G01*
X64225755Y-97939779D01*
G75*
G02*
X64137367Y-97939779I-44194J44194D01*
G01*
X63660070Y-97462482D01*
G75*
G02*
X63660070Y-97374094I44194J44194D01*
G01*
X63748459Y-97285705D01*
G75*
G02*
X63836847Y-97285705I44194J-44194D01*
G01*
G37*
G04 #@! TD.AperFunction*
G04 #@! TA.AperFunction,SMDPad,CuDef*
G36*
G01*
X63483293Y-97639258D02*
X63960590Y-98116555D01*
G75*
G02*
X63960590Y-98204943I-44194J-44194D01*
G01*
X63872201Y-98293332D01*
G75*
G02*
X63783813Y-98293332I-44194J44194D01*
G01*
X63306516Y-97816035D01*
G75*
G02*
X63306516Y-97727647I44194J44194D01*
G01*
X63394905Y-97639258D01*
G75*
G02*
X63483293Y-97639258I44194J-44194D01*
G01*
G37*
G04 #@! TD.AperFunction*
G04 #@! TA.AperFunction,SMDPad,CuDef*
G36*
G01*
X63129740Y-97992811D02*
X63607037Y-98470108D01*
G75*
G02*
X63607037Y-98558496I-44194J-44194D01*
G01*
X63518648Y-98646885D01*
G75*
G02*
X63430260Y-98646885I-44194J44194D01*
G01*
X62952963Y-98169588D01*
G75*
G02*
X62952963Y-98081200I44194J44194D01*
G01*
X63041352Y-97992811D01*
G75*
G02*
X63129740Y-97992811I44194J-44194D01*
G01*
G37*
G04 #@! TD.AperFunction*
G04 #@! TA.AperFunction,SMDPad,CuDef*
G36*
G01*
X62528698Y-97992811D02*
X62617087Y-98081200D01*
G75*
G02*
X62617087Y-98169588I-44194J-44194D01*
G01*
X62139790Y-98646885D01*
G75*
G02*
X62051402Y-98646885I-44194J44194D01*
G01*
X61963013Y-98558496D01*
G75*
G02*
X61963013Y-98470108I44194J44194D01*
G01*
X62440310Y-97992811D01*
G75*
G02*
X62528698Y-97992811I44194J-44194D01*
G01*
G37*
G04 #@! TD.AperFunction*
G04 #@! TA.AperFunction,SMDPad,CuDef*
G36*
G01*
X62175145Y-97639258D02*
X62263534Y-97727647D01*
G75*
G02*
X62263534Y-97816035I-44194J-44194D01*
G01*
X61786237Y-98293332D01*
G75*
G02*
X61697849Y-98293332I-44194J44194D01*
G01*
X61609460Y-98204943D01*
G75*
G02*
X61609460Y-98116555I44194J44194D01*
G01*
X62086757Y-97639258D01*
G75*
G02*
X62175145Y-97639258I44194J-44194D01*
G01*
G37*
G04 #@! TD.AperFunction*
G04 #@! TA.AperFunction,SMDPad,CuDef*
G36*
G01*
X61821591Y-97285705D02*
X61909980Y-97374094D01*
G75*
G02*
X61909980Y-97462482I-44194J-44194D01*
G01*
X61432683Y-97939779D01*
G75*
G02*
X61344295Y-97939779I-44194J44194D01*
G01*
X61255906Y-97851390D01*
G75*
G02*
X61255906Y-97763002I44194J44194D01*
G01*
X61733203Y-97285705D01*
G75*
G02*
X61821591Y-97285705I44194J-44194D01*
G01*
G37*
G04 #@! TD.AperFunction*
G04 #@! TA.AperFunction,SMDPad,CuDef*
G36*
G01*
X61468038Y-96932151D02*
X61556427Y-97020540D01*
G75*
G02*
X61556427Y-97108928I-44194J-44194D01*
G01*
X61079130Y-97586225D01*
G75*
G02*
X60990742Y-97586225I-44194J44194D01*
G01*
X60902353Y-97497836D01*
G75*
G02*
X60902353Y-97409448I44194J44194D01*
G01*
X61379650Y-96932151D01*
G75*
G02*
X61468038Y-96932151I44194J-44194D01*
G01*
G37*
G04 #@! TD.AperFunction*
G04 #@! TA.AperFunction,SMDPad,CuDef*
G36*
G01*
X61114485Y-96578598D02*
X61202874Y-96666987D01*
G75*
G02*
X61202874Y-96755375I-44194J-44194D01*
G01*
X60725577Y-97232672D01*
G75*
G02*
X60637189Y-97232672I-44194J44194D01*
G01*
X60548800Y-97144283D01*
G75*
G02*
X60548800Y-97055895I44194J44194D01*
G01*
X61026097Y-96578598D01*
G75*
G02*
X61114485Y-96578598I44194J-44194D01*
G01*
G37*
G04 #@! TD.AperFunction*
G04 #@! TA.AperFunction,SMDPad,CuDef*
G36*
G01*
X60760931Y-96225045D02*
X60849320Y-96313434D01*
G75*
G02*
X60849320Y-96401822I-44194J-44194D01*
G01*
X60372023Y-96879119D01*
G75*
G02*
X60283635Y-96879119I-44194J44194D01*
G01*
X60195246Y-96790730D01*
G75*
G02*
X60195246Y-96702342I44194J44194D01*
G01*
X60672543Y-96225045D01*
G75*
G02*
X60760931Y-96225045I44194J-44194D01*
G01*
G37*
G04 #@! TD.AperFunction*
G04 #@! TA.AperFunction,SMDPad,CuDef*
G36*
G01*
X60407378Y-95871491D02*
X60495767Y-95959880D01*
G75*
G02*
X60495767Y-96048268I-44194J-44194D01*
G01*
X60018470Y-96525565D01*
G75*
G02*
X59930082Y-96525565I-44194J44194D01*
G01*
X59841693Y-96437176D01*
G75*
G02*
X59841693Y-96348788I44194J44194D01*
G01*
X60318990Y-95871491D01*
G75*
G02*
X60407378Y-95871491I44194J-44194D01*
G01*
G37*
G04 #@! TD.AperFunction*
G04 #@! TA.AperFunction,SMDPad,CuDef*
G36*
G01*
X60053825Y-95517938D02*
X60142214Y-95606327D01*
G75*
G02*
X60142214Y-95694715I-44194J-44194D01*
G01*
X59664917Y-96172012D01*
G75*
G02*
X59576529Y-96172012I-44194J44194D01*
G01*
X59488140Y-96083623D01*
G75*
G02*
X59488140Y-95995235I44194J44194D01*
G01*
X59965437Y-95517938D01*
G75*
G02*
X60053825Y-95517938I44194J-44194D01*
G01*
G37*
G04 #@! TD.AperFunction*
G04 #@! TA.AperFunction,SMDPad,CuDef*
G36*
G01*
X59664917Y-94527988D02*
X60142214Y-95005285D01*
G75*
G02*
X60142214Y-95093673I-44194J-44194D01*
G01*
X60053825Y-95182062D01*
G75*
G02*
X59965437Y-95182062I-44194J44194D01*
G01*
X59488140Y-94704765D01*
G75*
G02*
X59488140Y-94616377I44194J44194D01*
G01*
X59576529Y-94527988D01*
G75*
G02*
X59664917Y-94527988I44194J-44194D01*
G01*
G37*
G04 #@! TD.AperFunction*
G04 #@! TA.AperFunction,SMDPad,CuDef*
G36*
G01*
X60018470Y-94174435D02*
X60495767Y-94651732D01*
G75*
G02*
X60495767Y-94740120I-44194J-44194D01*
G01*
X60407378Y-94828509D01*
G75*
G02*
X60318990Y-94828509I-44194J44194D01*
G01*
X59841693Y-94351212D01*
G75*
G02*
X59841693Y-94262824I44194J44194D01*
G01*
X59930082Y-94174435D01*
G75*
G02*
X60018470Y-94174435I44194J-44194D01*
G01*
G37*
G04 #@! TD.AperFunction*
G04 #@! TA.AperFunction,SMDPad,CuDef*
G36*
G01*
X60372023Y-93820881D02*
X60849320Y-94298178D01*
G75*
G02*
X60849320Y-94386566I-44194J-44194D01*
G01*
X60760931Y-94474955D01*
G75*
G02*
X60672543Y-94474955I-44194J44194D01*
G01*
X60195246Y-93997658D01*
G75*
G02*
X60195246Y-93909270I44194J44194D01*
G01*
X60283635Y-93820881D01*
G75*
G02*
X60372023Y-93820881I44194J-44194D01*
G01*
G37*
G04 #@! TD.AperFunction*
G04 #@! TA.AperFunction,SMDPad,CuDef*
G36*
G01*
X60725577Y-93467328D02*
X61202874Y-93944625D01*
G75*
G02*
X61202874Y-94033013I-44194J-44194D01*
G01*
X61114485Y-94121402D01*
G75*
G02*
X61026097Y-94121402I-44194J44194D01*
G01*
X60548800Y-93644105D01*
G75*
G02*
X60548800Y-93555717I44194J44194D01*
G01*
X60637189Y-93467328D01*
G75*
G02*
X60725577Y-93467328I44194J-44194D01*
G01*
G37*
G04 #@! TD.AperFunction*
G04 #@! TA.AperFunction,SMDPad,CuDef*
G36*
G01*
X61079130Y-93113775D02*
X61556427Y-93591072D01*
G75*
G02*
X61556427Y-93679460I-44194J-44194D01*
G01*
X61468038Y-93767849D01*
G75*
G02*
X61379650Y-93767849I-44194J44194D01*
G01*
X60902353Y-93290552D01*
G75*
G02*
X60902353Y-93202164I44194J44194D01*
G01*
X60990742Y-93113775D01*
G75*
G02*
X61079130Y-93113775I44194J-44194D01*
G01*
G37*
G04 #@! TD.AperFunction*
G04 #@! TA.AperFunction,SMDPad,CuDef*
G36*
G01*
X61432683Y-92760221D02*
X61909980Y-93237518D01*
G75*
G02*
X61909980Y-93325906I-44194J-44194D01*
G01*
X61821591Y-93414295D01*
G75*
G02*
X61733203Y-93414295I-44194J44194D01*
G01*
X61255906Y-92936998D01*
G75*
G02*
X61255906Y-92848610I44194J44194D01*
G01*
X61344295Y-92760221D01*
G75*
G02*
X61432683Y-92760221I44194J-44194D01*
G01*
G37*
G04 #@! TD.AperFunction*
G04 #@! TA.AperFunction,SMDPad,CuDef*
G36*
G01*
X61786237Y-92406668D02*
X62263534Y-92883965D01*
G75*
G02*
X62263534Y-92972353I-44194J-44194D01*
G01*
X62175145Y-93060742D01*
G75*
G02*
X62086757Y-93060742I-44194J44194D01*
G01*
X61609460Y-92583445D01*
G75*
G02*
X61609460Y-92495057I44194J44194D01*
G01*
X61697849Y-92406668D01*
G75*
G02*
X61786237Y-92406668I44194J-44194D01*
G01*
G37*
G04 #@! TD.AperFunction*
G04 #@! TA.AperFunction,SMDPad,CuDef*
G36*
G01*
X62139790Y-92053115D02*
X62617087Y-92530412D01*
G75*
G02*
X62617087Y-92618800I-44194J-44194D01*
G01*
X62528698Y-92707189D01*
G75*
G02*
X62440310Y-92707189I-44194J44194D01*
G01*
X61963013Y-92229892D01*
G75*
G02*
X61963013Y-92141504I44194J44194D01*
G01*
X62051402Y-92053115D01*
G75*
G02*
X62139790Y-92053115I44194J-44194D01*
G01*
G37*
G04 #@! TD.AperFunction*
G04 #@! TA.AperFunction,SMDPad,CuDef*
G36*
G01*
X63518648Y-92053115D02*
X63607037Y-92141504D01*
G75*
G02*
X63607037Y-92229892I-44194J-44194D01*
G01*
X63129740Y-92707189D01*
G75*
G02*
X63041352Y-92707189I-44194J44194D01*
G01*
X62952963Y-92618800D01*
G75*
G02*
X62952963Y-92530412I44194J44194D01*
G01*
X63430260Y-92053115D01*
G75*
G02*
X63518648Y-92053115I44194J-44194D01*
G01*
G37*
G04 #@! TD.AperFunction*
G04 #@! TA.AperFunction,SMDPad,CuDef*
G36*
G01*
X63872201Y-92406668D02*
X63960590Y-92495057D01*
G75*
G02*
X63960590Y-92583445I-44194J-44194D01*
G01*
X63483293Y-93060742D01*
G75*
G02*
X63394905Y-93060742I-44194J44194D01*
G01*
X63306516Y-92972353D01*
G75*
G02*
X63306516Y-92883965I44194J44194D01*
G01*
X63783813Y-92406668D01*
G75*
G02*
X63872201Y-92406668I44194J-44194D01*
G01*
G37*
G04 #@! TD.AperFunction*
G04 #@! TA.AperFunction,SMDPad,CuDef*
G36*
G01*
X64225755Y-92760221D02*
X64314144Y-92848610D01*
G75*
G02*
X64314144Y-92936998I-44194J-44194D01*
G01*
X63836847Y-93414295D01*
G75*
G02*
X63748459Y-93414295I-44194J44194D01*
G01*
X63660070Y-93325906D01*
G75*
G02*
X63660070Y-93237518I44194J44194D01*
G01*
X64137367Y-92760221D01*
G75*
G02*
X64225755Y-92760221I44194J-44194D01*
G01*
G37*
G04 #@! TD.AperFunction*
G04 #@! TA.AperFunction,SMDPad,CuDef*
G36*
G01*
X64579308Y-93113775D02*
X64667697Y-93202164D01*
G75*
G02*
X64667697Y-93290552I-44194J-44194D01*
G01*
X64190400Y-93767849D01*
G75*
G02*
X64102012Y-93767849I-44194J44194D01*
G01*
X64013623Y-93679460D01*
G75*
G02*
X64013623Y-93591072I44194J44194D01*
G01*
X64490920Y-93113775D01*
G75*
G02*
X64579308Y-93113775I44194J-44194D01*
G01*
G37*
G04 #@! TD.AperFunction*
G04 #@! TA.AperFunction,SMDPad,CuDef*
G36*
G01*
X64932861Y-93467328D02*
X65021250Y-93555717D01*
G75*
G02*
X65021250Y-93644105I-44194J-44194D01*
G01*
X64543953Y-94121402D01*
G75*
G02*
X64455565Y-94121402I-44194J44194D01*
G01*
X64367176Y-94033013D01*
G75*
G02*
X64367176Y-93944625I44194J44194D01*
G01*
X64844473Y-93467328D01*
G75*
G02*
X64932861Y-93467328I44194J-44194D01*
G01*
G37*
G04 #@! TD.AperFunction*
G04 #@! TA.AperFunction,SMDPad,CuDef*
G36*
G01*
X65286415Y-93820881D02*
X65374804Y-93909270D01*
G75*
G02*
X65374804Y-93997658I-44194J-44194D01*
G01*
X64897507Y-94474955D01*
G75*
G02*
X64809119Y-94474955I-44194J44194D01*
G01*
X64720730Y-94386566D01*
G75*
G02*
X64720730Y-94298178I44194J44194D01*
G01*
X65198027Y-93820881D01*
G75*
G02*
X65286415Y-93820881I44194J-44194D01*
G01*
G37*
G04 #@! TD.AperFunction*
G04 #@! TA.AperFunction,SMDPad,CuDef*
G36*
G01*
X65639968Y-94174435D02*
X65728357Y-94262824D01*
G75*
G02*
X65728357Y-94351212I-44194J-44194D01*
G01*
X65251060Y-94828509D01*
G75*
G02*
X65162672Y-94828509I-44194J44194D01*
G01*
X65074283Y-94740120D01*
G75*
G02*
X65074283Y-94651732I44194J44194D01*
G01*
X65551580Y-94174435D01*
G75*
G02*
X65639968Y-94174435I44194J-44194D01*
G01*
G37*
G04 #@! TD.AperFunction*
G04 #@! TA.AperFunction,SMDPad,CuDef*
G36*
G01*
X65993521Y-94527988D02*
X66081910Y-94616377D01*
G75*
G02*
X66081910Y-94704765I-44194J-44194D01*
G01*
X65604613Y-95182062D01*
G75*
G02*
X65516225Y-95182062I-44194J44194D01*
G01*
X65427836Y-95093673D01*
G75*
G02*
X65427836Y-95005285I44194J44194D01*
G01*
X65905133Y-94527988D01*
G75*
G02*
X65993521Y-94527988I44194J-44194D01*
G01*
G37*
G04 #@! TD.AperFunction*
G04 #@! TA.AperFunction,SMDPad,CuDef*
G36*
G01*
X38375000Y-92673750D02*
X38375000Y-93586250D01*
G75*
G02*
X38131250Y-93830000I-243750J0D01*
G01*
X37643750Y-93830000D01*
G75*
G02*
X37400000Y-93586250I0J243750D01*
G01*
X37400000Y-92673750D01*
G75*
G02*
X37643750Y-92430000I243750J0D01*
G01*
X38131250Y-92430000D01*
G75*
G02*
X38375000Y-92673750I0J-243750D01*
G01*
G37*
G04 #@! TD.AperFunction*
G04 #@! TA.AperFunction,SMDPad,CuDef*
G36*
G01*
X36500000Y-92673750D02*
X36500000Y-93586250D01*
G75*
G02*
X36256250Y-93830000I-243750J0D01*
G01*
X35768750Y-93830000D01*
G75*
G02*
X35525000Y-93586250I0J243750D01*
G01*
X35525000Y-92673750D01*
G75*
G02*
X35768750Y-92430000I243750J0D01*
G01*
X36256250Y-92430000D01*
G75*
G02*
X36500000Y-92673750I0J-243750D01*
G01*
G37*
G04 #@! TD.AperFunction*
G04 #@! TA.AperFunction,SMDPad,CuDef*
G36*
G01*
X73420000Y-118316250D02*
X73420000Y-117403750D01*
G75*
G02*
X73663750Y-117160000I243750J0D01*
G01*
X74151250Y-117160000D01*
G75*
G02*
X74395000Y-117403750I0J-243750D01*
G01*
X74395000Y-118316250D01*
G75*
G02*
X74151250Y-118560000I-243750J0D01*
G01*
X73663750Y-118560000D01*
G75*
G02*
X73420000Y-118316250I0J243750D01*
G01*
G37*
G04 #@! TD.AperFunction*
G04 #@! TA.AperFunction,SMDPad,CuDef*
G36*
G01*
X71545000Y-118316250D02*
X71545000Y-117403750D01*
G75*
G02*
X71788750Y-117160000I243750J0D01*
G01*
X72276250Y-117160000D01*
G75*
G02*
X72520000Y-117403750I0J-243750D01*
G01*
X72520000Y-118316250D01*
G75*
G02*
X72276250Y-118560000I-243750J0D01*
G01*
X71788750Y-118560000D01*
G75*
G02*
X71545000Y-118316250I0J243750D01*
G01*
G37*
G04 #@! TD.AperFunction*
G04 #@! TA.AperFunction,SMDPad,CuDef*
G36*
G01*
X33279999Y-93540000D02*
X34180001Y-93540000D01*
G75*
G02*
X34430000Y-93789999I0J-249999D01*
G01*
X34430000Y-94315001D01*
G75*
G02*
X34180001Y-94565000I-249999J0D01*
G01*
X33279999Y-94565000D01*
G75*
G02*
X33030000Y-94315001I0J249999D01*
G01*
X33030000Y-93789999D01*
G75*
G02*
X33279999Y-93540000I249999J0D01*
G01*
G37*
G04 #@! TD.AperFunction*
G04 #@! TA.AperFunction,SMDPad,CuDef*
G36*
G01*
X33279999Y-91715000D02*
X34180001Y-91715000D01*
G75*
G02*
X34430000Y-91964999I0J-249999D01*
G01*
X34430000Y-92490001D01*
G75*
G02*
X34180001Y-92740000I-249999J0D01*
G01*
X33279999Y-92740000D01*
G75*
G02*
X33030000Y-92490001I0J249999D01*
G01*
X33030000Y-91964999D01*
G75*
G02*
X33279999Y-91715000I249999J0D01*
G01*
G37*
G04 #@! TD.AperFunction*
G04 #@! TA.AperFunction,SMDPad,CuDef*
G36*
G01*
X76650001Y-119295000D02*
X75749999Y-119295000D01*
G75*
G02*
X75500000Y-119045001I0J249999D01*
G01*
X75500000Y-118519999D01*
G75*
G02*
X75749999Y-118270000I249999J0D01*
G01*
X76650001Y-118270000D01*
G75*
G02*
X76900000Y-118519999I0J-249999D01*
G01*
X76900000Y-119045001D01*
G75*
G02*
X76650001Y-119295000I-249999J0D01*
G01*
G37*
G04 #@! TD.AperFunction*
G04 #@! TA.AperFunction,SMDPad,CuDef*
G36*
G01*
X76650001Y-117470000D02*
X75749999Y-117470000D01*
G75*
G02*
X75500000Y-117220001I0J249999D01*
G01*
X75500000Y-116694999D01*
G75*
G02*
X75749999Y-116445000I249999J0D01*
G01*
X76650001Y-116445000D01*
G75*
G02*
X76900000Y-116694999I0J-249999D01*
G01*
X76900000Y-117220001D01*
G75*
G02*
X76650001Y-117470000I-249999J0D01*
G01*
G37*
G04 #@! TD.AperFunction*
G04 #@! TA.AperFunction,SMDPad,CuDef*
G36*
G01*
X38375000Y-128413750D02*
X38375000Y-129326250D01*
G75*
G02*
X38131250Y-129570000I-243750J0D01*
G01*
X37643750Y-129570000D01*
G75*
G02*
X37400000Y-129326250I0J243750D01*
G01*
X37400000Y-128413750D01*
G75*
G02*
X37643750Y-128170000I243750J0D01*
G01*
X38131250Y-128170000D01*
G75*
G02*
X38375000Y-128413750I0J-243750D01*
G01*
G37*
G04 #@! TD.AperFunction*
G04 #@! TA.AperFunction,SMDPad,CuDef*
G36*
G01*
X36500000Y-128413750D02*
X36500000Y-129326250D01*
G75*
G02*
X36256250Y-129570000I-243750J0D01*
G01*
X35768750Y-129570000D01*
G75*
G02*
X35525000Y-129326250I0J243750D01*
G01*
X35525000Y-128413750D01*
G75*
G02*
X35768750Y-128170000I243750J0D01*
G01*
X36256250Y-128170000D01*
G75*
G02*
X36500000Y-128413750I0J-243750D01*
G01*
G37*
G04 #@! TD.AperFunction*
G04 #@! TA.AperFunction,SMDPad,CuDef*
G36*
G01*
X33279999Y-127435000D02*
X34180001Y-127435000D01*
G75*
G02*
X34430000Y-127684999I0J-249999D01*
G01*
X34430000Y-128210001D01*
G75*
G02*
X34180001Y-128460000I-249999J0D01*
G01*
X33279999Y-128460000D01*
G75*
G02*
X33030000Y-128210001I0J249999D01*
G01*
X33030000Y-127684999D01*
G75*
G02*
X33279999Y-127435000I249999J0D01*
G01*
G37*
G04 #@! TD.AperFunction*
G04 #@! TA.AperFunction,SMDPad,CuDef*
G36*
G01*
X33279999Y-129260000D02*
X34180001Y-129260000D01*
G75*
G02*
X34430000Y-129509999I0J-249999D01*
G01*
X34430000Y-130035001D01*
G75*
G02*
X34180001Y-130285000I-249999J0D01*
G01*
X33279999Y-130285000D01*
G75*
G02*
X33030000Y-130035001I0J249999D01*
G01*
X33030000Y-129509999D01*
G75*
G02*
X33279999Y-129260000I249999J0D01*
G01*
G37*
G04 #@! TD.AperFunction*
D29*
X76170000Y-93950000D03*
X76170000Y-100250000D03*
X72370000Y-93950000D03*
X72370000Y-100250000D03*
D30*
X70200000Y-89100000D03*
D31*
X70200000Y-90370000D03*
X68930000Y-89100000D03*
X68930000Y-90370000D03*
X67660000Y-89100000D03*
X67660000Y-90370000D03*
X66390000Y-89100000D03*
X66390000Y-90370000D03*
X65120000Y-89100000D03*
X65120000Y-90370000D03*
G04 #@! TA.AperFunction,SMDPad,CuDef*
G36*
G01*
X52340001Y-92625000D02*
X51439999Y-92625000D01*
G75*
G02*
X51190000Y-92375001I0J249999D01*
G01*
X51190000Y-91849999D01*
G75*
G02*
X51439999Y-91600000I249999J0D01*
G01*
X52340001Y-91600000D01*
G75*
G02*
X52590000Y-91849999I0J-249999D01*
G01*
X52590000Y-92375001D01*
G75*
G02*
X52340001Y-92625000I-249999J0D01*
G01*
G37*
G04 #@! TD.AperFunction*
G04 #@! TA.AperFunction,SMDPad,CuDef*
G36*
G01*
X52340001Y-90800000D02*
X51439999Y-90800000D01*
G75*
G02*
X51190000Y-90550001I0J249999D01*
G01*
X51190000Y-90024999D01*
G75*
G02*
X51439999Y-89775000I249999J0D01*
G01*
X52340001Y-89775000D01*
G75*
G02*
X52590000Y-90024999I0J-249999D01*
G01*
X52590000Y-90550001D01*
G75*
G02*
X52340001Y-90800000I-249999J0D01*
G01*
G37*
G04 #@! TD.AperFunction*
G04 #@! TA.AperFunction,SMDPad,CuDef*
G36*
G01*
X50320001Y-90810000D02*
X49419999Y-90810000D01*
G75*
G02*
X49170000Y-90560001I0J249999D01*
G01*
X49170000Y-90034999D01*
G75*
G02*
X49419999Y-89785000I249999J0D01*
G01*
X50320001Y-89785000D01*
G75*
G02*
X50570000Y-90034999I0J-249999D01*
G01*
X50570000Y-90560001D01*
G75*
G02*
X50320001Y-90810000I-249999J0D01*
G01*
G37*
G04 #@! TD.AperFunction*
G04 #@! TA.AperFunction,SMDPad,CuDef*
G36*
G01*
X50320001Y-92635000D02*
X49419999Y-92635000D01*
G75*
G02*
X49170000Y-92385001I0J249999D01*
G01*
X49170000Y-91859999D01*
G75*
G02*
X49419999Y-91610000I249999J0D01*
G01*
X50320001Y-91610000D01*
G75*
G02*
X50570000Y-91859999I0J-249999D01*
G01*
X50570000Y-92385001D01*
G75*
G02*
X50320001Y-92635000I-249999J0D01*
G01*
G37*
G04 #@! TD.AperFunction*
G04 #@! TA.AperFunction,SMDPad,CuDef*
G36*
G01*
X54899999Y-95415000D02*
X55800001Y-95415000D01*
G75*
G02*
X56050000Y-95664999I0J-249999D01*
G01*
X56050000Y-96190001D01*
G75*
G02*
X55800001Y-96440000I-249999J0D01*
G01*
X54899999Y-96440000D01*
G75*
G02*
X54650000Y-96190001I0J249999D01*
G01*
X54650000Y-95664999D01*
G75*
G02*
X54899999Y-95415000I249999J0D01*
G01*
G37*
G04 #@! TD.AperFunction*
G04 #@! TA.AperFunction,SMDPad,CuDef*
G36*
G01*
X54899999Y-97240000D02*
X55800001Y-97240000D01*
G75*
G02*
X56050000Y-97489999I0J-249999D01*
G01*
X56050000Y-98015001D01*
G75*
G02*
X55800001Y-98265000I-249999J0D01*
G01*
X54899999Y-98265000D01*
G75*
G02*
X54650000Y-98015001I0J249999D01*
G01*
X54650000Y-97489999D01*
G75*
G02*
X54899999Y-97240000I249999J0D01*
G01*
G37*
G04 #@! TD.AperFunction*
G04 #@! TA.AperFunction,SMDPad,CuDef*
G36*
G01*
X77020000Y-102195000D02*
X77020000Y-103145000D01*
G75*
G02*
X76770000Y-103395000I-250000J0D01*
G01*
X76270000Y-103395000D01*
G75*
G02*
X76020000Y-103145000I0J250000D01*
G01*
X76020000Y-102195000D01*
G75*
G02*
X76270000Y-101945000I250000J0D01*
G01*
X76770000Y-101945000D01*
G75*
G02*
X77020000Y-102195000I0J-250000D01*
G01*
G37*
G04 #@! TD.AperFunction*
G04 #@! TA.AperFunction,SMDPad,CuDef*
G36*
G01*
X75120000Y-102195000D02*
X75120000Y-103145000D01*
G75*
G02*
X74870000Y-103395000I-250000J0D01*
G01*
X74370000Y-103395000D01*
G75*
G02*
X74120000Y-103145000I0J250000D01*
G01*
X74120000Y-102195000D01*
G75*
G02*
X74370000Y-101945000I250000J0D01*
G01*
X74870000Y-101945000D01*
G75*
G02*
X75120000Y-102195000I0J-250000D01*
G01*
G37*
G04 #@! TD.AperFunction*
D32*
X40050000Y-108730000D03*
X37950000Y-108730000D03*
X37950000Y-113310000D03*
X40050000Y-113310000D03*
D33*
X69830000Y-122390000D03*
X69830000Y-124490000D03*
G04 #@! TA.AperFunction,SMDPad,CuDef*
G36*
G01*
X50069999Y-128600000D02*
X51370001Y-128600000D01*
G75*
G02*
X51620000Y-128849999I0J-249999D01*
G01*
X51620000Y-129500001D01*
G75*
G02*
X51370001Y-129750000I-249999J0D01*
G01*
X50069999Y-129750000D01*
G75*
G02*
X49820000Y-129500001I0J249999D01*
G01*
X49820000Y-128849999D01*
G75*
G02*
X50069999Y-128600000I249999J0D01*
G01*
G37*
G04 #@! TD.AperFunction*
G04 #@! TA.AperFunction,SMDPad,CuDef*
G36*
G01*
X50069999Y-131550000D02*
X51370001Y-131550000D01*
G75*
G02*
X51620000Y-131799999I0J-249999D01*
G01*
X51620000Y-132450001D01*
G75*
G02*
X51370001Y-132700000I-249999J0D01*
G01*
X50069999Y-132700000D01*
G75*
G02*
X49820000Y-132450001I0J249999D01*
G01*
X49820000Y-131799999D01*
G75*
G02*
X50069999Y-131550000I249999J0D01*
G01*
G37*
G04 #@! TD.AperFunction*
G04 #@! TA.AperFunction,SMDPad,CuDef*
G36*
G01*
X59670001Y-129820000D02*
X58369999Y-129820000D01*
G75*
G02*
X58120000Y-129570001I0J249999D01*
G01*
X58120000Y-128919999D01*
G75*
G02*
X58369999Y-128670000I249999J0D01*
G01*
X59670001Y-128670000D01*
G75*
G02*
X59920000Y-128919999I0J-249999D01*
G01*
X59920000Y-129570001D01*
G75*
G02*
X59670001Y-129820000I-249999J0D01*
G01*
G37*
G04 #@! TD.AperFunction*
G04 #@! TA.AperFunction,SMDPad,CuDef*
G36*
G01*
X59670001Y-132770000D02*
X58369999Y-132770000D01*
G75*
G02*
X58120000Y-132520001I0J249999D01*
G01*
X58120000Y-131869999D01*
G75*
G02*
X58369999Y-131620000I249999J0D01*
G01*
X59670001Y-131620000D01*
G75*
G02*
X59920000Y-131869999I0J-249999D01*
G01*
X59920000Y-132520001D01*
G75*
G02*
X59670001Y-132770000I-249999J0D01*
G01*
G37*
G04 #@! TD.AperFunction*
G04 #@! TA.AperFunction,SMDPad,CuDef*
G36*
G01*
X39779999Y-131520000D02*
X41080001Y-131520000D01*
G75*
G02*
X41330000Y-131769999I0J-249999D01*
G01*
X41330000Y-132420001D01*
G75*
G02*
X41080001Y-132670000I-249999J0D01*
G01*
X39779999Y-132670000D01*
G75*
G02*
X39530000Y-132420001I0J249999D01*
G01*
X39530000Y-131769999D01*
G75*
G02*
X39779999Y-131520000I249999J0D01*
G01*
G37*
G04 #@! TD.AperFunction*
G04 #@! TA.AperFunction,SMDPad,CuDef*
G36*
G01*
X39779999Y-128570000D02*
X41080001Y-128570000D01*
G75*
G02*
X41330000Y-128819999I0J-249999D01*
G01*
X41330000Y-129470001D01*
G75*
G02*
X41080001Y-129720000I-249999J0D01*
G01*
X39779999Y-129720000D01*
G75*
G02*
X39530000Y-129470001I0J249999D01*
G01*
X39530000Y-128819999D01*
G75*
G02*
X39779999Y-128570000I249999J0D01*
G01*
G37*
G04 #@! TD.AperFunction*
G04 #@! TA.AperFunction,SMDPad,CuDef*
G36*
G01*
X62070001Y-132760000D02*
X60769999Y-132760000D01*
G75*
G02*
X60520000Y-132510001I0J249999D01*
G01*
X60520000Y-131859999D01*
G75*
G02*
X60769999Y-131610000I249999J0D01*
G01*
X62070001Y-131610000D01*
G75*
G02*
X62320000Y-131859999I0J-249999D01*
G01*
X62320000Y-132510001D01*
G75*
G02*
X62070001Y-132760000I-249999J0D01*
G01*
G37*
G04 #@! TD.AperFunction*
G04 #@! TA.AperFunction,SMDPad,CuDef*
G36*
G01*
X62070001Y-129810000D02*
X60769999Y-129810000D01*
G75*
G02*
X60520000Y-129560001I0J249999D01*
G01*
X60520000Y-128909999D01*
G75*
G02*
X60769999Y-128660000I249999J0D01*
G01*
X62070001Y-128660000D01*
G75*
G02*
X62320000Y-128909999I0J-249999D01*
G01*
X62320000Y-129560001D01*
G75*
G02*
X62070001Y-129810000I-249999J0D01*
G01*
G37*
G04 #@! TD.AperFunction*
G04 #@! TA.AperFunction,SMDPad,CuDef*
G36*
G01*
X40085000Y-106523750D02*
X40085000Y-107036250D01*
G75*
G02*
X39866250Y-107255000I-218750J0D01*
G01*
X39428750Y-107255000D01*
G75*
G02*
X39210000Y-107036250I0J218750D01*
G01*
X39210000Y-106523750D01*
G75*
G02*
X39428750Y-106305000I218750J0D01*
G01*
X39866250Y-106305000D01*
G75*
G02*
X40085000Y-106523750I0J-218750D01*
G01*
G37*
G04 #@! TD.AperFunction*
G04 #@! TA.AperFunction,SMDPad,CuDef*
G36*
G01*
X38510000Y-106523750D02*
X38510000Y-107036250D01*
G75*
G02*
X38291250Y-107255000I-218750J0D01*
G01*
X37853750Y-107255000D01*
G75*
G02*
X37635000Y-107036250I0J218750D01*
G01*
X37635000Y-106523750D01*
G75*
G02*
X37853750Y-106305000I218750J0D01*
G01*
X38291250Y-106305000D01*
G75*
G02*
X38510000Y-106523750I0J-218750D01*
G01*
G37*
G04 #@! TD.AperFunction*
G04 #@! TA.AperFunction,SMDPad,CuDef*
G36*
G01*
X38510000Y-115003750D02*
X38510000Y-115516250D01*
G75*
G02*
X38291250Y-115735000I-218750J0D01*
G01*
X37853750Y-115735000D01*
G75*
G02*
X37635000Y-115516250I0J218750D01*
G01*
X37635000Y-115003750D01*
G75*
G02*
X37853750Y-114785000I218750J0D01*
G01*
X38291250Y-114785000D01*
G75*
G02*
X38510000Y-115003750I0J-218750D01*
G01*
G37*
G04 #@! TD.AperFunction*
G04 #@! TA.AperFunction,SMDPad,CuDef*
G36*
G01*
X40085000Y-115003750D02*
X40085000Y-115516250D01*
G75*
G02*
X39866250Y-115735000I-218750J0D01*
G01*
X39428750Y-115735000D01*
G75*
G02*
X39210000Y-115516250I0J218750D01*
G01*
X39210000Y-115003750D01*
G75*
G02*
X39428750Y-114785000I218750J0D01*
G01*
X39866250Y-114785000D01*
G75*
G02*
X40085000Y-115003750I0J-218750D01*
G01*
G37*
G04 #@! TD.AperFunction*
G04 #@! TA.AperFunction,SMDPad,CuDef*
G36*
G01*
X72246250Y-124745000D02*
X71733750Y-124745000D01*
G75*
G02*
X71515000Y-124526250I0J218750D01*
G01*
X71515000Y-124088750D01*
G75*
G02*
X71733750Y-123870000I218750J0D01*
G01*
X72246250Y-123870000D01*
G75*
G02*
X72465000Y-124088750I0J-218750D01*
G01*
X72465000Y-124526250D01*
G75*
G02*
X72246250Y-124745000I-218750J0D01*
G01*
G37*
G04 #@! TD.AperFunction*
G04 #@! TA.AperFunction,SMDPad,CuDef*
G36*
G01*
X72246250Y-123170000D02*
X71733750Y-123170000D01*
G75*
G02*
X71515000Y-122951250I0J218750D01*
G01*
X71515000Y-122513750D01*
G75*
G02*
X71733750Y-122295000I218750J0D01*
G01*
X72246250Y-122295000D01*
G75*
G02*
X72465000Y-122513750I0J-218750D01*
G01*
X72465000Y-122951250D01*
G75*
G02*
X72246250Y-123170000I-218750J0D01*
G01*
G37*
G04 #@! TD.AperFunction*
D34*
X52880000Y-108230000D03*
X51770000Y-106980000D03*
X51770000Y-108220000D03*
X52330000Y-108530000D03*
X52320000Y-106660000D03*
X52880000Y-106970000D03*
X64080000Y-108960000D03*
X68800000Y-115610000D03*
X68960000Y-115010000D03*
X67820000Y-114120000D03*
X67280000Y-114620000D03*
X68190000Y-115790000D03*
X61670000Y-110330000D03*
X60600000Y-111250000D03*
X60780000Y-111850000D03*
X62280000Y-110850000D03*
X61370000Y-112010000D03*
X58990000Y-114870000D03*
X60010000Y-116240000D03*
X59460000Y-116540000D03*
X59750000Y-114740000D03*
X58900000Y-116230000D03*
X58050000Y-105780000D03*
X58120000Y-107100000D03*
X58960000Y-107220000D03*
X58600000Y-105460000D03*
X59160000Y-105770000D03*
X52770000Y-121500000D03*
X52640000Y-119830000D03*
X51880000Y-120600000D03*
X53540000Y-120720000D03*
X53380000Y-121320000D03*
X52040000Y-120010000D03*
X47500000Y-115490000D03*
X49000000Y-116210000D03*
X48260000Y-114720000D03*
X49160000Y-115610000D03*
X47660000Y-114900000D03*
X48390000Y-116390000D03*
X55410000Y-107510000D03*
X55430000Y-106560000D03*
X55320000Y-115500000D03*
X55330000Y-114480000D03*
X53150000Y-114830000D03*
X36150000Y-109634990D03*
X36580000Y-111030000D03*
X33100000Y-106160000D03*
X32470000Y-105460000D03*
X43700000Y-132270000D03*
X56120000Y-109060000D03*
X56600000Y-116660000D03*
X36290000Y-116240000D03*
X72830000Y-119260000D03*
X36370000Y-105299990D03*
X61110000Y-92340000D03*
X59930000Y-88000000D03*
X65150000Y-98070000D03*
X68370000Y-100135010D03*
X39360000Y-93790000D03*
X32990000Y-115880000D03*
X75460000Y-124280000D03*
X46660000Y-92160000D03*
X47370000Y-88900000D03*
X50860000Y-92585000D03*
X48660000Y-106020000D03*
X47880000Y-105250000D03*
X49550000Y-105120000D03*
X48780000Y-104360000D03*
X48060000Y-105860000D03*
X49370000Y-104520000D03*
X53040000Y-111110000D03*
X53050000Y-112980000D03*
X52490000Y-112670000D03*
X53600000Y-112680000D03*
X53600000Y-111420000D03*
X52490000Y-111430000D03*
X62540000Y-109700000D03*
X63140000Y-110450000D03*
X64170000Y-105350000D03*
X62300000Y-105370000D03*
X47890000Y-99360000D03*
X48370000Y-100740000D03*
X49410000Y-100620000D03*
X48940000Y-99030000D03*
X43890000Y-122680000D03*
X44920000Y-122700000D03*
X44860000Y-121280000D03*
X59350000Y-112240000D03*
X66560000Y-105400000D03*
X60330000Y-104560000D03*
X58480000Y-103210000D03*
X61500000Y-106570000D03*
X58100000Y-110440000D03*
X59770000Y-109220000D03*
X45790000Y-108190000D03*
X50850000Y-108770000D03*
X52040000Y-101730000D03*
X49840000Y-102500000D03*
X52780000Y-104010000D03*
X50170000Y-112180000D03*
X43090000Y-110480000D03*
X44760000Y-113890000D03*
X48080000Y-118240000D03*
X50560000Y-117230000D03*
X43290000Y-126250000D03*
X48790000Y-126320000D03*
X42660000Y-95640000D03*
X48630000Y-95590000D03*
X53200000Y-97110000D03*
X60830000Y-98660000D03*
X62510000Y-99050000D03*
X61080000Y-100140000D03*
X59120000Y-99020000D03*
X61520000Y-100760000D03*
X56970000Y-123320000D03*
X52350000Y-123200000D03*
X65160000Y-121300000D03*
X40270000Y-117830000D03*
X40400000Y-126030000D03*
X40400000Y-104120000D03*
X40340000Y-95850000D03*
X43730000Y-105800000D03*
X69540000Y-106840000D03*
X43140000Y-101030000D03*
X64360000Y-102110000D03*
X61290000Y-119420000D03*
X63900000Y-122730000D03*
X72240000Y-104580000D03*
X41750000Y-133080000D03*
X39250000Y-127930020D03*
X50839979Y-133580021D03*
X56470000Y-127790000D03*
X61370000Y-126265000D03*
X53490000Y-127940000D03*
X55820000Y-110180000D03*
X55800503Y-117096485D03*
X35220000Y-116820000D03*
X55010000Y-124450000D03*
X64340844Y-118412220D03*
X57590000Y-119320000D03*
X57900000Y-99790000D03*
X59910000Y-103030000D03*
X32410000Y-109850000D03*
X59790000Y-92190000D03*
X65792845Y-97297157D03*
X56991667Y-98674534D03*
X60820000Y-102440000D03*
X54421794Y-127101794D03*
X52130000Y-128970000D03*
X44980000Y-106200000D03*
X44480000Y-105900000D03*
X44480000Y-106500000D03*
X44980000Y-106800000D03*
X45010000Y-118880000D03*
X44330000Y-118850000D03*
X44350000Y-119460000D03*
X44940000Y-119470000D03*
X40810000Y-114960000D03*
X40810000Y-114400000D03*
X40810000Y-115540000D03*
X40810000Y-116100000D03*
X44440000Y-114990000D03*
X44940000Y-115290000D03*
X44940000Y-115890000D03*
X44440000Y-115590000D03*
X72320000Y-120510000D03*
X71740000Y-120510000D03*
X72880000Y-120510000D03*
X71180000Y-120510000D03*
X62990000Y-126160000D03*
X48240000Y-98830000D03*
X51220000Y-95850000D03*
X54690000Y-93535000D03*
X74750000Y-126940000D03*
X63590000Y-127280000D03*
X49700000Y-98840000D03*
X67050000Y-117910000D03*
X75410000Y-127010000D03*
X65040000Y-124070000D03*
X65040000Y-127790000D03*
X67550000Y-118360000D03*
X45260000Y-120770000D03*
X48110000Y-119850000D03*
X42773200Y-122615659D03*
X48340000Y-123160000D03*
X50640000Y-125480000D03*
X63860000Y-120310000D03*
X63260000Y-121381510D03*
X57080000Y-121750000D03*
X60470000Y-124625000D03*
X57360000Y-124630000D03*
X51331801Y-126091801D03*
X56190000Y-121870000D03*
X68328564Y-115166379D03*
X67921976Y-114759791D03*
X67970000Y-116940000D03*
X70130000Y-118030000D03*
X67430016Y-123635010D03*
X65050000Y-123160000D03*
X59450000Y-115887500D03*
X59450000Y-115312500D03*
X63593294Y-109396706D03*
X63517500Y-105360000D03*
X70341801Y-111308199D03*
X63186706Y-109803294D03*
X62942500Y-105360000D03*
X67360000Y-110250000D03*
X62820000Y-117510000D03*
X68702617Y-111956242D03*
X66850000Y-116200000D03*
X58600000Y-106112500D03*
X61643294Y-110976706D03*
X58600000Y-106687500D03*
X61236706Y-111383294D03*
X74260000Y-94910000D03*
X34650000Y-108050000D03*
X35100000Y-108420000D03*
X34240000Y-108430000D03*
X74110000Y-121080000D03*
X69434656Y-96295344D03*
X70980000Y-95850000D03*
X60380000Y-123659998D03*
X71640521Y-95909479D03*
X66135000Y-124225011D03*
X55550000Y-111500000D03*
X56566667Y-99856095D03*
X55508199Y-110821801D03*
X57140000Y-99900000D03*
X64120000Y-102950000D03*
X72395521Y-97594479D03*
X61250000Y-118740000D03*
X35680000Y-105240000D03*
X56540000Y-91920000D03*
X35832168Y-112065000D03*
X55807752Y-92060481D03*
X70160000Y-95760000D03*
X63760002Y-118419998D03*
X52330000Y-107312500D03*
X48913294Y-104986706D03*
X52330000Y-107887500D03*
X48506706Y-105393294D03*
X51680000Y-115887500D03*
X51680000Y-115312500D03*
X53050000Y-112337500D03*
X53050000Y-111762500D03*
X52903294Y-120883294D03*
X52496706Y-120476706D03*
X48528294Y-115758294D03*
X48121706Y-115351706D03*
X48850000Y-99712500D03*
X62935000Y-100975000D03*
X39652076Y-100291323D03*
X48850000Y-100287500D03*
X61570000Y-101580000D03*
X61884994Y-99200405D03*
X44410000Y-121712500D03*
X61550000Y-99680000D03*
X39651700Y-122291700D03*
X44410000Y-122287500D03*
X38970000Y-91880000D03*
X54256913Y-92116496D03*
X74160000Y-119140000D03*
X69419303Y-95568261D03*
X54920000Y-92039998D03*
X35750000Y-127730004D03*
X34690000Y-107360000D03*
X37030000Y-107540000D03*
X35160000Y-106970000D03*
X34220000Y-106950000D03*
X36950000Y-106370000D03*
X36580000Y-106970000D03*
X40210000Y-89850000D03*
X34700000Y-114000000D03*
X36900000Y-113380000D03*
X36910000Y-113930000D03*
X36900000Y-114530000D03*
X34250000Y-113640000D03*
X35140000Y-113640000D03*
X39764050Y-90255000D03*
X34710000Y-114680000D03*
X35150000Y-115040000D03*
X34250000Y-115040000D03*
X71410000Y-125870000D03*
X70830000Y-125870000D03*
X71970000Y-125870000D03*
X70270000Y-125870000D03*
X66790000Y-95630000D03*
X70970000Y-94180000D03*
X72780000Y-91520000D03*
X67220000Y-96050000D03*
X71230000Y-94740000D03*
X40840000Y-110920000D03*
X68320000Y-126410000D03*
X43250000Y-128470000D03*
D35*
X42620000Y-131550000D02*
X42620000Y-132230000D01*
X42620000Y-132230000D02*
X43440000Y-133050000D01*
X43440000Y-133050000D02*
X45310000Y-133050000D01*
X45610000Y-132750000D02*
X45610000Y-131850000D01*
X48610000Y-132680000D02*
X48610000Y-131662500D01*
X48240000Y-133050000D02*
X48610000Y-132680000D01*
X45610000Y-132940000D02*
X45720000Y-133050000D01*
X45610000Y-131850000D02*
X45610000Y-132940000D01*
X45720000Y-133050000D02*
X48240000Y-133050000D01*
X45310000Y-133050000D02*
X45720000Y-133050000D01*
X46560000Y-131189998D02*
X46020002Y-130650000D01*
X46560000Y-131850000D02*
X46560000Y-131189998D01*
X43620000Y-130650000D02*
X42620000Y-129650000D01*
X46020002Y-130650000D02*
X43620000Y-130650000D01*
D36*
X53320000Y-115000000D02*
X53150000Y-114830000D01*
X54355000Y-115000000D02*
X53320000Y-115000000D01*
X56345000Y-115000000D02*
X55350000Y-115000000D01*
X54355000Y-115000000D02*
X55350000Y-115000000D01*
X56345000Y-107000000D02*
X55350000Y-107000000D01*
X54355000Y-107000000D02*
X55350000Y-107000000D01*
D37*
X40240000Y-102750000D02*
X40209257Y-102719257D01*
D38*
X71020000Y-113750000D02*
X71070000Y-113800000D01*
X69760000Y-113750000D02*
X71020000Y-113750000D01*
X70080037Y-108250000D02*
X70130047Y-108300010D01*
X69760000Y-108250000D02*
X70080037Y-108250000D01*
X70969990Y-108300010D02*
X71070000Y-108200000D01*
X70130047Y-108300010D02*
X70969990Y-108300010D01*
X38980000Y-119250000D02*
X38930000Y-119200000D01*
X40240000Y-119250000D02*
X38980000Y-119250000D01*
X39869953Y-124699990D02*
X39030010Y-124699990D01*
X39919963Y-124750000D02*
X39869953Y-124699990D01*
X39030010Y-124699990D02*
X38930000Y-124800000D01*
X40240000Y-124750000D02*
X39919963Y-124750000D01*
X39030010Y-102699990D02*
X38930000Y-102800000D01*
X39869953Y-102699990D02*
X39030010Y-102699990D01*
X39919963Y-102750000D02*
X39869953Y-102699990D01*
X40240000Y-102750000D02*
X39919963Y-102750000D01*
D36*
X35029999Y-115836200D02*
X35029999Y-116189999D01*
X35029999Y-116189999D02*
X35160000Y-116320000D01*
X35160000Y-116320000D02*
X35410000Y-116320000D01*
X35530001Y-116199999D02*
X35530001Y-115836200D01*
X35410000Y-116320000D02*
X35530001Y-116199999D01*
X35160000Y-116320000D02*
X35220000Y-116320000D01*
X35530001Y-109718599D02*
X35571382Y-109759980D01*
X35530001Y-109216200D02*
X35530001Y-109718599D01*
X35571382Y-109759980D02*
X36090000Y-109759980D01*
X36090000Y-109694990D02*
X36150000Y-109634990D01*
X36090000Y-109759980D02*
X36090000Y-109694990D01*
X35029999Y-109216200D02*
X35029999Y-109609999D01*
X35179980Y-109759980D02*
X35571382Y-109759980D01*
X35029999Y-109609999D02*
X35179980Y-109759980D01*
X34030001Y-109529267D02*
X34030001Y-109216200D01*
X35302500Y-110801766D02*
X34030001Y-109529267D01*
X35302500Y-111030000D02*
X35302500Y-110801766D01*
D39*
X34030001Y-115836200D02*
X34030001Y-115560001D01*
X33960499Y-115560001D02*
X33710000Y-115309502D01*
X34030001Y-115560001D02*
X33960499Y-115560001D01*
X33710000Y-115309502D02*
X33710000Y-113410000D01*
X33710000Y-113410000D02*
X33590000Y-113290000D01*
X33590000Y-112903801D02*
X33590000Y-113290000D01*
X33529999Y-112843800D02*
X33590000Y-112903801D01*
D36*
X35302500Y-111447133D02*
X35302500Y-111030000D01*
X34530000Y-112219633D02*
X35302500Y-111447133D01*
X34530000Y-112843800D02*
X34530000Y-112219633D01*
X35815000Y-111030000D02*
X35302500Y-111030000D01*
X36590000Y-111040000D02*
X36580000Y-111030000D01*
X35946200Y-112843800D02*
X36590000Y-112200000D01*
X35530001Y-112843800D02*
X35946200Y-112843800D01*
X36580000Y-111030000D02*
X37967500Y-111030000D01*
X36590000Y-112200000D02*
X36590000Y-111040000D01*
X35302500Y-111030000D02*
X36580000Y-111030000D01*
X33163800Y-106223800D02*
X33100000Y-106160000D01*
X33529999Y-106223800D02*
X33163800Y-106223800D01*
X32765010Y-105164990D02*
X32470000Y-105460000D01*
X33973589Y-105164990D02*
X32765010Y-105164990D01*
X34530000Y-105721401D02*
X33973589Y-105164990D01*
X34530000Y-106223800D02*
X34530000Y-105721401D01*
D35*
X44120000Y-131850000D02*
X43700000Y-132270000D01*
X44660000Y-131850000D02*
X44120000Y-131850000D01*
D38*
X38980000Y-97250000D02*
X38930000Y-97200000D01*
X40240000Y-97250000D02*
X38980000Y-97250000D01*
D36*
X55950000Y-108890000D02*
X56120000Y-109060000D01*
X55950000Y-108395000D02*
X55950000Y-108890000D01*
X56335000Y-116395000D02*
X56600000Y-116660000D01*
X55950000Y-116395000D02*
X56335000Y-116395000D01*
X36210000Y-116320000D02*
X36290000Y-116240000D01*
X35410000Y-116320000D02*
X36210000Y-116320000D01*
X72032500Y-118462500D02*
X72830000Y-119260000D01*
X72032500Y-117860000D02*
X72032500Y-118462500D01*
D39*
X34030001Y-116049299D02*
X34030001Y-115836200D01*
X35530001Y-106139989D02*
X36370000Y-105299990D01*
X35530001Y-106223800D02*
X35530001Y-106139989D01*
D36*
X61542792Y-92340000D02*
X61110000Y-92340000D01*
X61936497Y-92733705D02*
X61542792Y-92340000D01*
D38*
X60952000Y-89038000D02*
X60952000Y-88382000D01*
X60570000Y-88000000D02*
X59930000Y-88000000D01*
X60952000Y-88382000D02*
X60570000Y-88000000D01*
X59930000Y-88000000D02*
X59300000Y-88000000D01*
X58920000Y-88380000D02*
X58920000Y-89038000D01*
X59300000Y-88000000D02*
X58920000Y-88380000D01*
D36*
X64340660Y-97260660D02*
X65150000Y-98070000D01*
X64340660Y-97259188D02*
X64340660Y-97260660D01*
X67358000Y-100106000D02*
X68356000Y-100106000D01*
X68356000Y-100106000D02*
X69390000Y-100106000D01*
X68356000Y-100121010D02*
X68370000Y-100135010D01*
X68356000Y-100106000D02*
X68356000Y-100121010D01*
D39*
X38700000Y-93130000D02*
X39360000Y-93790000D01*
X37887500Y-93130000D02*
X38700000Y-93130000D01*
X32990000Y-115880000D02*
X32990000Y-116047903D01*
X32990000Y-116047903D02*
X33280698Y-116338601D01*
X33740699Y-116338601D02*
X34030001Y-116049299D01*
X33280698Y-116338601D02*
X33740699Y-116338601D01*
X74877500Y-124862500D02*
X75460000Y-124280000D01*
X74877500Y-125320000D02*
X74877500Y-124862500D01*
X46642500Y-92177500D02*
X46660000Y-92160000D01*
X46642500Y-93260000D02*
X46642500Y-92177500D01*
X46572500Y-89697500D02*
X47370000Y-88900000D01*
X46572500Y-89830000D02*
X46572500Y-89697500D01*
X50397500Y-92122500D02*
X50860000Y-92585000D01*
X49870000Y-92122500D02*
X50397500Y-92122500D01*
X51332500Y-92112500D02*
X50860000Y-92585000D01*
X51890000Y-92112500D02*
X51332500Y-92112500D01*
X63970000Y-102500000D02*
X64360000Y-102110000D01*
X63396900Y-102500000D02*
X63970000Y-102500000D01*
X61310000Y-119400000D02*
X61290000Y-119420000D01*
D36*
X62203100Y-119400000D02*
X61310000Y-119400000D01*
X62990000Y-123450000D02*
X62990000Y-122850000D01*
X62990000Y-122850000D02*
X63110000Y-122730000D01*
X63110000Y-122730000D02*
X63900000Y-122730000D01*
D35*
X74667500Y-102717500D02*
X74620000Y-102670000D01*
X74667500Y-104650000D02*
X74667500Y-102717500D01*
X72310000Y-104650000D02*
X72240000Y-104580000D01*
X74667500Y-104650000D02*
X72310000Y-104650000D01*
D36*
X37887500Y-128870000D02*
X38310020Y-128870000D01*
X38310020Y-128870000D02*
X39250000Y-127930020D01*
D35*
X40765000Y-132095000D02*
X41750000Y-133080000D01*
X40430000Y-132095000D02*
X40765000Y-132095000D01*
X50720000Y-132125000D02*
X50720000Y-133460042D01*
X50720000Y-133460042D02*
X50839979Y-133580021D01*
X56465000Y-129245000D02*
X56420000Y-129290000D01*
X59020000Y-129245000D02*
X56465000Y-129245000D01*
X61410000Y-129245000D02*
X61420000Y-129235000D01*
X59020000Y-129245000D02*
X61410000Y-129245000D01*
X56420000Y-129290000D02*
X56420000Y-127840000D01*
X56420000Y-127840000D02*
X56470000Y-127790000D01*
X48610000Y-129537500D02*
X47727500Y-129537500D01*
X47420000Y-129230000D02*
X46560000Y-129230000D01*
X47727500Y-129537500D02*
X47420000Y-129230000D01*
D36*
X62175000Y-126265000D02*
X61370000Y-126265000D01*
X62590000Y-125850000D02*
X62175000Y-126265000D01*
X62590000Y-125250000D02*
X62590000Y-125850000D01*
D35*
X48972500Y-129175000D02*
X48610000Y-129537500D01*
X50720000Y-129175000D02*
X48972500Y-129175000D01*
D36*
X53490000Y-129220000D02*
X53420000Y-129290000D01*
X53490000Y-127940000D02*
X53490000Y-129220000D01*
D35*
X52960000Y-129750000D02*
X53420000Y-129290000D01*
X51295000Y-129750000D02*
X52960000Y-129750000D01*
X50720000Y-129175000D02*
X51295000Y-129750000D01*
D36*
X32490000Y-109740000D02*
X32490000Y-109660000D01*
X32490000Y-106103998D02*
X33103998Y-105490000D01*
X32490000Y-109660000D02*
X32490000Y-106103998D01*
X33103998Y-105490000D02*
X33830000Y-105490000D01*
X34030001Y-105690001D02*
X34030001Y-106223800D01*
X33830000Y-105490000D02*
X34030001Y-105690001D01*
X55550000Y-109910000D02*
X55820000Y-110180000D01*
X55550000Y-108395000D02*
X55550000Y-109910000D01*
X55550000Y-116950000D02*
X56810000Y-118210000D01*
X55550000Y-116395000D02*
X55550000Y-116950000D01*
X56810000Y-118210000D02*
X56810000Y-119020000D01*
X56810000Y-119020000D02*
X55750000Y-120080000D01*
X55550000Y-116845982D02*
X55800503Y-117096485D01*
X55550000Y-116395000D02*
X55550000Y-116845982D01*
X55010000Y-120820000D02*
X55010000Y-124450000D01*
X55750000Y-120080000D02*
X55010000Y-120820000D01*
X57290000Y-119020000D02*
X56810000Y-119020000D01*
X57590000Y-119320000D02*
X57290000Y-119020000D01*
D38*
X57900000Y-101020000D02*
X57900000Y-99790000D01*
X59910000Y-103030000D02*
X57900000Y-101020000D01*
D37*
X32701164Y-116913620D02*
X35126380Y-116913620D01*
X32231390Y-116443846D02*
X32701164Y-116913620D01*
X32231390Y-110028610D02*
X32231390Y-116443846D01*
X35126380Y-116913620D02*
X35220000Y-116820000D01*
X32410000Y-109850000D02*
X32231390Y-110028610D01*
D36*
X32530000Y-109970000D02*
X32410000Y-109850000D01*
X34000000Y-109970000D02*
X32530000Y-109970000D01*
X34380000Y-110350000D02*
X34000000Y-109970000D01*
X34380000Y-111910000D02*
X34380000Y-110350000D01*
X34030001Y-112259999D02*
X34380000Y-111910000D01*
X34030001Y-112843800D02*
X34030001Y-112259999D01*
D38*
X58920000Y-91320000D02*
X59790000Y-92190000D01*
X58920000Y-90938000D02*
X58920000Y-91320000D01*
X59790000Y-92190000D02*
X60480000Y-92190000D01*
X60952000Y-91718000D02*
X60952000Y-90938000D01*
X60480000Y-92190000D02*
X60952000Y-91718000D01*
D36*
X61627898Y-91718000D02*
X60952000Y-91718000D01*
X62290050Y-92380152D02*
X61627898Y-91718000D01*
X65047767Y-96552082D02*
X65792842Y-97297157D01*
X65792842Y-97297157D02*
X65792845Y-97297157D01*
D39*
X76170000Y-93950000D02*
X76170000Y-100250000D01*
X70562500Y-88737500D02*
X70200000Y-89100000D01*
X72800000Y-88737500D02*
X70562500Y-88737500D01*
X72800000Y-88737500D02*
X73627500Y-88737500D01*
X76170000Y-91280000D02*
X76170000Y-93950000D01*
X73627500Y-88737500D02*
X76170000Y-91280000D01*
X56991667Y-97569167D02*
X55350000Y-95927500D01*
X56991667Y-98674534D02*
X56991667Y-97569167D01*
X61280000Y-102900000D02*
X60820000Y-102440000D01*
X62203100Y-102900000D02*
X61280000Y-102900000D01*
D36*
X63396900Y-119000000D02*
X64000000Y-119000000D01*
X64340844Y-118839156D02*
X64340844Y-118412220D01*
X64180000Y-119000000D02*
X64340844Y-118839156D01*
X64000000Y-119000000D02*
X64180000Y-119000000D01*
D38*
X52130000Y-128120000D02*
X52130000Y-128970000D01*
X53148206Y-127101794D02*
X52130000Y-128120000D01*
X54421794Y-127101794D02*
X53148206Y-127101794D01*
X54421794Y-127101794D02*
X54421794Y-127771794D01*
X54920000Y-128270000D02*
X54920000Y-129377500D01*
X54421794Y-127771794D02*
X54920000Y-128270000D01*
D35*
X57549998Y-132195000D02*
X57114998Y-131760000D01*
X59020000Y-132195000D02*
X57549998Y-132195000D01*
X57114998Y-131760000D02*
X56000000Y-131760000D01*
X54920000Y-130680000D02*
X54920000Y-129377500D01*
X56000000Y-131760000D02*
X54920000Y-130680000D01*
X61410000Y-132195000D02*
X61420000Y-132185000D01*
X59020000Y-132195000D02*
X61410000Y-132195000D01*
D36*
X64694213Y-96905635D02*
X65693407Y-97904829D01*
X67358000Y-98206000D02*
X69390000Y-98206000D01*
X65994578Y-98206000D02*
X65693407Y-97904829D01*
X67358000Y-98206000D02*
X65994578Y-98206000D01*
X33730000Y-129772500D02*
X34287500Y-129772500D01*
X35190000Y-128870000D02*
X36012500Y-128870000D01*
X34287500Y-129772500D02*
X35190000Y-128870000D01*
D38*
X39110000Y-98750000D02*
X39060000Y-98800000D01*
X40370000Y-98750000D02*
X39110000Y-98750000D01*
D40*
X40000000Y-106780000D02*
X44660000Y-106780000D01*
X44660000Y-106780000D02*
X44740000Y-106700000D01*
X44740000Y-106700000D02*
X44740000Y-105930000D01*
D38*
X38980000Y-101250000D02*
X38930000Y-101200000D01*
X40240000Y-101250000D02*
X38980000Y-101250000D01*
X38980000Y-120750000D02*
X38930000Y-120800000D01*
X40240000Y-120750000D02*
X38980000Y-120750000D01*
X38980000Y-123250000D02*
X38930000Y-123200000D01*
X40240000Y-123250000D02*
X38980000Y-123250000D01*
D41*
X44690000Y-119320000D02*
X44670000Y-119320000D01*
X40810000Y-115000000D02*
X40810000Y-114500000D01*
X40810000Y-115000000D02*
X40810000Y-116000000D01*
D40*
X44690000Y-115990000D02*
X44690000Y-115230000D01*
X44690000Y-119320000D02*
X44690000Y-115990000D01*
D41*
X39772500Y-115260000D02*
X40540000Y-115260000D01*
D38*
X71020000Y-109750000D02*
X71070000Y-109800000D01*
X69760000Y-109750000D02*
X71020000Y-109750000D01*
X71020000Y-112250000D02*
X71070000Y-112200000D01*
X69760000Y-112250000D02*
X71020000Y-112250000D01*
D40*
X71990000Y-120580000D02*
X71920000Y-120510000D01*
X71990000Y-122607500D02*
X71990000Y-120580000D01*
X71920000Y-120510000D02*
X72680000Y-120510000D01*
X71290000Y-120510000D02*
X71920000Y-120510000D01*
D42*
X38580000Y-103830000D02*
X38080000Y-104330000D01*
X38580000Y-103680000D02*
X38580000Y-103830000D01*
X38580000Y-103680000D02*
X38580000Y-104330000D01*
X38080000Y-95820000D02*
X38580000Y-96320000D01*
X38080000Y-95670000D02*
X38080000Y-95820000D01*
X38580000Y-95670000D02*
X38580000Y-96320000D01*
X38069991Y-95680009D02*
X38080000Y-95670000D01*
X32380000Y-95670000D02*
X32390009Y-95680009D01*
X71420000Y-107320000D02*
X71420000Y-106670000D01*
X71920000Y-106820000D02*
X71420000Y-107320000D01*
X71920000Y-106670000D02*
X71920000Y-106820000D01*
X71420000Y-114680000D02*
X71420000Y-114830000D01*
X38080000Y-126180000D02*
X38580000Y-125680000D01*
X38080000Y-126330000D02*
X38080000Y-126180000D01*
X38080000Y-117820000D02*
X38580000Y-118320000D01*
X38080000Y-117670000D02*
X38080000Y-117820000D01*
X38580000Y-117670000D02*
X38580000Y-118320000D01*
X38580000Y-125680000D02*
X38580000Y-126330000D01*
D41*
X32380000Y-126330000D02*
X38080000Y-126330000D01*
X32380000Y-126330000D02*
X31570000Y-126330000D01*
X32380000Y-104330000D02*
X31520010Y-104330000D01*
X32380000Y-104330000D02*
X31780000Y-104330000D01*
X32380000Y-117670000D02*
X37612549Y-117670000D01*
X38580000Y-117845998D02*
X38580000Y-117670000D01*
X38529999Y-117895999D02*
X38580000Y-117845998D01*
X38529999Y-118119999D02*
X38529999Y-117895999D01*
X38080000Y-117670000D02*
X38529999Y-118119999D01*
X38580000Y-117670000D02*
X37612549Y-117670000D01*
X38529999Y-117895999D02*
X38529999Y-118320000D01*
X38529990Y-126234928D02*
X38529990Y-125680000D01*
X38580000Y-126284938D02*
X38529990Y-126234928D01*
X38580000Y-126330000D02*
X38580000Y-126284938D01*
X32380000Y-95670000D02*
X31475010Y-95670000D01*
X31475010Y-95670000D02*
X31475010Y-88008105D01*
X31480324Y-87885729D02*
X31486731Y-87828871D01*
X31476475Y-87942808D02*
X31480324Y-87885729D01*
X31475010Y-88008105D02*
X31476475Y-87942808D01*
X31507158Y-87716313D02*
X31521133Y-87660852D01*
X31495682Y-87772358D02*
X31507158Y-87716313D01*
X31486731Y-87828871D02*
X31495682Y-87772358D01*
X31556487Y-87552045D02*
X31577771Y-87498984D01*
X31537588Y-87606055D02*
X31556487Y-87552045D01*
X31521133Y-87660852D02*
X31537588Y-87606055D01*
X31601437Y-87446882D02*
X31627413Y-87395900D01*
X31577771Y-87498984D02*
X31601437Y-87446882D01*
X31655643Y-87346150D02*
X31686076Y-87297717D01*
X31627413Y-87395900D02*
X31655643Y-87346150D01*
X31750000Y-87209523D02*
X31753324Y-87205158D01*
X31789966Y-87161267D02*
X31828575Y-87119027D01*
X31753324Y-87205158D02*
X31789966Y-87161267D01*
X31828575Y-87119027D02*
X31869020Y-87078582D01*
X31955170Y-87003315D02*
X32000691Y-86968655D01*
X31911264Y-87039970D02*
X31955170Y-87003315D01*
X31869020Y-87078582D02*
X31911264Y-87039970D01*
X32096145Y-86905645D02*
X32145895Y-86877415D01*
X32047734Y-86936064D02*
X32096145Y-86905645D01*
X32000691Y-86968655D02*
X32047734Y-86936064D01*
X32248959Y-86827781D02*
X32302054Y-86806483D01*
X32196903Y-86851426D02*
X32248959Y-86827781D01*
X32145895Y-86877415D02*
X32196903Y-86851426D01*
X32356062Y-86787584D02*
X32410845Y-86771134D01*
X32302054Y-86806483D02*
X32356062Y-86787584D01*
X32466324Y-86757154D02*
X32522360Y-86745680D01*
X32410845Y-86771134D02*
X32466324Y-86757154D01*
X32522360Y-86745680D02*
X32578903Y-86736725D01*
X32578903Y-86736725D02*
X32635750Y-86730321D01*
X32635750Y-86730321D02*
X32692842Y-86726472D01*
X77364270Y-86730324D02*
X77421128Y-86736731D01*
X77307191Y-86726475D02*
X77364270Y-86730324D01*
X77241894Y-86725010D02*
X77307191Y-86726475D01*
X77477641Y-86745682D02*
X77533686Y-86757158D01*
X77421128Y-86736731D02*
X77477641Y-86745682D01*
X77589147Y-86771133D02*
X77643944Y-86787588D01*
X77533686Y-86757158D02*
X77589147Y-86771133D01*
X77697954Y-86806487D02*
X77751015Y-86827771D01*
X77643944Y-86787588D02*
X77697954Y-86806487D01*
X77803117Y-86851437D02*
X77854099Y-86877413D01*
X77751015Y-86827771D02*
X77803117Y-86851437D01*
X77903849Y-86905643D02*
X77952282Y-86936076D01*
X77854099Y-86877413D02*
X77903849Y-86905643D01*
X78044829Y-87003315D02*
X78088743Y-87039976D01*
X78001075Y-86970000D02*
X78044829Y-87003315D01*
X78088743Y-87039976D02*
X78210014Y-87161247D01*
X78246691Y-87205179D02*
X78281342Y-87250689D01*
X78210014Y-87161247D02*
X78246691Y-87205179D01*
X78344358Y-87346153D02*
X78372588Y-87395903D01*
X78313930Y-87297727D02*
X78344358Y-87346153D01*
X78281342Y-87250689D02*
X78313930Y-87297727D01*
X78422224Y-87498973D02*
X78443514Y-87552048D01*
X78398568Y-87446894D02*
X78422224Y-87498973D01*
X78372588Y-87395903D02*
X78398568Y-87446894D01*
X78462412Y-87606052D02*
X78478865Y-87660845D01*
X78443514Y-87552048D02*
X78462412Y-87606052D01*
X78492845Y-87716324D02*
X78504319Y-87772360D01*
X78478865Y-87660845D02*
X78492845Y-87716324D01*
X78504319Y-87772360D02*
X78513274Y-87828903D01*
X78513274Y-87828903D02*
X78519678Y-87885750D01*
X78519678Y-87885750D02*
X78523526Y-87942831D01*
X78524990Y-116714990D02*
X78523526Y-116713526D01*
X78447052Y-106670000D02*
X78523526Y-106593526D01*
X77620000Y-106670000D02*
X78447052Y-106670000D01*
X71920000Y-115330000D02*
X71420000Y-115330000D01*
X78460000Y-115330000D02*
X78523526Y-115393526D01*
X77620000Y-115330000D02*
X78460000Y-115330000D01*
X78523526Y-115393526D02*
X78523526Y-116713526D01*
X78523526Y-106593526D02*
X78523526Y-115393526D01*
X71920000Y-115330000D02*
X77620000Y-115330000D01*
X78523526Y-128493526D02*
X78524990Y-128494990D01*
X78523526Y-116713526D02*
X78523526Y-128493526D01*
X78523524Y-134057190D02*
X78519675Y-134114271D01*
X78524990Y-133991881D02*
X78523524Y-134057190D01*
X78524990Y-128494990D02*
X78524990Y-133991881D01*
X78504320Y-134227629D02*
X78492844Y-134283676D01*
X78513269Y-134171126D02*
X78504320Y-134227629D01*
X78519675Y-134114271D02*
X78513269Y-134171126D01*
X78478869Y-134339136D02*
X78462409Y-134393949D01*
X78492844Y-134283676D02*
X78478869Y-134339136D01*
X78443510Y-134447958D02*
X78422225Y-134501021D01*
X78462409Y-134393949D02*
X78443510Y-134447958D01*
X78398560Y-134553121D02*
X78372586Y-134604098D01*
X78422225Y-134501021D02*
X78398560Y-134553121D01*
X78281346Y-134749305D02*
X78246678Y-134794837D01*
X78300000Y-134722380D02*
X78281346Y-134749305D01*
X78210029Y-134838735D02*
X78171411Y-134880985D01*
X78246678Y-134794837D02*
X78210029Y-134838735D01*
X78130979Y-134921417D02*
X78088736Y-134960029D01*
X78171411Y-134880985D02*
X78130979Y-134921417D01*
X77999323Y-135031333D02*
X77952272Y-135063930D01*
X78044824Y-134996689D02*
X77999323Y-135031333D01*
X78088736Y-134960029D02*
X78044824Y-134996689D01*
X77854096Y-135122588D02*
X77803124Y-135148559D01*
X77903846Y-135094358D02*
X77854096Y-135122588D01*
X77952272Y-135063930D02*
X77903846Y-135094358D01*
X77697945Y-135193516D02*
X77643945Y-135212412D01*
X77751020Y-135172226D02*
X77697945Y-135193516D01*
X77803124Y-135148559D02*
X77751020Y-135172226D01*
X77533691Y-135242841D02*
X77477625Y-135254321D01*
X77589118Y-135228875D02*
X77533691Y-135242841D01*
X77643945Y-135212412D02*
X77589118Y-135228875D01*
X77364283Y-135269675D02*
X77307193Y-135273525D01*
X77421103Y-135263273D02*
X77364283Y-135269675D01*
X77477625Y-135254321D02*
X77421103Y-135263273D01*
X35896475Y-135273525D02*
X35895010Y-135274990D01*
X77307193Y-135273525D02*
X35896475Y-135273525D01*
X32692809Y-135273524D02*
X32635728Y-135269675D01*
X32758118Y-135274990D02*
X32692809Y-135273524D01*
X35895010Y-135274990D02*
X32758118Y-135274990D01*
X32522370Y-135254320D02*
X32466323Y-135242844D01*
X32578873Y-135263269D02*
X32522370Y-135254320D01*
X32635728Y-135269675D02*
X32578873Y-135263269D01*
X32356050Y-135212409D02*
X32302041Y-135193510D01*
X32410863Y-135228869D02*
X32356050Y-135212409D01*
X32466323Y-135242844D02*
X32410863Y-135228869D01*
X32196878Y-135148560D02*
X32145901Y-135122586D01*
X32248978Y-135172225D02*
X32196878Y-135148560D01*
X32302041Y-135193510D02*
X32248978Y-135172225D01*
X32047722Y-135063927D02*
X32000688Y-135031341D01*
X32057387Y-135070000D02*
X32047722Y-135063927D01*
X32000688Y-135031341D02*
X31955158Y-134996674D01*
X31918484Y-134960000D02*
X31911231Y-134960000D01*
X31955158Y-134996674D02*
X31918484Y-134960000D01*
X31911231Y-134960000D02*
X31869027Y-134921424D01*
X31869027Y-134921424D02*
X31828583Y-134880980D01*
X31828583Y-134880980D02*
X31789970Y-134838736D01*
X31789970Y-134838736D02*
X31753310Y-134794824D01*
X31753310Y-134794824D02*
X31718653Y-134749306D01*
X31718653Y-134749306D02*
X31686064Y-134702265D01*
X31686064Y-134702265D02*
X31655639Y-134653844D01*
X31655639Y-134653844D02*
X31627402Y-134604080D01*
X31627402Y-134604080D02*
X31601435Y-134553113D01*
X31601435Y-134553113D02*
X31577770Y-134501012D01*
X31556482Y-134447941D02*
X31537585Y-134393938D01*
X31577770Y-134501012D02*
X31556482Y-134447941D01*
X31537585Y-134393938D02*
X31521123Y-134339117D01*
X31507154Y-134283674D02*
X31495679Y-134227635D01*
X31521131Y-134339142D02*
X31507154Y-134283674D01*
X31537585Y-134393938D02*
X31521131Y-134339142D01*
X31486730Y-134171132D02*
X31480323Y-134114269D01*
X31495679Y-134227635D02*
X31486730Y-134171132D01*
X31480323Y-118130323D02*
X31475010Y-118125010D01*
X31480323Y-134114269D02*
X31480323Y-118130323D01*
X31475010Y-96745010D02*
X31475010Y-95670000D01*
X31480323Y-96750323D02*
X31475010Y-96745010D01*
X33119679Y-86730321D02*
X33124990Y-86725010D01*
X32692819Y-86726474D02*
X32635751Y-86730321D01*
X32758105Y-86725010D02*
X32692819Y-86726474D01*
X34604990Y-86725010D02*
X32758105Y-86725010D01*
X33124990Y-86725010D02*
X34604990Y-86725010D01*
X34604990Y-86725010D02*
X77241894Y-86725010D01*
X31480646Y-117670000D02*
X31480323Y-117670323D01*
X32380000Y-117670000D02*
X31480646Y-117670000D01*
X31480323Y-117670323D02*
X31480323Y-96750323D01*
X31480323Y-118130323D02*
X31480323Y-117670323D01*
X32380000Y-104330000D02*
X38080000Y-104330000D01*
X32380000Y-95670000D02*
X38080000Y-95670000D01*
X71470010Y-106765072D02*
X71470010Y-107320000D01*
X71420000Y-106715062D02*
X71470010Y-106765072D01*
X71420000Y-106670000D02*
X71420000Y-106715062D01*
X38080000Y-95670000D02*
X38580000Y-95670000D01*
X38529999Y-96119999D02*
X38529999Y-96320000D01*
X38080000Y-95670000D02*
X38529999Y-96119999D01*
X38080000Y-104330000D02*
X38580000Y-104330000D01*
X38529990Y-104279990D02*
X38529990Y-103680000D01*
X38580000Y-104330000D02*
X38529990Y-104279990D01*
X38580000Y-126330000D02*
X38080000Y-126330000D01*
X71920000Y-115330000D02*
X71470001Y-114880001D01*
X71470001Y-114880001D02*
X71470001Y-115104001D01*
X71470001Y-115104001D02*
X71470001Y-114680000D01*
X71420000Y-115154002D02*
X71470001Y-115104001D01*
X71420000Y-115330000D02*
X71420000Y-115154002D01*
X71920000Y-106670000D02*
X71420000Y-106670000D01*
D35*
X76520000Y-104622500D02*
X76492500Y-104650000D01*
X76520000Y-102670000D02*
X76520000Y-104622500D01*
X75792500Y-106607500D02*
X75730000Y-106670000D01*
D41*
X75730000Y-106670000D02*
X71920000Y-106670000D01*
X77620000Y-106670000D02*
X75730000Y-106670000D01*
D35*
X78500000Y-104650000D02*
X78523526Y-104673526D01*
X76492500Y-104650000D02*
X78500000Y-104650000D01*
D41*
X78523526Y-104673526D02*
X78523526Y-106593526D01*
D35*
X78420000Y-102670000D02*
X78523526Y-102773526D01*
D41*
X78523526Y-102773526D02*
X78523526Y-104673526D01*
D35*
X76520000Y-102670000D02*
X78420000Y-102670000D01*
D41*
X78523526Y-87942831D02*
X78523526Y-102773526D01*
D37*
X40240000Y-99250000D02*
X41980000Y-99250000D01*
X41980000Y-99250000D02*
X42380000Y-98850000D01*
X48220000Y-98850000D02*
X48240000Y-98830000D01*
X42380000Y-98850000D02*
X48220000Y-98850000D01*
X53535000Y-93535000D02*
X54690000Y-93535000D01*
X51220000Y-95850000D02*
X53535000Y-93535000D01*
X62990000Y-125250000D02*
X62990000Y-126160000D01*
X74750000Y-126940000D02*
X74410000Y-127280000D01*
X74410000Y-127280000D02*
X63590000Y-127280000D01*
D36*
X50100000Y-99240000D02*
X49700000Y-98840000D01*
X50100000Y-100700000D02*
X50100000Y-99240000D01*
X40240000Y-100750000D02*
X42030000Y-100750000D01*
X42030000Y-100750000D02*
X42500000Y-101220000D01*
X42500000Y-101220000D02*
X42500000Y-101240000D01*
X42500000Y-101240000D02*
X42810000Y-101550000D01*
X42810000Y-101550000D02*
X49250000Y-101550000D01*
X66500000Y-117910000D02*
X67050000Y-117910000D01*
X63396900Y-119400000D02*
X65010000Y-119400000D01*
X66500000Y-117910000D02*
X65010000Y-119400000D01*
X50100000Y-100700000D02*
X49250000Y-101550000D01*
D37*
X75410000Y-127740000D02*
X74830000Y-128320000D01*
X75410000Y-127010000D02*
X75410000Y-127740000D01*
X64960000Y-124150000D02*
X65040000Y-124070000D01*
X64090000Y-124150000D02*
X64960000Y-124150000D01*
X65570000Y-128320000D02*
X65760000Y-128320000D01*
X65040000Y-127790000D02*
X65570000Y-128320000D01*
X74830000Y-128320000D02*
X65760000Y-128320000D01*
D36*
X38360000Y-99200000D02*
X38160000Y-99200000D01*
X66509632Y-118360000D02*
X67509632Y-118360000D01*
X63938122Y-120931510D02*
X66509632Y-118360000D01*
X67509632Y-118360000D02*
X67550000Y-118360000D01*
X63065010Y-120931510D02*
X63938122Y-120931510D01*
X62800000Y-120666500D02*
X63065010Y-120931510D01*
X62800000Y-120060100D02*
X62800000Y-120666500D01*
D37*
X43710000Y-121250000D02*
X44190000Y-120770000D01*
X40240000Y-121250000D02*
X43710000Y-121250000D01*
X44190000Y-120770000D02*
X45260000Y-120770000D01*
X51940000Y-123680000D02*
X48110000Y-119850000D01*
X53540000Y-125280000D02*
X51940000Y-123680000D01*
X55930000Y-125280000D02*
X53540000Y-125280000D01*
X59400000Y-121810000D02*
X55930000Y-125280000D01*
X61600000Y-121810000D02*
X59400000Y-121810000D01*
X62590000Y-122800000D02*
X61600000Y-121810000D01*
X62590000Y-123450000D02*
X62590000Y-122800000D01*
D36*
X42638859Y-122750000D02*
X42773200Y-122615659D01*
X40240000Y-122750000D02*
X42638859Y-122750000D01*
X49505997Y-123975466D02*
X49532303Y-123988134D01*
X49477532Y-123968969D02*
X49505997Y-123975466D01*
X49764127Y-124565866D02*
X49776795Y-124592172D01*
X49448334Y-123968969D02*
X49477532Y-123968969D01*
X49776795Y-124592172D02*
X49795000Y-124615000D01*
X49555130Y-124006338D02*
X49795000Y-124246208D01*
X49419869Y-123975466D02*
X49448334Y-123968969D01*
X49347907Y-124024542D02*
X49393563Y-123988134D01*
X49813204Y-124407776D02*
X49776795Y-124453432D01*
X49832369Y-124353005D02*
X49825872Y-124381470D01*
X49293136Y-124043707D02*
X49321601Y-124037210D01*
X49263938Y-124043707D02*
X49293136Y-124043707D01*
X49186339Y-124006338D02*
X49209167Y-124024542D01*
X49532303Y-123988134D02*
X49555130Y-124006338D01*
X50640000Y-125460000D02*
X50640000Y-125480000D01*
X49825872Y-124295342D02*
X49832369Y-124323807D01*
X49825872Y-124381470D02*
X49813204Y-124407776D01*
X49393563Y-123988134D02*
X49419869Y-123975466D01*
X49764127Y-124479738D02*
X49757630Y-124508203D01*
X49209167Y-124024542D02*
X49235473Y-124037210D01*
X48340000Y-123160000D02*
X49186339Y-124006338D01*
X49795000Y-124246208D02*
X49813204Y-124269036D01*
X49757630Y-124537401D02*
X49764127Y-124565866D01*
X49321601Y-124037210D02*
X49347907Y-124024542D01*
X49813204Y-124269036D02*
X49825872Y-124295342D01*
X49832369Y-124323807D02*
X49832369Y-124353005D01*
X49235473Y-124037210D02*
X49263938Y-124043707D01*
X49776795Y-124453432D02*
X49764127Y-124479738D01*
X49795000Y-124615000D02*
X50640000Y-125460000D01*
X49757630Y-124508203D02*
X49757630Y-124537401D01*
X63610100Y-120060100D02*
X63860000Y-120310000D01*
X63199999Y-120060100D02*
X63610100Y-120060100D01*
X62658490Y-121381510D02*
X63260000Y-121381510D01*
X61706980Y-120430000D02*
X62658490Y-121381510D01*
X58400000Y-120430000D02*
X61706980Y-120430000D01*
X57080000Y-121750000D02*
X58400000Y-120430000D01*
D37*
X60545000Y-124550000D02*
X60470000Y-124625000D01*
X61490000Y-124550000D02*
X60545000Y-124550000D01*
X55898199Y-126091801D02*
X57360000Y-124630000D01*
X51331801Y-126091801D02*
X55898199Y-126091801D01*
D36*
X58059900Y-120000100D02*
X56190000Y-121870000D01*
X62400001Y-120000100D02*
X58059900Y-120000100D01*
X68151786Y-115166379D02*
X68328564Y-115166379D01*
X56877501Y-114600000D02*
X56915001Y-114562500D01*
X61062690Y-113812500D02*
X62752690Y-115502500D01*
X57207310Y-114562500D02*
X57957310Y-113812500D01*
X62752690Y-115502500D02*
X67815665Y-115502500D01*
X56345000Y-114600000D02*
X56877501Y-114600000D01*
X67815665Y-115502500D02*
X68151786Y-115166379D01*
X56915001Y-114562500D02*
X57207310Y-114562500D01*
X57957310Y-113812500D02*
X61062690Y-113812500D01*
X67681045Y-115177500D02*
X67921976Y-114936569D01*
X57822690Y-113487500D02*
X61197310Y-113487500D01*
X56915001Y-114237500D02*
X57072690Y-114237500D01*
X62887310Y-115177500D02*
X67681045Y-115177500D01*
X56345000Y-114200000D02*
X56877501Y-114200000D01*
X61197310Y-113487500D02*
X62887310Y-115177500D01*
X57072690Y-114237500D02*
X57822690Y-113487500D01*
X67921976Y-114936569D02*
X67921976Y-114759791D01*
X56877501Y-114200000D02*
X56915001Y-114237500D01*
X62723998Y-116940000D02*
X67970000Y-116940000D01*
X62370000Y-117293998D02*
X62723998Y-116940000D01*
X62370000Y-117940000D02*
X62370000Y-117293998D01*
X62400001Y-117970001D02*
X62370000Y-117940000D01*
X62400001Y-118399900D02*
X62400001Y-117970001D01*
D37*
X65420000Y-126740000D02*
X67430000Y-124730000D01*
X60410000Y-126430000D02*
X60720000Y-126740000D01*
X60410000Y-125380000D02*
X60410000Y-126430000D01*
X67430000Y-120730000D02*
X70130000Y-118030000D01*
X60720000Y-126740000D02*
X65420000Y-126740000D01*
X60840000Y-124950000D02*
X60410000Y-125380000D01*
X61490000Y-124950000D02*
X60840000Y-124950000D01*
X67430000Y-124730000D02*
X67430000Y-123590000D01*
X67430000Y-123590000D02*
X67430000Y-120730000D01*
X67430000Y-123634994D02*
X67430016Y-123635010D01*
X67430000Y-123590000D02*
X67430000Y-123634994D01*
X64090000Y-123750000D02*
X64460000Y-123750000D01*
X64460000Y-123750000D02*
X65050000Y-123160000D01*
D36*
X56915001Y-115762500D02*
X59325000Y-115762500D01*
X59325000Y-115762500D02*
X59450000Y-115887500D01*
X56345000Y-115800000D02*
X56877501Y-115800000D01*
X56877501Y-115800000D02*
X56915001Y-115762500D01*
X59325000Y-115437500D02*
X59450000Y-115312500D01*
X56915001Y-115437500D02*
X59325000Y-115437500D01*
X56877501Y-115400000D02*
X56915001Y-115437500D01*
X56345000Y-115400000D02*
X56877501Y-115400000D01*
X70420000Y-110750000D02*
X69760000Y-110750000D01*
X70420000Y-110750000D02*
X71070000Y-111400000D01*
X69234999Y-110750000D02*
X69760000Y-110750000D01*
X66097500Y-110837500D02*
X69147499Y-110837500D01*
X65947500Y-110687500D02*
X66097500Y-110837500D01*
X65497500Y-110687500D02*
X65947500Y-110687500D01*
X65347500Y-110837500D02*
X65497500Y-110687500D01*
X64857310Y-110837500D02*
X65347500Y-110837500D01*
X69147499Y-110837500D02*
X69234999Y-110750000D01*
X63593294Y-109573484D02*
X64857310Y-110837500D01*
X63593294Y-109396706D02*
X63593294Y-109573484D01*
D39*
X63199999Y-103500100D02*
X63200000Y-104056501D01*
X63200000Y-104056501D02*
X63200000Y-104170000D01*
D36*
X63200000Y-104170000D02*
X63200000Y-104950000D01*
X63517500Y-105267500D02*
X63517500Y-105360000D01*
X63200000Y-104950000D02*
X63517500Y-105267500D01*
X70283602Y-111250000D02*
X70341801Y-111308199D01*
X69760000Y-111250000D02*
X70283602Y-111250000D01*
X69234999Y-111250000D02*
X69760000Y-111250000D01*
X64722690Y-111162500D02*
X69147499Y-111162500D01*
X63363484Y-109803294D02*
X64722690Y-111162500D01*
X63186706Y-109803294D02*
X63363484Y-109803294D01*
X69147499Y-111162500D02*
X69234999Y-111250000D01*
D39*
X62800000Y-103500100D02*
X62800000Y-104170000D01*
D36*
X62800000Y-105217500D02*
X62942500Y-105360000D01*
X62800000Y-104170000D02*
X62800000Y-105217500D01*
X56915001Y-107437500D02*
X57277310Y-107437500D01*
X57797310Y-107957500D02*
X61572690Y-107957500D01*
X61572690Y-107957500D02*
X62072690Y-107457500D01*
X56345000Y-107400000D02*
X56877501Y-107400000D01*
X56877501Y-107400000D02*
X56915001Y-107437500D01*
X62072690Y-107457500D02*
X67107310Y-107457500D01*
X57277310Y-107437500D02*
X57797310Y-107957500D01*
X67107310Y-107457500D02*
X68487310Y-108837500D01*
X69234999Y-108750000D02*
X69760000Y-108750000D01*
X69147499Y-108837500D02*
X69234999Y-108750000D01*
X68487310Y-108837500D02*
X69147499Y-108837500D01*
X69760000Y-110250000D02*
X67360000Y-110250000D01*
X62800000Y-117530000D02*
X62820000Y-117510000D01*
X62800000Y-118399900D02*
X62800000Y-117530000D01*
X56915001Y-107762500D02*
X57142690Y-107762500D01*
X62207310Y-107782500D02*
X66972690Y-107782500D01*
X56877501Y-107800000D02*
X56915001Y-107762500D01*
X57662690Y-108282500D02*
X61707310Y-108282500D01*
X61707310Y-108282500D02*
X62207310Y-107782500D01*
X66972690Y-107782500D02*
X68352690Y-109162500D01*
X56345000Y-107800000D02*
X56877501Y-107800000D01*
X57142690Y-107762500D02*
X57662690Y-108282500D01*
X69234999Y-109250000D02*
X69760000Y-109250000D01*
X68352690Y-109162500D02*
X69147499Y-109162500D01*
X69147499Y-109162500D02*
X69234999Y-109250000D01*
D37*
X68908859Y-111750000D02*
X68702617Y-111956242D01*
X69760000Y-111750000D02*
X68908859Y-111750000D01*
X63390000Y-125860000D02*
X63390000Y-125250000D01*
X63580000Y-126050000D02*
X63390000Y-125860000D01*
X65110000Y-126050000D02*
X63580000Y-126050000D01*
X66610000Y-124550000D02*
X65110000Y-126050000D01*
X66610000Y-120560000D02*
X66610000Y-124550000D01*
X69210000Y-117960000D02*
X66610000Y-120560000D01*
X68740000Y-116380000D02*
X69210000Y-116850000D01*
X67030000Y-116380000D02*
X68740000Y-116380000D01*
X69210000Y-116850000D02*
X69210000Y-117960000D01*
X66850000Y-116200000D02*
X67030000Y-116380000D01*
X62190000Y-124100000D02*
X62360000Y-124270000D01*
X62190000Y-123450000D02*
X62190000Y-124100000D01*
X62360000Y-124270000D02*
X63060000Y-124270000D01*
X63390000Y-124600000D02*
X63390000Y-125250000D01*
X63060000Y-124270000D02*
X63390000Y-124600000D01*
D36*
X58475000Y-106237500D02*
X58600000Y-106112500D01*
X56915001Y-106237500D02*
X58475000Y-106237500D01*
X56877501Y-106200000D02*
X56915001Y-106237500D01*
X56345000Y-106200000D02*
X56877501Y-106200000D01*
X63327310Y-112837500D02*
X61643294Y-111153484D01*
X69234999Y-112750000D02*
X69147499Y-112837500D01*
X69760000Y-112750000D02*
X69234999Y-112750000D01*
X61643294Y-111153484D02*
X61643294Y-110976706D01*
X69147499Y-112837500D02*
X63327310Y-112837500D01*
X58475000Y-106562500D02*
X58600000Y-106687500D01*
X56915001Y-106562500D02*
X58475000Y-106562500D01*
X56877501Y-106600000D02*
X56915001Y-106562500D01*
X56345000Y-106600000D02*
X56877501Y-106600000D01*
X61413484Y-111383294D02*
X61236706Y-111383294D01*
X63192690Y-113162500D02*
X61413484Y-111383294D01*
X69147499Y-113162500D02*
X63192690Y-113162500D01*
X69234999Y-113250000D02*
X69147499Y-113162500D01*
X69760000Y-113250000D02*
X69234999Y-113250000D01*
D39*
X70010000Y-99160000D02*
X74260000Y-94910000D01*
X64827258Y-99160000D02*
X70010000Y-99160000D01*
X63633553Y-97966295D02*
X64827258Y-99160000D01*
D37*
X35070001Y-108219999D02*
X35060000Y-108230000D01*
X36026200Y-108219999D02*
X35070001Y-108219999D01*
X35060000Y-108230000D02*
X35493800Y-108663800D01*
X35969999Y-108663800D02*
X36026200Y-108720001D01*
X35493800Y-108663800D02*
X35969999Y-108663800D01*
D38*
X36026200Y-108720001D02*
X36289999Y-108720001D01*
X36289999Y-108720001D02*
X36330000Y-108680000D01*
X36330000Y-108680000D02*
X36330000Y-108150000D01*
X34790000Y-108150000D02*
X34700000Y-108240000D01*
X36330000Y-108150000D02*
X34790000Y-108150000D01*
X34700000Y-108240000D02*
X35380000Y-108240000D01*
X35380000Y-108240000D02*
X35600000Y-108460000D01*
X35600000Y-108460000D02*
X35900000Y-108460000D01*
X35900000Y-108460000D02*
X35930000Y-108430000D01*
X36120000Y-108430000D02*
X35930000Y-108430000D01*
X36260000Y-108080000D02*
X36330000Y-108150000D01*
X34680000Y-108080000D02*
X36260000Y-108080000D01*
X36260000Y-108080000D02*
X36260000Y-108050000D01*
X36260000Y-108050000D02*
X36130000Y-107920000D01*
X35020000Y-107920000D02*
X34700000Y-108240000D01*
X36130000Y-107920000D02*
X35020000Y-107920000D01*
D36*
X34530000Y-109470000D02*
X34530000Y-109216200D01*
X35065357Y-110104990D02*
X34530000Y-109569633D01*
X34530000Y-109569633D02*
X34530000Y-109470000D01*
X39792500Y-110332500D02*
X39564990Y-110104990D01*
X39564990Y-110104990D02*
X35065357Y-110104990D01*
X39792500Y-111030000D02*
X39792500Y-110332500D01*
D43*
X33477500Y-111030000D02*
X33477500Y-110917500D01*
X32543900Y-111963600D02*
X32543900Y-116103900D01*
X32543900Y-116103900D02*
X33041111Y-116601111D01*
X33041111Y-116601111D02*
X34174089Y-116601111D01*
X33477500Y-111030000D02*
X32543900Y-111963600D01*
X34174089Y-116601111D02*
X34530000Y-116245200D01*
X34530000Y-116245200D02*
X34530000Y-115836200D01*
D36*
X43152500Y-89830000D02*
X44747500Y-89830000D01*
D39*
X61310674Y-92814989D02*
X61582943Y-93087258D01*
X58754989Y-92814989D02*
X61310674Y-92814989D01*
X54564989Y-88624989D02*
X58754989Y-92814989D01*
X45287500Y-91070000D02*
X47249998Y-91070000D01*
X48826087Y-88624989D02*
X54564989Y-88624989D01*
X47964990Y-89486086D02*
X48826087Y-88624989D01*
X47964989Y-90355009D02*
X47964990Y-89486086D01*
X47249998Y-91070000D02*
X47964989Y-90355009D01*
X44747500Y-89830000D02*
X44747500Y-90530000D01*
X44747500Y-90530000D02*
X45287500Y-91070000D01*
D36*
X43162500Y-93260000D02*
X43142500Y-93280000D01*
X44797500Y-93280000D02*
X44817500Y-93260000D01*
X43142500Y-93280000D02*
X44797500Y-93280000D01*
D39*
X61229390Y-93429390D02*
X61229390Y-93440812D01*
X58580000Y-93090000D02*
X60890000Y-93090000D01*
X48240000Y-89600000D02*
X48940000Y-88900000D01*
X47318922Y-91390000D02*
X48240000Y-90468922D01*
X44817500Y-92212500D02*
X45640000Y-91390000D01*
X48240000Y-90468922D02*
X48240000Y-89600000D01*
X60890000Y-93090000D02*
X61229390Y-93429390D01*
X44817500Y-93260000D02*
X44817500Y-92212500D01*
X45640000Y-91390000D02*
X47318922Y-91390000D01*
X48940000Y-88900000D02*
X54390000Y-88900000D01*
X54390000Y-88900000D02*
X58580000Y-93090000D01*
D36*
X76696500Y-125314000D02*
X76702500Y-125320000D01*
X76696500Y-123090000D02*
X76696500Y-125314000D01*
X76696500Y-123090000D02*
X76696500Y-122026500D01*
X75750000Y-121080000D02*
X74110000Y-121080000D01*
X76696500Y-122026500D02*
X75750000Y-121080000D01*
D39*
X65525685Y-93670000D02*
X66809312Y-93670000D01*
X65047767Y-94147918D02*
X65525685Y-93670000D01*
X66809312Y-93670000D02*
X69434656Y-96295344D01*
X67770000Y-92640000D02*
X70980000Y-95850000D01*
X64434365Y-92640000D02*
X67770000Y-92640000D01*
X63987107Y-93087258D02*
X64434365Y-92640000D01*
D43*
X60870002Y-124150000D02*
X60380000Y-123659998D01*
X61490000Y-124150000D02*
X60870002Y-124150000D01*
D39*
X64037258Y-92330000D02*
X63633553Y-92733705D01*
X68061042Y-92330000D02*
X64037258Y-92330000D01*
X71640521Y-95909479D02*
X68061042Y-92330000D01*
X65810011Y-124550000D02*
X66135000Y-124225011D01*
X64090000Y-124550000D02*
X65810011Y-124550000D01*
D36*
X55550000Y-113605000D02*
X55550000Y-111500000D01*
D39*
X60522283Y-96552082D02*
X60522283Y-96557717D01*
X56480000Y-99942762D02*
X56566667Y-99856095D01*
X56480000Y-103450000D02*
X56480000Y-99942762D01*
X55550000Y-104380000D02*
X56480000Y-103450000D01*
X55550000Y-105605000D02*
X55550000Y-104380000D01*
X60119355Y-96955010D02*
X60522283Y-96552082D01*
X59467752Y-96955010D02*
X60119355Y-96955010D01*
X56566667Y-99856095D02*
X59467752Y-96955010D01*
X56566667Y-99856095D02*
X56566667Y-98206667D01*
X56112500Y-97752500D02*
X55350000Y-97752500D01*
X56566667Y-98206667D02*
X56112500Y-97752500D01*
D36*
X56000001Y-111313603D02*
X55508199Y-110821801D01*
X56000001Y-113554999D02*
X56000001Y-111313603D01*
X55950000Y-113605000D02*
X56000001Y-113554999D01*
D39*
X56850000Y-100190000D02*
X57140000Y-99900000D01*
X56850000Y-103540000D02*
X56850000Y-100190000D01*
X55950000Y-104440000D02*
X56850000Y-103540000D01*
X55950000Y-105605000D02*
X55950000Y-104440000D01*
X60875837Y-96905635D02*
X60491472Y-97290000D01*
X59750000Y-97290000D02*
X57140000Y-99900000D01*
X60491472Y-97290000D02*
X59750000Y-97290000D01*
X65151074Y-101898926D02*
X65099501Y-101950499D01*
X65800076Y-101898926D02*
X65151074Y-101898926D01*
X69980000Y-101900000D02*
X65801150Y-101900000D01*
X70870000Y-101010000D02*
X69980000Y-101900000D01*
X65801150Y-101900000D02*
X65800076Y-101898926D01*
X70870000Y-99630000D02*
X70870000Y-101010000D01*
X72395521Y-98104479D02*
X70870000Y-99630000D01*
X72395521Y-97594479D02*
X72395521Y-98104479D01*
X65090000Y-101940998D02*
X65099501Y-101950499D01*
X65090000Y-100129848D02*
X65090000Y-101940998D01*
X63280000Y-98319848D02*
X65090000Y-100129848D01*
X65090000Y-101960000D02*
X65099501Y-101950499D01*
X65090000Y-102640000D02*
X65090000Y-101960000D01*
X64063699Y-102893699D02*
X63346100Y-102893699D01*
X64120000Y-102950000D02*
X64063699Y-102893699D01*
X64780000Y-102950000D02*
X65090000Y-102640000D01*
X64120000Y-102950000D02*
X64780000Y-102950000D01*
X61516301Y-119006301D02*
X62253900Y-119006301D01*
X61250000Y-118740000D02*
X61516301Y-119006301D01*
X59810000Y-98678578D02*
X61229390Y-97259188D01*
X59810000Y-102110000D02*
X59810000Y-98678578D01*
X61200100Y-103500100D02*
X59810000Y-102110000D01*
X62400001Y-103500100D02*
X61200100Y-103500100D01*
X35029999Y-105890001D02*
X35680000Y-105240000D01*
X35029999Y-106223800D02*
X35029999Y-105890001D01*
X56540000Y-91930000D02*
X56540000Y-91920000D01*
X58670000Y-94060000D02*
X56540000Y-91930000D01*
X59730000Y-94060000D02*
X58670000Y-94060000D01*
X60168730Y-94498730D02*
X59730000Y-94060000D01*
X60168730Y-94501472D02*
X60168730Y-94498730D01*
X56540000Y-91920000D02*
X54907500Y-90287500D01*
X54907500Y-90287500D02*
X51890000Y-90287500D01*
D36*
X35306400Y-112065000D02*
X35832168Y-112065000D01*
X35029999Y-112341401D02*
X35306400Y-112065000D01*
X35029999Y-112843800D02*
X35029999Y-112341401D01*
D39*
X58602296Y-94855025D02*
X55807752Y-92060481D01*
X59815177Y-94855025D02*
X58602296Y-94855025D01*
X55807752Y-92060481D02*
X54897271Y-91150000D01*
X50722500Y-91150000D02*
X49870000Y-90297500D01*
X54897271Y-91150000D02*
X50722500Y-91150000D01*
X64801472Y-92980000D02*
X64340660Y-93440812D01*
X67560000Y-92980000D02*
X64801472Y-92980000D01*
X70160000Y-95580000D02*
X67560000Y-92980000D01*
X70160000Y-95760000D02*
X70160000Y-95580000D01*
X63220097Y-118419998D02*
X63199999Y-118399900D01*
X63760002Y-118419998D02*
X63220097Y-118419998D01*
D36*
X55112500Y-105034999D02*
X55150000Y-105072499D01*
X55112500Y-101702690D02*
X55112500Y-105034999D01*
X41952690Y-97207500D02*
X50617310Y-97207500D01*
X41322690Y-97837500D02*
X41952690Y-97207500D01*
X55150000Y-105072499D02*
X55150000Y-105605000D01*
X40852501Y-97837500D02*
X41322690Y-97837500D01*
X40765001Y-97750000D02*
X40852501Y-97837500D01*
X40240000Y-97750000D02*
X40765001Y-97750000D01*
X50617310Y-97207500D02*
X55112500Y-101702690D01*
X40765001Y-98250000D02*
X40240000Y-98250000D01*
X40852501Y-98162500D02*
X40765001Y-98250000D01*
X41457310Y-98162500D02*
X40852501Y-98162500D01*
X42087310Y-97532500D02*
X41457310Y-98162500D01*
X47737500Y-97532500D02*
X42087310Y-97532500D01*
X47887500Y-97682500D02*
X47737500Y-97532500D01*
X48337500Y-97682500D02*
X47887500Y-97682500D01*
X49087500Y-97682500D02*
X48937500Y-97532500D01*
X49537500Y-97682500D02*
X49087500Y-97682500D01*
X49687500Y-97532500D02*
X49537500Y-97682500D01*
X50482690Y-97532500D02*
X49687500Y-97532500D01*
X52966234Y-100016045D02*
X52163105Y-99212915D01*
X54750000Y-105605000D02*
X54750000Y-105072499D01*
X48487500Y-97532500D02*
X48337500Y-97682500D01*
X52163105Y-99212915D02*
X50482690Y-97532500D01*
X54787500Y-105034999D02*
X54787500Y-101837310D01*
X53814762Y-101076706D02*
X53814763Y-100864574D01*
X54787500Y-101837310D02*
X54345095Y-101394905D01*
X54345095Y-101394905D02*
X54239029Y-101394906D01*
X54132961Y-101394905D02*
X53814762Y-101076706D01*
X48937500Y-97532500D02*
X48487500Y-97532500D01*
X54750000Y-105072499D02*
X54787500Y-105034999D01*
X54239029Y-101394906D02*
X54132961Y-101394905D01*
X53284432Y-100546376D02*
X52966233Y-100228177D01*
X53496566Y-100546376D02*
X53390500Y-100546377D01*
X53390500Y-100546377D02*
X53284432Y-100546376D01*
X53814763Y-100864574D02*
X53496566Y-100546376D01*
X52966233Y-100228177D02*
X52966234Y-100016045D01*
X53784999Y-107437500D02*
X52455000Y-107437500D01*
X53822499Y-107400000D02*
X53784999Y-107437500D01*
X54355000Y-107400000D02*
X53822499Y-107400000D01*
X52455000Y-107437500D02*
X52330000Y-107312500D01*
X48736516Y-104986706D02*
X48913294Y-104986706D01*
X40852501Y-101837500D02*
X41507310Y-101837500D01*
X40765001Y-101750000D02*
X40852501Y-101837500D01*
X40240000Y-101750000D02*
X40765001Y-101750000D01*
X41507310Y-101837500D02*
X42887310Y-103217500D01*
X46967310Y-103217500D02*
X48736516Y-104986706D01*
X42887310Y-103217500D02*
X46967310Y-103217500D01*
X52455000Y-107762500D02*
X52330000Y-107887500D01*
X53784999Y-107762500D02*
X52455000Y-107762500D01*
X53822499Y-107800000D02*
X53784999Y-107762500D01*
X54355000Y-107800000D02*
X53822499Y-107800000D01*
X48506706Y-105216516D02*
X48506706Y-105393294D01*
X40852501Y-102162500D02*
X41372690Y-102162500D01*
X40765001Y-102250000D02*
X40852501Y-102162500D01*
X40240000Y-102250000D02*
X40765001Y-102250000D01*
X41372690Y-102162500D02*
X42752690Y-103542500D01*
X46832690Y-103542500D02*
X48506706Y-105216516D01*
X42752690Y-103542500D02*
X46832690Y-103542500D01*
X51805000Y-115762500D02*
X51698935Y-115868565D01*
X53784999Y-115762500D02*
X51805000Y-115762500D01*
X51698935Y-115868565D02*
X51680000Y-115887500D01*
X53822499Y-115800000D02*
X53784999Y-115762500D01*
X54355000Y-115800000D02*
X53822499Y-115800000D01*
X54355000Y-115400000D02*
X53822499Y-115400000D01*
X53822499Y-115400000D02*
X53784999Y-115437500D01*
X53784999Y-115437500D02*
X51805000Y-115437500D01*
X51805000Y-115437500D02*
X51680000Y-115312500D01*
X53852690Y-112212500D02*
X53175000Y-112212500D01*
X54750000Y-113350000D02*
X54787500Y-113312500D01*
X54787500Y-113147310D02*
X53852690Y-112212500D01*
X54750000Y-113605000D02*
X54750000Y-113350000D01*
X53175000Y-112212500D02*
X53050000Y-112337500D01*
X54787500Y-113312500D02*
X54787500Y-113147310D01*
X53987310Y-111887500D02*
X53175000Y-111887500D01*
X55112500Y-113012690D02*
X53987310Y-111887500D01*
X55150000Y-113605000D02*
X55150000Y-113350000D01*
X55150000Y-113350000D02*
X55112500Y-113312500D01*
X55112500Y-113312500D02*
X55112500Y-113012690D01*
X53175000Y-111887500D02*
X53050000Y-111762500D01*
X52917310Y-105647500D02*
X53507310Y-106237500D01*
X42607500Y-113572690D02*
X50532690Y-105647500D01*
X41142628Y-119837500D02*
X42607500Y-118372628D01*
X53507310Y-106237500D02*
X53784999Y-106237500D01*
X53784999Y-106237500D02*
X53822499Y-106200000D01*
X53822499Y-106200000D02*
X54355000Y-106200000D01*
X42607500Y-118372628D02*
X42607500Y-113572690D01*
X50532690Y-105647500D02*
X52917310Y-105647500D01*
X40765001Y-119750000D02*
X40240000Y-119750000D01*
X40852501Y-119837500D02*
X40765001Y-119750000D01*
X41142628Y-119837500D02*
X40852501Y-119837500D01*
X42932500Y-118507248D02*
X41277248Y-120162500D01*
X50667310Y-105972500D02*
X42932500Y-113707312D01*
X52782690Y-105972500D02*
X50667310Y-105972500D01*
X53372690Y-106562500D02*
X52782690Y-105972500D01*
X42932500Y-113707312D02*
X42932500Y-118507248D01*
X53822499Y-106600000D02*
X53784999Y-106562500D01*
X53784999Y-106562500D02*
X53372690Y-106562500D01*
X54355000Y-106600000D02*
X53822499Y-106600000D01*
X40765001Y-120250000D02*
X40240000Y-120250000D01*
X40852501Y-120162500D02*
X40765001Y-120250000D01*
X41277248Y-120162500D02*
X40852501Y-120162500D01*
X40765001Y-123750000D02*
X40240000Y-123750000D01*
X40852501Y-123837500D02*
X40765001Y-123750000D01*
X43162500Y-123837500D02*
X40852501Y-123837500D01*
X44882690Y-123837500D02*
X43912500Y-123837500D01*
X46407500Y-122312690D02*
X44882690Y-123837500D01*
X46407500Y-113462690D02*
X46407500Y-122312690D01*
X48081234Y-111788953D02*
X46407500Y-113462690D01*
X48081234Y-111576821D02*
X48081234Y-111788953D01*
X48611567Y-111258623D02*
X48399433Y-111258623D01*
X54112690Y-109987500D02*
X53542500Y-109987500D01*
X54787500Y-108965001D02*
X54787500Y-109312690D01*
X54787500Y-109312690D02*
X54112690Y-109987500D01*
X43312500Y-123687500D02*
X43162500Y-123837500D01*
X48929762Y-110728293D02*
X48929762Y-110940425D01*
X54750000Y-108927501D02*
X54787500Y-108965001D01*
X53542500Y-109987500D02*
X53392500Y-109837500D01*
X48399433Y-111258623D02*
X48081234Y-111576821D01*
X53392500Y-109837500D02*
X52942500Y-109837500D01*
X52942500Y-109837500D02*
X52792500Y-109987500D01*
X52792500Y-109987500D02*
X49882690Y-109987500D01*
X54750000Y-108395000D02*
X54750000Y-108927501D01*
X49882690Y-109987500D02*
X49460095Y-110410095D01*
X43912500Y-123837500D02*
X43762500Y-123687500D01*
X49460095Y-110410095D02*
X49247961Y-110410095D01*
X43762500Y-123687500D02*
X43312500Y-123687500D01*
X48929762Y-110940425D02*
X48611567Y-111258623D01*
X49247961Y-110410095D02*
X48929762Y-110728293D01*
X55150000Y-108395000D02*
X55150000Y-108927501D01*
X55112500Y-108965001D02*
X55112500Y-109447310D01*
X46732500Y-122447310D02*
X45017310Y-124162500D01*
X55112500Y-109447310D02*
X54247310Y-110312500D01*
X55150000Y-108927501D02*
X55112500Y-108965001D01*
X54247310Y-110312500D02*
X50017310Y-110312500D01*
X46732500Y-113597310D02*
X46732500Y-122447310D01*
X50017310Y-110312500D02*
X46732500Y-113597310D01*
X40765001Y-124250000D02*
X40852501Y-124162500D01*
X40852501Y-124162500D02*
X45017310Y-124162500D01*
X40240000Y-124250000D02*
X40765001Y-124250000D01*
X55150000Y-116395000D02*
X55150000Y-116927501D01*
X55150000Y-116927501D02*
X55112500Y-116965001D01*
X55112500Y-116965001D02*
X55112500Y-118497310D01*
X55112500Y-118497310D02*
X52903294Y-120706516D01*
X52903294Y-120706516D02*
X52903294Y-120883294D01*
X52673484Y-120476706D02*
X52523484Y-120476706D01*
X52845532Y-120304658D02*
X52673484Y-120476706D01*
X54295095Y-118855095D02*
X54082961Y-118855095D01*
X53764762Y-119385425D02*
X52845532Y-120304658D01*
X54787500Y-118362690D02*
X54295095Y-118855095D01*
X52523484Y-120476706D02*
X52496706Y-120476706D01*
X54082961Y-118855095D02*
X53764762Y-119173293D01*
X54787500Y-116965001D02*
X54787500Y-118362690D01*
X53764762Y-119173293D02*
X53764762Y-119385425D01*
X54750000Y-116927501D02*
X54787500Y-116965001D01*
X54750000Y-116395000D02*
X54750000Y-116927501D01*
X54100000Y-114600000D02*
X54355000Y-114600000D01*
X54062500Y-114562500D02*
X54100000Y-114600000D01*
X53682690Y-114562500D02*
X54062500Y-114562500D01*
X53022690Y-113902500D02*
X53682690Y-114562500D01*
X50207310Y-113902500D02*
X53022690Y-113902500D01*
X48528294Y-115581516D02*
X50207310Y-113902500D01*
X48528294Y-115758294D02*
X48528294Y-115581516D01*
X53817310Y-114237500D02*
X53157310Y-113577500D01*
X54100000Y-114200000D02*
X54062500Y-114237500D01*
X54355000Y-114200000D02*
X54100000Y-114200000D01*
X54062500Y-114237500D02*
X53817310Y-114237500D01*
X50072690Y-113577500D02*
X53157310Y-113577500D01*
X48121706Y-115351706D02*
X48298484Y-115351706D01*
X48298484Y-115351706D02*
X50072690Y-113577500D01*
X39557002Y-99750000D02*
X39237002Y-100070000D01*
X40240000Y-99750000D02*
X39557002Y-99750000D01*
X39237002Y-100092998D02*
X38930000Y-100400000D01*
X39237002Y-100070000D02*
X39237002Y-100092998D01*
X48725000Y-99837500D02*
X48850000Y-99712500D01*
X40765001Y-99750000D02*
X40852501Y-99837500D01*
X40240000Y-99750000D02*
X40765001Y-99750000D01*
X40852501Y-99837500D02*
X48725000Y-99837500D01*
D39*
X62800000Y-101899900D02*
X62800000Y-101340000D01*
D36*
X62800000Y-101110000D02*
X62935000Y-100975000D01*
X62800000Y-101340000D02*
X62800000Y-101110000D01*
X39693399Y-100250000D02*
X39652076Y-100291323D01*
X40240000Y-100250000D02*
X39693399Y-100250000D01*
X48725000Y-100162500D02*
X48850000Y-100287500D01*
X40852501Y-100162500D02*
X48725000Y-100162500D01*
X40765001Y-100250000D02*
X40852501Y-100162500D01*
X40240000Y-100250000D02*
X40765001Y-100250000D01*
D39*
X62203100Y-102500000D02*
X61670000Y-102500000D01*
X61570000Y-102400000D02*
X61670000Y-102500000D01*
D36*
X61570000Y-101580000D02*
X61570000Y-102400000D01*
X40765001Y-121750000D02*
X40852501Y-121837500D01*
X40240000Y-121750000D02*
X40765001Y-121750000D01*
X39182001Y-122125001D02*
X39557002Y-121750000D01*
X39557002Y-121750000D02*
X40240000Y-121750000D01*
X39182001Y-122125001D02*
X39182001Y-122147999D01*
X39182001Y-122147999D02*
X38930000Y-122400000D01*
X44285000Y-121837500D02*
X44410000Y-121712500D01*
X40852501Y-121837500D02*
X44285000Y-121837500D01*
X61884994Y-98724904D02*
X62290050Y-98319848D01*
X63199999Y-101350001D02*
X63199999Y-101899900D01*
X63390000Y-101160000D02*
X63199999Y-101350001D01*
X63390000Y-100705411D02*
X63390000Y-101160000D01*
X61884994Y-99200405D02*
X63390000Y-100705411D01*
X61884994Y-99200405D02*
X61884994Y-98724904D01*
X40765001Y-122250000D02*
X40852501Y-122162500D01*
X40240000Y-122250000D02*
X40765001Y-122250000D01*
X39693400Y-122250000D02*
X39651700Y-122291700D01*
X40240000Y-122250000D02*
X39693400Y-122250000D01*
X44285000Y-122162500D02*
X44410000Y-122287500D01*
X40852501Y-122162500D02*
X44285000Y-122162500D01*
X61936497Y-97966295D02*
X61434993Y-98467799D01*
D39*
X62400001Y-101899900D02*
X62400000Y-101343499D01*
D36*
X62400000Y-101343499D02*
X62400000Y-100530000D01*
X62400000Y-100530000D02*
X61550000Y-99680000D01*
X61434993Y-99564993D02*
X61550000Y-99680000D01*
X61434993Y-98467799D02*
X61434993Y-99564993D01*
X65754873Y-94855025D02*
X65754975Y-94855025D01*
D39*
X65754975Y-94855025D02*
X66160000Y-94450000D01*
X66160000Y-94450000D02*
X66810000Y-94450000D01*
X66810000Y-94450000D02*
X68420000Y-96060000D01*
X68420000Y-96060000D02*
X68420000Y-96510000D01*
X68420000Y-96510000D02*
X68920000Y-97010000D01*
X68920000Y-97010000D02*
X71530000Y-97010000D01*
X72370000Y-96170000D02*
X72370000Y-93950000D01*
X71530000Y-97010000D02*
X72370000Y-96170000D01*
X74825001Y-94615999D02*
X74159002Y-93950000D01*
X74159002Y-93950000D02*
X72370000Y-93950000D01*
X73020000Y-100250000D02*
X74820000Y-98450000D01*
X74825001Y-95154001D02*
X74825001Y-94615999D01*
X74820000Y-98450000D02*
X74820000Y-95159002D01*
X74820000Y-95159002D02*
X74825001Y-95154001D01*
X72370000Y-100250000D02*
X73020000Y-100250000D01*
D36*
X35090000Y-94052500D02*
X36012500Y-93130000D01*
X33730000Y-94052500D02*
X35090000Y-94052500D01*
X76200000Y-116957500D02*
X75792500Y-116957500D01*
X74890000Y-117860000D02*
X73907500Y-117860000D01*
X75792500Y-116957500D02*
X74890000Y-117860000D01*
D39*
X38970000Y-91880000D02*
X38020000Y-90930000D01*
X35027500Y-90930000D02*
X33730000Y-92227500D01*
X38020000Y-90930000D02*
X35027500Y-90930000D01*
X58820417Y-96680000D02*
X54256913Y-92116496D01*
X60168730Y-96198528D02*
X59687258Y-96680000D01*
X59687258Y-96680000D02*
X58820417Y-96680000D01*
D36*
X76200000Y-118782500D02*
X75812500Y-118782500D01*
X76200000Y-118782500D02*
X75187500Y-118782500D01*
X74830000Y-119140000D02*
X74160000Y-119140000D01*
X75187500Y-118782500D02*
X74830000Y-119140000D01*
D39*
X69419303Y-95568261D02*
X67181042Y-93330000D01*
X65158578Y-93330000D02*
X64694213Y-93794365D01*
X67181042Y-93330000D02*
X65158578Y-93330000D01*
D36*
X33730000Y-127947500D02*
X34512500Y-127947500D01*
X34512500Y-127947500D02*
X35147500Y-127947500D01*
X35245319Y-127849681D02*
X35147500Y-127947500D01*
X35583703Y-127849681D02*
X35245319Y-127849681D01*
D39*
X54939998Y-92039998D02*
X54920000Y-92039998D01*
X59070000Y-96170000D02*
X54939998Y-92039998D01*
X59490152Y-96170000D02*
X59070000Y-96170000D01*
X59815177Y-95844975D02*
X59490152Y-96170000D01*
D37*
X35050001Y-107220001D02*
X35030000Y-107200000D01*
X36026200Y-107220001D02*
X35050001Y-107220001D01*
X36026200Y-106719999D02*
X35969998Y-106776201D01*
X35453799Y-106776201D02*
X35030000Y-107200000D01*
X35969998Y-106776201D02*
X35453799Y-106776201D01*
X36799999Y-106719999D02*
X36800000Y-106720000D01*
X36026200Y-106719999D02*
X36799999Y-106719999D01*
X36789999Y-107220001D02*
X36810000Y-107200000D01*
X36026200Y-107220001D02*
X36789999Y-107220001D01*
D41*
X36810000Y-106730000D02*
X36800000Y-106720000D01*
X36810000Y-107200000D02*
X36810000Y-106730000D01*
X37230000Y-106780000D02*
X36810000Y-107200000D01*
X37947500Y-106780000D02*
X37230000Y-106780000D01*
X37327500Y-107400000D02*
X37947500Y-106780000D01*
X36970000Y-107400000D02*
X37327500Y-107400000D01*
X37922500Y-106805000D02*
X37947500Y-106780000D01*
X37922500Y-108730000D02*
X37922500Y-106805000D01*
X37717500Y-106550000D02*
X37947500Y-106780000D01*
X36930000Y-106550000D02*
X37717500Y-106550000D01*
D39*
X41307500Y-89850000D02*
X41327500Y-89830000D01*
X40210000Y-89850000D02*
X41307500Y-89850000D01*
D37*
X36026200Y-113339999D02*
X36578600Y-113340000D01*
X35080001Y-113840001D02*
X35060000Y-113820000D01*
X36026200Y-113840001D02*
X35080001Y-113840001D01*
X36026200Y-113339999D02*
X35969998Y-113396201D01*
X35483799Y-113396201D02*
X35060000Y-113820000D01*
X35969998Y-113396201D02*
X35483799Y-113396201D01*
D41*
X37947500Y-113355000D02*
X37912500Y-113320000D01*
X37947500Y-115260000D02*
X37947500Y-113355000D01*
X37302500Y-113930000D02*
X37912500Y-113320000D01*
X36910000Y-113930000D02*
X37302500Y-113930000D01*
X36910000Y-113390000D02*
X36900000Y-113380000D01*
X36910000Y-113930000D02*
X36910000Y-113390000D01*
D37*
X34700000Y-113820000D02*
X35340000Y-113820000D01*
X35340000Y-113820000D02*
X35550000Y-113610000D01*
X35550000Y-113610000D02*
X35760000Y-113610000D01*
X35760000Y-113610000D02*
X35770000Y-113600000D01*
X35770000Y-113600000D02*
X36020000Y-113600000D01*
X36020000Y-113600000D02*
X36090000Y-113530000D01*
X36770000Y-113530000D02*
X36910000Y-113390000D01*
X36090000Y-113530000D02*
X36770000Y-113530000D01*
X36770000Y-113530000D02*
X36330000Y-113530000D01*
X36330000Y-113530000D02*
X36260000Y-113600000D01*
X36260000Y-113600000D02*
X36300000Y-113600000D01*
X36290001Y-113609999D02*
X36290001Y-113840001D01*
X36300000Y-113600000D02*
X36290001Y-113609999D01*
X36290001Y-113840001D02*
X36569999Y-113840001D01*
X36026200Y-113840001D02*
X36290001Y-113840001D01*
X36210001Y-113609999D02*
X36290001Y-113609999D01*
X36026200Y-113793800D02*
X36210001Y-113609999D01*
X36026200Y-113840001D02*
X36026200Y-113793800D01*
D35*
X34810000Y-113930000D02*
X34700000Y-113820000D01*
X36910000Y-113930000D02*
X34810000Y-113930000D01*
D41*
X37852500Y-113380000D02*
X37912500Y-113320000D01*
X36900000Y-113380000D02*
X37852500Y-113380000D01*
X36910000Y-114486399D02*
X36953601Y-114530000D01*
X36910000Y-113930000D02*
X36910000Y-114486399D01*
X37683601Y-115260000D02*
X36910000Y-114486399D01*
X37947500Y-115260000D02*
X37683601Y-115260000D01*
D36*
X41203199Y-93394301D02*
X41317500Y-93280000D01*
D39*
X39764050Y-90255000D02*
X40220000Y-90710950D01*
X40220000Y-90710950D02*
X40220000Y-92630000D01*
X40870000Y-93280000D02*
X41317500Y-93280000D01*
X40220000Y-92630000D02*
X40870000Y-93280000D01*
D38*
X36026200Y-114839999D02*
X36026200Y-114816200D01*
X36026200Y-114816200D02*
X35810000Y-114600000D01*
X34960000Y-114600000D02*
X34700000Y-114860000D01*
X35810000Y-114600000D02*
X34960000Y-114600000D01*
X34700000Y-114860000D02*
X35440000Y-114860000D01*
X35440000Y-114860000D02*
X35660000Y-115080000D01*
X35660000Y-115080000D02*
X36060000Y-115080000D01*
X36026200Y-115113800D02*
X36026200Y-115340001D01*
X36060000Y-115080000D02*
X36026200Y-115113800D01*
X35944999Y-115258800D02*
X35533800Y-115258800D01*
X36026200Y-115340001D02*
X35944999Y-115258800D01*
X36026200Y-115340001D02*
X36249999Y-115340001D01*
X36320000Y-115270000D02*
X36320000Y-114992428D01*
X36249999Y-115340001D02*
X36320000Y-115270000D01*
X36167571Y-114839999D02*
X36026200Y-114839999D01*
X36320000Y-114992428D02*
X36167571Y-114839999D01*
X36026200Y-114839999D02*
X35699999Y-114839999D01*
X35679998Y-114860000D02*
X35699999Y-114839999D01*
X35440000Y-114860000D02*
X35679998Y-114860000D01*
X35135000Y-114860000D02*
X35533800Y-115258800D01*
X34700000Y-114860000D02*
X35135000Y-114860000D01*
D36*
X73529000Y-124432500D02*
X74871500Y-123090000D01*
X71990000Y-124432500D02*
X73529000Y-124432500D01*
D40*
X71990000Y-124432500D02*
X71990000Y-125800000D01*
X71990000Y-125800000D02*
X70190000Y-125800000D01*
D35*
X69887500Y-124432500D02*
X69830000Y-124490000D01*
X71990000Y-124432500D02*
X69887500Y-124432500D01*
D39*
X65754873Y-95844975D02*
X65754975Y-95844975D01*
X65754975Y-95844975D02*
X66060000Y-96150000D01*
X66270000Y-96150000D02*
X66790000Y-95630000D01*
X66060000Y-96150000D02*
X66270000Y-96150000D01*
X70200000Y-93410000D02*
X70970000Y-94180000D01*
X70200000Y-90370000D02*
X70200000Y-93410000D01*
X72800000Y-91500000D02*
X72780000Y-91520000D01*
X72800000Y-90562500D02*
X72800000Y-91500000D01*
X65401320Y-96198528D02*
X65742792Y-96540000D01*
X66730000Y-96540000D02*
X67220000Y-96050000D01*
X65742792Y-96540000D02*
X66730000Y-96540000D01*
X68930000Y-92769002D02*
X68930000Y-90370000D01*
X70900998Y-94740000D02*
X68930000Y-92769002D01*
X71230000Y-94740000D02*
X70900998Y-94740000D01*
D35*
X44660000Y-129230000D02*
X45610000Y-129230000D01*
D38*
X40480000Y-108730000D02*
X40840000Y-109090000D01*
X39797500Y-108730000D02*
X40480000Y-108730000D01*
X40840000Y-109090000D02*
X40840000Y-110920000D01*
X40510000Y-113320000D02*
X40765000Y-113065000D01*
X39787500Y-113320000D02*
X40510000Y-113320000D01*
X40840000Y-112990000D02*
X40765000Y-113065000D01*
X40840000Y-110920000D02*
X40840000Y-112990000D01*
D35*
X44010000Y-129230000D02*
X43250000Y-128470000D01*
X44660000Y-129230000D02*
X44010000Y-129230000D01*
D38*
X68320000Y-123160000D02*
X68320000Y-126410000D01*
X69090000Y-122390000D02*
X68320000Y-123160000D01*
X69830000Y-122390000D02*
X69090000Y-122390000D01*
D35*
X43250000Y-128470000D02*
X41090000Y-128470000D01*
X41090000Y-128470000D02*
X40470000Y-129090000D01*
M02*
