M48
; DRILL file {KiCad 6.0.9-8da3e8f707~116~ubuntu20.04.1} date Sat 26 Nov 2022 18:10:54 EET
; FORMAT={-:-/ absolute / metric / decimal}
; #@! TF.CreationDate,2022-11-26T18:10:54+02:00
; #@! TF.GenerationSoftware,Kicad,Pcbnew,6.0.9-8da3e8f707~116~ubuntu20.04.1
; #@! TF.FileFunction,Plated,1,6,PTH
FMAT,2
METRIC
; #@! TA.AperFunction,Plated,PTH,ViaDrill
T1C0.200
; #@! TA.AperFunction,Plated,PTH,ViaDrill
T2C0.250
; #@! TA.AperFunction,Plated,PTH,ViaDrill
T3C0.300
; #@! TA.AperFunction,Plated,PTH,ComponentDrill
T4C0.400
; #@! TA.AperFunction,Plated,PTH,ComponentDrill
T5C0.600
; #@! TA.AperFunction,Plated,PTH,ComponentDrill
T6C0.650
%
G90
G05
T1
X32.47Y-105.46
X32.99Y-115.88
X33.1Y-106.16
X33.8Y-127.179
X34.25Y-113.64
X34.26Y-107.03
X34.26Y-108.41
X34.28Y-115.01
X34.7Y-114.0
X34.7Y-114.7
X34.71Y-107.37
X34.71Y-108.07
X34.94Y-123.35
X35.0Y-119.89
X35.13Y-107.03
X35.13Y-108.41
X35.13Y-115.02
X35.14Y-113.64
X35.35Y-116.48
X35.64Y-114.83
X35.68Y-105.24
X35.832Y-112.065
X36.12Y-115.15
X36.15Y-109.635
X36.37Y-105.3
X36.58Y-106.97
X36.58Y-111.03
X36.78Y-113.15
X36.94Y-114.55
X36.95Y-106.37
X36.96Y-113.81
X37.03Y-107.54
X37.3Y-131.73
X38.88Y-127.971
X38.97Y-91.88
X39.36Y-93.79
X39.606Y-122.387
X39.75Y-99.75
X39.764Y-90.255
X40.34Y-95.85
X40.4Y-104.12
X40.41Y-117.7
X40.77Y-126.43
X40.78Y-89.85
X40.84Y-110.92
X40.99Y-122.9
X41.75Y-133.08
X42.37Y-128.01
X42.52Y-99.275
X42.61Y-100.77
X42.66Y-95.64
X42.91Y-120.63
X43.09Y-110.48
X43.29Y-126.25
X43.7Y-132.27
X43.77Y-89.89
X43.84Y-92.575
X43.84Y-121.28
X43.89Y-122.68
X43.95Y-98.81
X44.18Y-115.93
X44.39Y-105.46
X44.58Y-118.84
X44.86Y-121.28
X44.92Y-122.7
X45.16Y-101.23
X45.48Y-113.49
X45.53Y-90.04
X45.79Y-108.19
X46.62Y-95.61
X46.74Y-92.575
X47.09Y-98.51
X47.54Y-115.46
X47.7Y-114.87
X47.88Y-105.25
X47.89Y-102.24
X47.9Y-120.76
X47.96Y-91.18
X48.06Y-105.86
X48.3Y-114.69
X48.31Y-99.29
X48.36Y-100.69
X48.43Y-116.36
X48.51Y-109.84
X48.64Y-122.89
X48.66Y-106.02
X48.67Y-128.3
X48.78Y-104.36
X48.79Y-126.32
X49.04Y-116.18
X49.15Y-118.21
X49.2Y-115.58
X49.33Y-99.29
X49.37Y-104.52
X49.39Y-100.71
X49.55Y-105.12
X49.72Y-89.32
X49.94Y-92.575
X50.23Y-103.22
X50.41Y-95.56
X50.84Y-133.58
X50.85Y-108.77
X50.99Y-90.72
X51.16Y-114.99
X51.16Y-116.23
X51.71Y-114.67
X51.72Y-116.54
X51.77Y-106.98
X51.77Y-108.22
X51.88Y-120.6
X52.04Y-101.73
X52.04Y-120.01
X52.15Y-132.43
X52.27Y-114.98
X52.27Y-116.24
X52.32Y-106.66
X52.33Y-108.53
X52.35Y-123.2
X52.49Y-111.43
X52.49Y-112.67
X52.5Y-93.16
X52.64Y-119.83
X52.74Y-125.67
X52.77Y-121.5
X52.78Y-104.01
X52.84Y-89.3
X52.88Y-106.97
X52.88Y-108.23
X53.04Y-111.11
X53.05Y-112.98
X53.2Y-97.11
X53.263Y-122.923
X53.38Y-121.32
X53.52Y-128.19
X53.54Y-120.72
X53.57Y-115.0
X53.6Y-111.42
X53.6Y-112.68
X54.761Y-122.061
X54.89Y-91.78
X55.29Y-126.38
X55.31Y-124.56
X55.32Y-115.5
X55.33Y-114.48
X55.41Y-107.51
X55.43Y-106.56
X55.508Y-110.822
X55.55Y-99.26
X55.55Y-111.5
X55.562Y-109.407
X55.588Y-123.998
X55.74Y-117.258
X55.81Y-102.87
X55.87Y-125.26
X55.94Y-123.01
X56.12Y-109.06
X56.44Y-90.52
X56.47Y-127.79
X56.567Y-99.856
X56.6Y-116.66
X57.089Y-122.59
X57.11Y-126.0
X57.14Y-99.9
X57.64Y-91.69
X57.66Y-122.522
X57.87Y-126.86
X57.894Y-125.959
X57.94Y-100.44
X58.05Y-105.78
X58.1Y-110.44
X58.12Y-107.1
X58.26Y-122.47
X58.48Y-103.21
X58.6Y-105.46
X58.76Y-95.64
X58.77Y-94.58
X58.9Y-116.23
X58.902Y-96.382
X58.96Y-107.22
X58.99Y-114.87
X59.12Y-99.02
X59.16Y-105.77
X59.22Y-94.155
X59.28Y-125.39
X59.35Y-112.24
X59.369Y-123.38
X59.46Y-116.54
X59.62Y-93.73
X59.725Y-124.525
X59.75Y-101.44
X59.75Y-114.74
X59.77Y-109.22
X60.01Y-116.24
X60.15Y-89.53
X60.155Y-93.305
X60.33Y-104.56
X60.33Y-125.5
X60.341Y-92.761
X60.51Y-122.38
X60.6Y-111.15
X60.677Y-120.393
X60.7Y-124.582
X60.756Y-92.354
X60.78Y-111.75
X60.87Y-124.032
X61.18Y-118.27
X61.29Y-119.42
X61.33Y-92.34
X61.37Y-111.91
X61.52Y-100.76
X61.55Y-99.68
X61.67Y-110.23
X61.798Y-120.691
X61.885Y-99.2
X62.04Y-125.102
X62.14Y-123.866
X62.16Y-106.36
X62.19Y-105.28
X62.28Y-110.75
X62.51Y-99.05
X62.54Y-109.7
X63.12Y-92.07
X63.14Y-110.45
X63.46Y-123.45
X63.49Y-120.4
X63.738Y-126.56
X63.75Y-118.09
X63.829Y-102.189
X63.91Y-105.66
X63.951Y-119.741
X64.01Y-119.0
X64.08Y-108.96
X64.24Y-98.57
X64.26Y-102.68
X64.29Y-92.07
X64.33Y-128.91
X64.68Y-114.76
X64.68Y-116.0
X64.702Y-124.369
X64.71Y-92.462
X64.74Y-125.028
X65.04Y-121.22
X65.125Y-92.859
X65.15Y-98.07
X65.23Y-114.44
X65.24Y-116.31
X65.52Y-93.31
X65.75Y-111.59
X65.752Y-126.56
X65.79Y-114.75
X65.79Y-116.01
X65.806Y-118.62
X65.84Y-93.8
X65.89Y-121.75
X66.089Y-124.185
X66.607Y-95.894
X66.657Y-95.313
X66.706Y-118.03
X66.75Y-125.402
X66.77Y-104.77
X66.86Y-111.82
X67.12Y-119.3
X67.46Y-99.89
X67.58Y-110.3
X67.639Y-123.963
X67.72Y-120.6
X67.75Y-126.57
X67.93Y-122.29
X68.2Y-91.72
X68.64Y-112.31
X68.67Y-109.66
X68.82Y-116.18
X69.22Y-105.57
X69.54Y-106.84
X70.342Y-111.308
X70.77Y-104.23
X71.19Y-126.18
X71.3Y-129.67
X71.9Y-91.53
X72.36Y-125.65
X74.21Y-124.53
X75.67Y-119.47
X75.954Y-116.6
X76.17Y-126.0
X76.73Y-122.52
T2
X44.377Y-121.699
X44.377Y-122.301
X48.144Y-115.301
X48.507Y-105.412
X48.569Y-115.726
X48.85Y-99.699
X48.85Y-100.301
X48.933Y-104.986
X51.69Y-115.299
X51.69Y-115.901
X52.33Y-107.299
X52.33Y-107.901
X52.5Y-120.465
X52.925Y-120.89
X53.04Y-111.738
X53.04Y-112.34
X58.602Y-106.099
X58.602Y-106.701
X59.469Y-115.299
X59.469Y-115.901
X61.24Y-111.257
X61.666Y-110.831
X61.88Y-101.74
X62.66Y-105.72
X62.86Y-101.06
X62.939Y-106.3
X63.193Y-109.78
X63.618Y-109.355
X65.24Y-115.049
X65.24Y-115.651
T3
X32.585Y-109.835
X39.15Y-129.5
X40.81Y-114.4
X40.81Y-114.96
X40.81Y-115.54
X40.81Y-116.1
X41.14Y-105.8
X41.14Y-106.5
X41.14Y-107.3
X41.14Y-108.1
X54.422Y-127.102
X56.19Y-120.02
X57.54Y-95.717
X61.34Y-102.34
X61.825Y-91.915
X65.793Y-97.297
X70.26Y-117.0
X70.27Y-120.73
X70.82Y-117.0
X70.82Y-120.73
X71.39Y-120.72
X71.4Y-117.0
X71.96Y-117.0
X71.97Y-120.72
X74.736Y-103.63
T4
X38.23Y-97.6
X38.23Y-98.4
X38.23Y-99.2
X38.23Y-100.8
X38.23Y-101.6
X38.23Y-102.4
X38.23Y-119.6
X38.23Y-120.4
X38.23Y-121.2
X38.23Y-122.8
X38.23Y-123.6
X38.23Y-124.4
X38.93Y-97.2
X38.93Y-98.8
X38.93Y-99.6
X38.93Y-100.4
X38.93Y-101.2
X38.93Y-102.8
X38.93Y-119.2
X38.93Y-120.8
X38.93Y-121.6
X38.93Y-122.4
X38.93Y-123.2
X38.93Y-124.8
X71.07Y-108.2
X71.07Y-109.8
X71.07Y-110.6
X71.07Y-111.4
X71.07Y-112.2
X71.07Y-113.8
X71.77Y-108.6
X71.77Y-109.4
X71.77Y-110.2
X71.77Y-111.8
X71.77Y-112.6
X71.77Y-113.4
T6
X65.12Y-89.1
X65.12Y-90.37
X66.39Y-89.1
X66.39Y-90.37
X67.66Y-89.1
X67.66Y-90.37
X68.93Y-89.1
X68.93Y-90.37
X70.2Y-89.1
X70.2Y-90.37
T5
X32.63Y-95.67G85X32.13Y-95.67
G05
X32.63Y-104.33G85X32.13Y-104.33
G05
X32.63Y-117.67G85X32.13Y-117.67
G05
X32.63Y-126.33G85X32.13Y-126.33
G05
X38.58Y-95.67G85X37.98Y-95.67
G05
X38.58Y-104.33G85X37.98Y-104.33
G05
X38.58Y-117.67G85X37.98Y-117.67
G05
X38.58Y-126.33G85X37.98Y-126.33
G05
X38.58Y-95.72G85X38.58Y-96.32
G05
X38.58Y-103.68G85X38.58Y-104.28
G05
X38.58Y-117.72G85X38.58Y-118.32
G05
X38.58Y-125.68G85X38.58Y-126.28
G05
X71.42Y-107.32G85X71.42Y-106.72
G05
X71.42Y-115.28G85X71.42Y-114.68
G05
X71.42Y-106.67G85X72.02Y-106.67
G05
X71.42Y-115.33G85X72.02Y-115.33
G05
X77.37Y-106.67G85X77.87Y-106.67
G05
X77.37Y-115.33G85X77.87Y-115.33
G05
T0
M30
