G04 #@! TF.GenerationSoftware,KiCad,Pcbnew,6.0.9-8da3e8f707~116~ubuntu20.04.1*
G04 #@! TF.CreationDate,2022-11-26T18:10:52+02:00*
G04 #@! TF.ProjectId,USB-TypeC-Switch,5553422d-5479-4706-9543-2d5377697463,rev?*
G04 #@! TF.SameCoordinates,Original*
G04 #@! TF.FileFunction,Copper,L1,Top*
G04 #@! TF.FilePolarity,Positive*
%FSLAX46Y46*%
G04 Gerber Fmt 4.6, Leading zero omitted, Abs format (unit mm)*
G04 Created by KiCad (PCBNEW 6.0.9-8da3e8f707~116~ubuntu20.04.1) date 2022-11-26 18:10:52*
%MOMM*%
%LPD*%
G01*
G04 APERTURE LIST*
G04 Aperture macros list*
%AMRoundRect*
0 Rectangle with rounded corners*
0 $1 Rounding radius*
0 $2 $3 $4 $5 $6 $7 $8 $9 X,Y pos of 4 corners*
0 Add a 4 corners polygon primitive as box body*
4,1,4,$2,$3,$4,$5,$6,$7,$8,$9,$2,$3,0*
0 Add four circle primitives for the rounded corners*
1,1,$1+$1,$2,$3*
1,1,$1+$1,$4,$5*
1,1,$1+$1,$6,$7*
1,1,$1+$1,$8,$9*
0 Add four rect primitives between the rounded corners*
20,1,$1+$1,$2,$3,$4,$5,0*
20,1,$1+$1,$4,$5,$6,$7,0*
20,1,$1+$1,$6,$7,$8,$9,0*
20,1,$1+$1,$8,$9,$2,$3,0*%
%AMRotRect*
0 Rectangle, with rotation*
0 The origin of the aperture is its center*
0 $1 length*
0 $2 width*
0 $3 Rotation angle, in degrees counterclockwise*
0 Add horizontal line*
21,1,$1,$2,0,0,$3*%
%AMFreePoly0*
4,1,9,3.862500,-0.866500,0.737500,-0.866500,0.737500,-0.450000,-0.737500,-0.450000,-0.737500,0.450000,0.737500,0.450000,0.737500,0.866500,3.862500,0.866500,3.862500,-0.866500,3.862500,-0.866500,$1*%
G04 Aperture macros list end*
G04 #@! TA.AperFunction,SMDPad,CuDef*
%ADD10R,0.700000X0.320000*%
G04 #@! TD*
G04 #@! TA.AperFunction,ComponentPad*
%ADD11C,0.600000*%
G04 #@! TD*
G04 #@! TA.AperFunction,ComponentPad*
%ADD12O,0.900000X1.500000*%
G04 #@! TD*
G04 #@! TA.AperFunction,ComponentPad*
%ADD13O,1.500000X0.900000*%
G04 #@! TD*
G04 #@! TA.AperFunction,ComponentPad*
%ADD14O,1.800000X0.900000*%
G04 #@! TD*
G04 #@! TA.AperFunction,SMDPad,CuDef*
%ADD15RoundRect,0.200000X0.200000X0.275000X-0.200000X0.275000X-0.200000X-0.275000X0.200000X-0.275000X0*%
G04 #@! TD*
G04 #@! TA.AperFunction,SMDPad,CuDef*
%ADD16R,0.178600X0.604799*%
G04 #@! TD*
G04 #@! TA.AperFunction,SMDPad,CuDef*
%ADD17R,0.604799X0.178600*%
G04 #@! TD*
G04 #@! TA.AperFunction,SMDPad,CuDef*
%ADD18R,1.346200X0.812800*%
G04 #@! TD*
G04 #@! TA.AperFunction,SMDPad,CuDef*
%ADD19RoundRect,0.200000X-0.200000X-0.275000X0.200000X-0.275000X0.200000X0.275000X-0.200000X0.275000X0*%
G04 #@! TD*
G04 #@! TA.AperFunction,SMDPad,CuDef*
%ADD20RoundRect,0.225000X0.250000X-0.225000X0.250000X0.225000X-0.250000X0.225000X-0.250000X-0.225000X0*%
G04 #@! TD*
G04 #@! TA.AperFunction,SMDPad,CuDef*
%ADD21R,0.200000X0.800000*%
G04 #@! TD*
G04 #@! TA.AperFunction,SMDPad,CuDef*
%ADD22R,0.800000X0.200000*%
G04 #@! TD*
G04 #@! TA.AperFunction,SMDPad,CuDef*
%ADD23RoundRect,0.218750X0.581250X-0.218750X0.581250X0.218750X-0.581250X0.218750X-0.581250X-0.218750X0*%
G04 #@! TD*
G04 #@! TA.AperFunction,SMDPad,CuDef*
%ADD24R,0.650000X1.220000*%
G04 #@! TD*
G04 #@! TA.AperFunction,SMDPad,CuDef*
%ADD25RoundRect,0.243750X-0.243750X-0.456250X0.243750X-0.456250X0.243750X0.456250X-0.243750X0.456250X0*%
G04 #@! TD*
G04 #@! TA.AperFunction,SMDPad,CuDef*
%ADD26RoundRect,0.200000X-0.275000X0.200000X-0.275000X-0.200000X0.275000X-0.200000X0.275000X0.200000X0*%
G04 #@! TD*
G04 #@! TA.AperFunction,SMDPad,CuDef*
%ADD27RoundRect,0.243750X0.243750X0.456250X-0.243750X0.456250X-0.243750X-0.456250X0.243750X-0.456250X0*%
G04 #@! TD*
G04 #@! TA.AperFunction,SMDPad,CuDef*
%ADD28RoundRect,0.062500X0.194454X0.282843X-0.282843X-0.194454X-0.194454X-0.282843X0.282843X0.194454X0*%
G04 #@! TD*
G04 #@! TA.AperFunction,SMDPad,CuDef*
%ADD29RoundRect,0.062500X-0.194454X0.282843X-0.282843X0.194454X0.194454X-0.282843X0.282843X-0.194454X0*%
G04 #@! TD*
G04 #@! TA.AperFunction,SMDPad,CuDef*
%ADD30RotRect,3.600000X3.600000X225.000000*%
G04 #@! TD*
G04 #@! TA.AperFunction,SMDPad,CuDef*
%ADD31RoundRect,0.225000X-0.250000X0.225000X-0.250000X-0.225000X0.250000X-0.225000X0.250000X0.225000X0*%
G04 #@! TD*
G04 #@! TA.AperFunction,SMDPad,CuDef*
%ADD32RoundRect,0.200000X0.275000X-0.200000X0.275000X0.200000X-0.275000X0.200000X-0.275000X-0.200000X0*%
G04 #@! TD*
G04 #@! TA.AperFunction,SMDPad,CuDef*
%ADD33R,1.000000X1.700000*%
G04 #@! TD*
G04 #@! TA.AperFunction,SMDPad,CuDef*
%ADD34R,0.710000X0.200000*%
G04 #@! TD*
G04 #@! TA.AperFunction,SMDPad,CuDef*
%ADD35R,0.200000X0.710000*%
G04 #@! TD*
G04 #@! TA.AperFunction,SMDPad,CuDef*
%ADD36R,0.950000X1.750000*%
G04 #@! TD*
G04 #@! TA.AperFunction,ComponentPad*
%ADD37R,1.000000X1.000000*%
G04 #@! TD*
G04 #@! TA.AperFunction,ComponentPad*
%ADD38O,1.000000X1.000000*%
G04 #@! TD*
G04 #@! TA.AperFunction,SMDPad,CuDef*
%ADD39RoundRect,0.200000X-0.335876X-0.053033X-0.053033X-0.335876X0.335876X0.053033X0.053033X0.335876X0*%
G04 #@! TD*
G04 #@! TA.AperFunction,SMDPad,CuDef*
%ADD40R,0.914400X0.225000*%
G04 #@! TD*
G04 #@! TA.AperFunction,SMDPad,CuDef*
%ADD41R,0.812800X0.225000*%
G04 #@! TD*
G04 #@! TA.AperFunction,SMDPad,CuDef*
%ADD42R,0.225000X0.812800*%
G04 #@! TD*
G04 #@! TA.AperFunction,SMDPad,CuDef*
%ADD43RoundRect,0.225000X0.225000X0.250000X-0.225000X0.250000X-0.225000X-0.250000X0.225000X-0.250000X0*%
G04 #@! TD*
G04 #@! TA.AperFunction,SMDPad,CuDef*
%ADD44R,0.600000X0.450000*%
G04 #@! TD*
G04 #@! TA.AperFunction,SMDPad,CuDef*
%ADD45R,0.450000X0.600000*%
G04 #@! TD*
G04 #@! TA.AperFunction,SMDPad,CuDef*
%ADD46RoundRect,0.249999X-0.650001X0.325001X-0.650001X-0.325001X0.650001X-0.325001X0.650001X0.325001X0*%
G04 #@! TD*
G04 #@! TA.AperFunction,SMDPad,CuDef*
%ADD47RoundRect,0.249999X0.650001X-0.325001X0.650001X0.325001X-0.650001X0.325001X-0.650001X-0.325001X0*%
G04 #@! TD*
G04 #@! TA.AperFunction,SMDPad,CuDef*
%ADD48R,0.900000X1.300000*%
G04 #@! TD*
G04 #@! TA.AperFunction,SMDPad,CuDef*
%ADD49FreePoly0,270.000000*%
G04 #@! TD*
G04 #@! TA.AperFunction,SMDPad,CuDef*
%ADD50RoundRect,0.218750X0.218750X0.256250X-0.218750X0.256250X-0.218750X-0.256250X0.218750X-0.256250X0*%
G04 #@! TD*
G04 #@! TA.AperFunction,SMDPad,CuDef*
%ADD51RoundRect,0.218750X0.256250X-0.218750X0.256250X0.218750X-0.256250X0.218750X-0.256250X-0.218750X0*%
G04 #@! TD*
G04 #@! TA.AperFunction,SMDPad,CuDef*
%ADD52RoundRect,0.135000X0.135000X0.185000X-0.135000X0.185000X-0.135000X-0.185000X0.135000X-0.185000X0*%
G04 #@! TD*
G04 #@! TA.AperFunction,SMDPad,CuDef*
%ADD53R,0.700000X0.600000*%
G04 #@! TD*
G04 #@! TA.AperFunction,SMDPad,CuDef*
%ADD54RoundRect,0.135000X0.185000X-0.135000X0.185000X0.135000X-0.185000X0.135000X-0.185000X-0.135000X0*%
G04 #@! TD*
G04 #@! TA.AperFunction,SMDPad,CuDef*
%ADD55R,0.250000X0.400000*%
G04 #@! TD*
G04 #@! TA.AperFunction,SMDPad,CuDef*
%ADD56R,0.700000X0.400000*%
G04 #@! TD*
G04 #@! TA.AperFunction,SMDPad,CuDef*
%ADD57RoundRect,0.135000X-0.135000X-0.185000X0.135000X-0.185000X0.135000X0.185000X-0.135000X0.185000X0*%
G04 #@! TD*
G04 #@! TA.AperFunction,ViaPad*
%ADD58C,0.450000*%
G04 #@! TD*
G04 #@! TA.AperFunction,Conductor*
%ADD59C,0.200000*%
G04 #@! TD*
G04 #@! TA.AperFunction,Conductor*
%ADD60C,0.125000*%
G04 #@! TD*
G04 #@! TA.AperFunction,Conductor*
%ADD61C,0.141000*%
G04 #@! TD*
G04 #@! TA.AperFunction,Conductor*
%ADD62C,0.150000*%
G04 #@! TD*
G04 #@! TA.AperFunction,Conductor*
%ADD63C,0.300000*%
G04 #@! TD*
G04 #@! TA.AperFunction,Conductor*
%ADD64C,1.250000*%
G04 #@! TD*
G04 #@! TA.AperFunction,Conductor*
%ADD65C,0.500000*%
G04 #@! TD*
G04 #@! TA.AperFunction,Conductor*
%ADD66C,0.142000*%
G04 #@! TD*
G04 #@! TA.AperFunction,Conductor*
%ADD67C,0.250000*%
G04 #@! TD*
G04 #@! TA.AperFunction,Conductor*
%ADD68C,1.000000*%
G04 #@! TD*
G04 APERTURE END LIST*
D10*
X40240000Y-97250000D03*
X40240000Y-97750000D03*
X40240000Y-98250000D03*
X40240000Y-98750000D03*
X40240000Y-99250000D03*
X40240000Y-99750000D03*
X40240000Y-100250000D03*
X40240000Y-100750000D03*
X40240000Y-101250000D03*
X40240000Y-101750000D03*
X40240000Y-102250000D03*
X40240000Y-102750000D03*
D11*
X38930000Y-102800000D03*
X38230000Y-102400000D03*
X38230000Y-101600000D03*
X38930000Y-101200000D03*
X38230000Y-100800000D03*
X38930000Y-100400000D03*
X38930000Y-99600000D03*
X38230000Y-99200000D03*
X38930000Y-98800000D03*
X38230000Y-98400000D03*
X38230000Y-97600000D03*
X38930000Y-97200000D03*
D12*
X38580000Y-103980000D03*
D13*
X38280000Y-104330000D03*
D14*
X32380000Y-95670000D03*
D12*
X38580000Y-96020000D03*
D14*
X32380000Y-104330000D03*
D13*
X38280000Y-95670000D03*
D15*
X74605000Y-122230000D03*
X76255000Y-122230000D03*
X52405000Y-92490000D03*
X50755000Y-92490000D03*
X49270000Y-92490000D03*
X47620000Y-92490000D03*
D16*
X35530001Y-106223800D03*
X35029999Y-106223800D03*
X34530000Y-106223800D03*
X34030001Y-106223800D03*
X33529999Y-106223800D03*
D17*
X33033800Y-106719999D03*
X33033800Y-107220001D03*
X33033800Y-107720000D03*
X33033800Y-108219999D03*
X33033800Y-108720001D03*
D16*
X33529999Y-109216200D03*
X34030001Y-109216200D03*
X34530000Y-109216200D03*
X35029999Y-109216200D03*
X35530001Y-109216200D03*
D17*
X36026200Y-108720001D03*
X36026200Y-108219999D03*
X36026200Y-107220001D03*
X36026200Y-106719999D03*
D18*
X34700000Y-107200000D03*
X34700000Y-108240000D03*
D10*
X69760000Y-113750000D03*
X69760000Y-113250000D03*
X69760000Y-112750000D03*
X69760000Y-112250000D03*
X69760000Y-111750000D03*
X69760000Y-111250000D03*
X69760000Y-110750000D03*
X69760000Y-110250000D03*
X69760000Y-109750000D03*
X69760000Y-109250000D03*
X69760000Y-108750000D03*
X69760000Y-108250000D03*
D11*
X71070000Y-108200000D03*
X71770000Y-108600000D03*
X71770000Y-109400000D03*
X71070000Y-109800000D03*
X71770000Y-110200000D03*
X71070000Y-110600000D03*
X71070000Y-111400000D03*
X71770000Y-111800000D03*
X71070000Y-112200000D03*
X71770000Y-112600000D03*
X71770000Y-113400000D03*
X71070000Y-113800000D03*
D13*
X71720000Y-115330000D03*
D14*
X77620000Y-106670000D03*
D12*
X71420000Y-107020000D03*
D14*
X77620000Y-115330000D03*
D12*
X71420000Y-114980000D03*
D13*
X71720000Y-106670000D03*
D16*
X35530001Y-112843800D03*
X35029999Y-112843800D03*
X34530000Y-112843800D03*
X34030001Y-112843800D03*
X33529999Y-112843800D03*
D17*
X33033800Y-113339999D03*
X33033800Y-113840001D03*
X33033800Y-114340000D03*
X33033800Y-114839999D03*
X33033800Y-115340001D03*
D16*
X33529999Y-115836200D03*
X34030001Y-115836200D03*
X34530000Y-115836200D03*
X35029999Y-115836200D03*
X35530001Y-115836200D03*
D17*
X36026200Y-115340001D03*
X36026200Y-114839999D03*
X36026200Y-113840001D03*
X36026200Y-113339999D03*
D18*
X34700000Y-113820000D03*
X34700000Y-114860000D03*
D10*
X40240000Y-119250000D03*
X40240000Y-119750000D03*
X40240000Y-120250000D03*
X40240000Y-120750000D03*
X40240000Y-121250000D03*
X40240000Y-121750000D03*
X40240000Y-122250000D03*
X40240000Y-122750000D03*
X40240000Y-123250000D03*
X40240000Y-123750000D03*
X40240000Y-124250000D03*
X40240000Y-124750000D03*
D11*
X38930000Y-124800000D03*
X38230000Y-124400000D03*
X38230000Y-123600000D03*
X38930000Y-123200000D03*
X38230000Y-122800000D03*
X38930000Y-122400000D03*
X38930000Y-121600000D03*
X38230000Y-121200000D03*
X38930000Y-120800000D03*
X38230000Y-120400000D03*
X38230000Y-119600000D03*
X38930000Y-119200000D03*
D14*
X32380000Y-126330000D03*
D13*
X38280000Y-126330000D03*
X38280000Y-117670000D03*
D12*
X38580000Y-125980000D03*
X38580000Y-118020000D03*
D14*
X32380000Y-117670000D03*
D19*
X74550000Y-125220000D03*
X76200000Y-125220000D03*
D15*
X74560000Y-126800000D03*
X76210000Y-126800000D03*
D20*
X59390000Y-91155000D03*
X59390000Y-89605000D03*
D21*
X58274000Y-123400000D03*
X57874000Y-123400000D03*
X57474000Y-123400000D03*
X57074000Y-123400000D03*
D22*
X56374000Y-123700000D03*
X56374000Y-124100000D03*
X56374000Y-124500000D03*
X56374000Y-124900000D03*
D21*
X57074000Y-125200000D03*
X57474000Y-125200000D03*
X57874000Y-125200000D03*
X58274000Y-125200000D03*
D22*
X58974000Y-124900000D03*
X58974000Y-124500000D03*
X58974000Y-124100000D03*
X58974000Y-123700000D03*
D15*
X39705000Y-111030000D03*
X38055000Y-111030000D03*
D19*
X33565000Y-111030000D03*
X35215000Y-111030000D03*
D15*
X46175000Y-92510000D03*
X44525000Y-92510000D03*
X43085000Y-92500000D03*
X41435000Y-92500000D03*
X43085000Y-89890000D03*
X41435000Y-89890000D03*
X46185000Y-89890000D03*
X44535000Y-89890000D03*
D23*
X48610000Y-131662500D03*
X48610000Y-129537500D03*
D24*
X46560000Y-129230000D03*
X45610000Y-129230000D03*
X44660000Y-129230000D03*
X44660000Y-131850000D03*
X45610000Y-131850000D03*
X46560000Y-131850000D03*
D20*
X42620000Y-131375000D03*
X42620000Y-129825000D03*
D25*
X74782500Y-118840000D03*
X76657500Y-118840000D03*
D26*
X33730000Y-128035000D03*
X33730000Y-129685000D03*
D27*
X37887500Y-93130000D03*
X36012500Y-93130000D03*
D26*
X33730000Y-92315000D03*
X33730000Y-93965000D03*
D28*
X65754873Y-94855025D03*
X65401320Y-94501472D03*
X65047767Y-94147918D03*
X64694213Y-93794365D03*
X64340660Y-93440812D03*
X63987107Y-93087258D03*
X63633553Y-92733705D03*
X63280000Y-92380152D03*
D29*
X62290050Y-92380152D03*
X61936497Y-92733705D03*
X61582943Y-93087258D03*
X61229390Y-93440812D03*
X60875837Y-93794365D03*
X60522283Y-94147918D03*
X60168730Y-94501472D03*
X59815177Y-94855025D03*
D28*
X59815177Y-95844975D03*
X60168730Y-96198528D03*
X60522283Y-96552082D03*
X60875837Y-96905635D03*
X61229390Y-97259188D03*
X61582943Y-97612742D03*
X61936497Y-97966295D03*
X62290050Y-98319848D03*
D29*
X63280000Y-98319848D03*
X63633553Y-97966295D03*
X63987107Y-97612742D03*
X64340660Y-97259188D03*
X64694213Y-96905635D03*
X65047767Y-96552082D03*
X65401320Y-96198528D03*
X65754873Y-95844975D03*
D30*
X62785025Y-95350000D03*
D19*
X75085000Y-116960000D03*
X76735000Y-116960000D03*
X74755000Y-104650000D03*
X76405000Y-104650000D03*
D20*
X60990000Y-91175000D03*
X60990000Y-89625000D03*
D31*
X66700000Y-98355000D03*
X66700000Y-99905000D03*
X68230000Y-98355000D03*
X68230000Y-99905000D03*
D32*
X72650000Y-89005000D03*
X72650000Y-90655000D03*
D33*
X76170000Y-93950000D03*
X76170000Y-100250000D03*
X72370000Y-93950000D03*
X72370000Y-100250000D03*
D34*
X56345000Y-107800000D03*
X56345000Y-107400000D03*
X56345000Y-107000000D03*
X56345000Y-106600000D03*
X56345000Y-106200000D03*
D35*
X55950000Y-105605000D03*
X55550000Y-105605000D03*
X55150000Y-105605000D03*
X54750000Y-105605000D03*
D34*
X54355000Y-106200000D03*
X54355000Y-106600000D03*
X54355000Y-107000000D03*
X54355000Y-107400000D03*
X54355000Y-107800000D03*
D35*
X54750000Y-108395000D03*
X55150000Y-108395000D03*
X55550000Y-108395000D03*
X55950000Y-108395000D03*
D36*
X55350000Y-107000000D03*
D37*
X70200000Y-89100000D03*
D38*
X70200000Y-90370000D03*
X68930000Y-89100000D03*
X68930000Y-90370000D03*
X67660000Y-89100000D03*
X67660000Y-90370000D03*
X66390000Y-89100000D03*
X66390000Y-90370000D03*
X65120000Y-89100000D03*
X65120000Y-90370000D03*
D15*
X52385000Y-89860000D03*
X50735000Y-89860000D03*
X49275000Y-89860000D03*
X47625000Y-89860000D03*
D39*
X58043363Y-97593363D03*
X56876637Y-96426637D03*
D40*
X63346100Y-102900000D03*
D41*
X63396900Y-102500000D03*
D42*
X63199999Y-101839900D03*
X62800000Y-101839900D03*
X62400001Y-101839900D03*
D41*
X62203100Y-102500000D03*
X62203100Y-102900000D03*
D42*
X62400001Y-103560100D03*
X62800000Y-103560100D03*
X63199999Y-103560100D03*
D40*
X62253900Y-119000000D03*
D41*
X62203100Y-119400000D03*
D42*
X62400001Y-120060100D03*
X62800000Y-120060100D03*
X63199999Y-120060100D03*
D41*
X63396900Y-119400000D03*
X63396900Y-119000000D03*
D42*
X63199999Y-118339900D03*
X62800000Y-118339900D03*
X62400001Y-118339900D03*
D43*
X76345000Y-102670000D03*
X74795000Y-102670000D03*
D44*
X40050000Y-108730000D03*
X37950000Y-108730000D03*
X40050000Y-113310000D03*
X37950000Y-113310000D03*
D45*
X71190000Y-122330000D03*
X71190000Y-124430000D03*
D34*
X56345000Y-115800000D03*
X56345000Y-115400000D03*
X56345000Y-115000000D03*
X56345000Y-114600000D03*
X56345000Y-114200000D03*
D35*
X55950000Y-113605000D03*
X55550000Y-113605000D03*
X55150000Y-113605000D03*
X54750000Y-113605000D03*
D34*
X54355000Y-114200000D03*
X54355000Y-114600000D03*
X54355000Y-115000000D03*
X54355000Y-115400000D03*
X54355000Y-115800000D03*
D35*
X54750000Y-116395000D03*
X55150000Y-116395000D03*
X55550000Y-116395000D03*
X55950000Y-116395000D03*
D36*
X55350000Y-115000000D03*
D46*
X50720000Y-129175000D03*
X50720000Y-132125000D03*
X40430000Y-129145000D03*
X40430000Y-132095000D03*
D27*
X37887500Y-128870000D03*
X36012500Y-128870000D03*
D47*
X59020000Y-132195000D03*
X59020000Y-129245000D03*
D48*
X56420000Y-129290000D03*
D49*
X54920000Y-129377500D03*
D48*
X53420000Y-129290000D03*
D47*
X61420000Y-132185000D03*
X61420000Y-129235000D03*
D50*
X39647500Y-106780000D03*
X38072500Y-106780000D03*
X39647500Y-115260000D03*
X38072500Y-115260000D03*
D51*
X71120000Y-119947500D03*
X71120000Y-118372500D03*
D52*
X66250000Y-122910000D03*
X65230000Y-122910000D03*
D53*
X56010000Y-91080000D03*
X56010000Y-89680000D03*
D54*
X68250000Y-125540000D03*
X68250000Y-126560000D03*
X64250000Y-126560000D03*
X64250000Y-125540000D03*
X61250000Y-126560000D03*
X61250000Y-125540000D03*
D55*
X67050000Y-123900000D03*
X66600000Y-123900000D03*
D56*
X66825000Y-124600000D03*
X68100000Y-124600000D03*
D55*
X67875000Y-123900000D03*
X68325000Y-123900000D03*
D54*
X66250000Y-126560000D03*
X66250000Y-125540000D03*
D55*
X62900000Y-123900000D03*
X62450000Y-123900000D03*
D56*
X62675000Y-124600000D03*
D55*
X61625000Y-123900000D03*
X61175000Y-123900000D03*
D56*
X61400000Y-124600000D03*
D54*
X63250000Y-126560000D03*
X63250000Y-125540000D03*
X62250000Y-126560000D03*
X62250000Y-125540000D03*
D53*
X54370000Y-89670000D03*
X54370000Y-91070000D03*
D55*
X63900000Y-124600000D03*
X64350000Y-124600000D03*
D56*
X64125000Y-123900000D03*
D54*
X67250000Y-126560000D03*
X67250000Y-125540000D03*
D57*
X63280000Y-122910000D03*
X64300000Y-122910000D03*
D53*
X57610000Y-89670000D03*
X57610000Y-91070000D03*
D57*
X68250000Y-122910000D03*
X67230000Y-122910000D03*
D55*
X65175000Y-124600000D03*
X65625000Y-124600000D03*
D56*
X65400000Y-123900000D03*
D52*
X62260000Y-122910000D03*
X61240000Y-122910000D03*
D54*
X65250000Y-126560000D03*
X65250000Y-125540000D03*
D58*
X67720000Y-120600000D03*
X57870000Y-126860000D03*
X60330000Y-125500000D03*
X42370000Y-128010000D03*
X52150000Y-132430000D03*
X69220000Y-105570000D03*
X65230000Y-114440000D03*
X65240000Y-116310000D03*
X64680000Y-116000000D03*
X64680000Y-114760000D03*
X65790000Y-116010000D03*
X65790000Y-114750000D03*
X44180000Y-115930000D03*
X47900000Y-120760000D03*
X52740000Y-125670000D03*
X48640000Y-122890000D03*
X44580000Y-118840000D03*
X48310000Y-99290000D03*
X49390000Y-100710000D03*
X48360000Y-100690000D03*
X49330000Y-99290000D03*
X43840000Y-121280000D03*
X48510000Y-109840000D03*
X55810000Y-102870000D03*
X55550000Y-99260000D03*
X46620000Y-95610000D03*
X35130000Y-115020000D03*
X70770000Y-104230000D03*
X50990000Y-90720000D03*
X43770000Y-89890000D03*
X43840000Y-92574500D03*
X46740000Y-92574500D03*
X49940000Y-92574500D03*
X52499833Y-93160167D03*
X52840000Y-89300000D03*
X49720000Y-89320000D03*
X47960000Y-91180000D03*
X56440000Y-90520000D03*
X60755680Y-92354481D03*
X60340691Y-92761388D03*
X75670000Y-119470000D03*
X76730000Y-122520000D03*
X74210000Y-124530000D03*
X35640000Y-114830000D03*
X34940000Y-123350000D03*
X35000000Y-119890000D03*
X37300000Y-131730000D03*
X48670000Y-128300000D03*
X72360000Y-125650000D03*
X71300000Y-129670000D03*
X64330000Y-128910000D03*
X68820000Y-116180000D03*
X68670000Y-109660000D03*
X68640000Y-112310000D03*
X52350000Y-123200000D03*
X39750000Y-99750000D03*
X55290000Y-126380000D03*
X60510000Y-122380000D03*
X67120000Y-119300000D03*
X68200000Y-91720000D03*
X65750000Y-111590000D03*
X64289500Y-92070000D03*
X59725497Y-124525437D03*
X55587845Y-123997845D03*
X63750000Y-118090000D03*
X64240000Y-98570000D03*
X61180000Y-118270000D03*
X64260000Y-102680000D03*
X57540142Y-95717117D03*
X61340000Y-102340000D03*
X32585000Y-109835000D03*
X64010000Y-119000000D03*
X55562000Y-109406584D03*
X55740000Y-117258000D03*
X56190000Y-120020000D03*
X54421794Y-127101794D03*
X61824949Y-91915051D03*
X65792845Y-97297157D03*
X62939000Y-106300000D03*
X62660000Y-105720000D03*
X63192599Y-109780479D03*
X63618279Y-109354799D03*
X61880000Y-101740000D03*
X62860000Y-101060000D03*
X48850000Y-99699000D03*
X48850000Y-100301000D03*
X44376803Y-121699000D03*
X44376803Y-122301000D03*
X65240000Y-115651000D03*
X65240000Y-115049000D03*
X59468888Y-115299000D03*
X59468888Y-115901000D03*
X61665808Y-110830988D03*
X61240128Y-111256668D03*
X58602071Y-106701000D03*
X58602071Y-106099000D03*
X52925293Y-120890387D03*
X52499613Y-120464707D03*
X53040000Y-112340000D03*
X53040000Y-111738000D03*
X52270000Y-114980000D03*
X51710000Y-114670000D03*
X51720000Y-116540000D03*
X51160000Y-116230000D03*
X51160000Y-114990000D03*
X52270000Y-116240000D03*
X51690000Y-115901000D03*
X51690000Y-115299000D03*
X48569379Y-115726301D03*
X48143699Y-115300621D03*
X55320000Y-115500000D03*
X55330000Y-114480000D03*
X53570000Y-115000000D03*
X55410000Y-107510000D03*
X43700000Y-132270000D03*
X55430000Y-106560000D03*
X48660000Y-106020000D03*
X47880000Y-105250000D03*
X49370000Y-104520000D03*
X47540000Y-115460000D03*
X49040000Y-116180000D03*
X49200000Y-115580000D03*
X47700000Y-114870000D03*
X48430000Y-116360000D03*
X48300000Y-114690000D03*
X52770000Y-121500000D03*
X52640000Y-119830000D03*
X51880000Y-120600000D03*
X53540000Y-120720000D03*
X53380000Y-121320000D03*
X52040000Y-120010000D03*
X58050000Y-105780000D03*
X58120000Y-107100000D03*
X58960000Y-107220000D03*
X58600000Y-105460000D03*
X59160000Y-105770000D03*
X58990000Y-114870000D03*
X60010000Y-116240000D03*
X59460000Y-116540000D03*
X59750000Y-114740000D03*
X58900000Y-116230000D03*
X64080000Y-108960000D03*
X44860000Y-121280000D03*
X52880000Y-108230000D03*
X51770000Y-106980000D03*
X51770000Y-108220000D03*
X52330000Y-108530000D03*
X52320000Y-106660000D03*
X52880000Y-106970000D03*
X57940000Y-100440000D03*
X53040000Y-111110000D03*
X67460000Y-99890000D03*
X63140000Y-110450000D03*
X42660000Y-95640000D03*
X63910000Y-105660000D03*
X62540000Y-109700000D03*
X53600000Y-111420000D03*
X62280000Y-110750000D03*
X40340000Y-95850000D03*
X50850000Y-108770000D03*
X61520000Y-100760000D03*
X40410000Y-117700000D03*
X47890000Y-102240000D03*
X63828911Y-102188911D03*
X59770000Y-109220000D03*
X61330000Y-92340000D03*
X62190000Y-105280000D03*
X49550000Y-105120000D03*
X60150000Y-89530000D03*
X43290000Y-126250000D03*
X43950000Y-98810000D03*
X43090000Y-110480000D03*
X61290000Y-119420000D03*
X32470000Y-105460000D03*
X66770000Y-104770000D03*
X59350000Y-112240000D03*
X53050000Y-112980000D03*
X32990000Y-115880000D03*
X47090000Y-98510000D03*
X43890000Y-122680000D03*
X45530000Y-90040000D03*
X58480000Y-103210000D03*
X64701851Y-124369281D03*
X48790000Y-126320000D03*
X65040000Y-121220000D03*
X56470000Y-127790000D03*
X45160000Y-101230000D03*
X38880000Y-127970500D03*
X41750000Y-133080000D03*
X58100000Y-110440000D03*
X60600000Y-111150000D03*
X53200000Y-97110000D03*
X45790000Y-108190000D03*
X40770000Y-126430000D03*
X36580000Y-111030000D03*
X36150000Y-109634990D03*
X60870000Y-124032000D03*
X74735500Y-103630000D03*
X56600000Y-116660000D03*
X67638667Y-123963333D03*
X61370000Y-111910000D03*
X50410000Y-95560000D03*
X44920000Y-122700000D03*
X62140167Y-123866500D03*
X62160000Y-106360000D03*
X45480000Y-113490000D03*
X36370000Y-105299990D03*
X52780000Y-104010000D03*
X62510000Y-99050000D03*
X33100000Y-106160000D03*
X52490000Y-112670000D03*
X35350000Y-116480000D03*
X59750000Y-101440000D03*
X39360000Y-93790000D03*
X60780000Y-111750000D03*
X52490000Y-111430000D03*
X48780000Y-104360000D03*
X69540000Y-106840000D03*
X66089066Y-124184767D03*
X50230000Y-103220000D03*
X49150000Y-118210000D03*
X56120000Y-109060000D03*
X60330000Y-104560000D03*
X44390000Y-105460000D03*
X53600000Y-112680000D03*
X48060000Y-105860000D03*
X65150000Y-98070000D03*
X57659978Y-122522121D03*
X61670000Y-110230000D03*
X40400000Y-104120000D03*
X52040000Y-101730000D03*
X50839979Y-133580021D03*
X59120000Y-99020000D03*
X53520000Y-128190000D03*
X57110000Y-126000000D03*
X41140000Y-108100000D03*
X41140000Y-107300000D03*
X41140000Y-106500000D03*
X41140000Y-105800000D03*
X40810000Y-114400000D03*
X40810000Y-116100000D03*
X40810000Y-114960000D03*
X40810000Y-115540000D03*
X71400000Y-117000000D03*
X70820000Y-117000000D03*
X71960000Y-117000000D03*
X70260000Y-117000000D03*
X57894355Y-125959225D03*
X42520000Y-99275000D03*
X63950623Y-119740589D03*
X42610000Y-100770000D03*
X54761044Y-122061044D03*
X58260000Y-122470000D03*
X63738000Y-126560000D03*
X61798500Y-120691500D03*
X57089500Y-122590000D03*
X55940000Y-123010000D03*
X42910000Y-120630000D03*
X65752000Y-126560000D03*
X53263199Y-122923199D03*
X63490000Y-120400000D03*
X40990000Y-122900000D03*
X55310000Y-124560000D03*
X67750000Y-126570000D03*
X60677155Y-120392845D03*
X66705500Y-118030000D03*
X55870000Y-125260000D03*
X59369500Y-123380000D03*
X63460000Y-123450000D03*
X70341801Y-111308199D03*
X67580000Y-110300000D03*
X65806500Y-118620000D03*
X65890000Y-121750000D03*
X59280167Y-125389833D03*
X66860000Y-111820000D03*
X34710000Y-108070000D03*
X34260000Y-108410000D03*
X35130000Y-108410000D03*
X76170000Y-126000000D03*
X65840000Y-93800000D03*
X64709819Y-92461644D03*
X61884994Y-99200405D03*
X61550000Y-99680000D03*
X39605599Y-122386857D03*
X59220000Y-94155500D03*
X35680000Y-105240000D03*
X35832168Y-112065000D03*
X58770000Y-94580000D03*
X65124714Y-92859029D03*
X48933150Y-104986249D03*
X52330363Y-107299000D03*
X52330363Y-107901000D03*
X48507470Y-105411929D03*
X56566667Y-99856095D03*
X55550000Y-111500000D03*
X38970000Y-91880000D03*
X58901558Y-96381892D03*
X65520000Y-93310000D03*
X75954500Y-116600000D03*
X58760000Y-95640000D03*
X33800000Y-127179500D03*
X37030000Y-107540000D03*
X36950000Y-106370000D03*
X40780000Y-89850000D03*
X34710000Y-107370000D03*
X34260000Y-107030000D03*
X36580000Y-106970000D03*
X35130000Y-107030000D03*
X36960000Y-113810000D03*
X36940000Y-114550000D03*
X34700000Y-114000000D03*
X39764050Y-90255000D03*
X34250000Y-113640000D03*
X36780000Y-113150000D03*
X35140000Y-113640000D03*
X34700000Y-114700000D03*
X36120000Y-115150000D03*
X70820000Y-120730000D03*
X34280000Y-115010000D03*
X71970000Y-120720000D03*
X70270000Y-120730000D03*
X71390000Y-120720000D03*
X66606758Y-95894102D03*
X71900000Y-91530000D03*
X66656994Y-95312671D03*
X39150000Y-129500000D03*
X71190000Y-126180000D03*
X40840000Y-110920000D03*
X55508199Y-110821801D03*
X57140000Y-99900000D03*
X66750000Y-125402000D03*
X57640000Y-91690000D03*
X60155081Y-93305081D03*
X63120000Y-92070000D03*
X62040000Y-125102000D03*
X54890000Y-91780000D03*
X64739657Y-125028271D03*
X67930000Y-122290000D03*
X60700498Y-124582000D03*
X59620000Y-93730000D03*
D59*
X66705500Y-118030000D02*
X65955500Y-117280000D01*
X65955500Y-117280000D02*
X62740000Y-117280000D01*
X62740000Y-117280000D02*
X62400001Y-117619999D01*
X62400001Y-117619999D02*
X62400001Y-118399900D01*
X65806500Y-118620000D02*
X64826500Y-117640000D01*
X64826500Y-117640000D02*
X62930999Y-117640000D01*
X62930999Y-117640000D02*
X62810000Y-117760999D01*
X62810000Y-117760999D02*
X62810000Y-117920000D01*
D60*
X68250000Y-122610000D02*
X68250000Y-122910000D01*
X67930000Y-122290000D02*
X68250000Y-122610000D01*
D59*
X67580000Y-110300000D02*
X67630000Y-110250000D01*
X67630000Y-110250000D02*
X69760000Y-110250000D01*
D61*
X53180684Y-113553500D02*
X50109316Y-113553500D01*
X50109316Y-113553500D02*
X48362196Y-115300621D01*
X53880684Y-114253500D02*
X53180684Y-113553500D01*
X48362196Y-115300621D02*
X48143699Y-115300621D01*
X54046500Y-114253500D02*
X53880684Y-114253500D01*
X54100000Y-114200000D02*
X54046500Y-114253500D01*
X54355000Y-114200000D02*
X54100000Y-114200000D01*
D62*
X54890000Y-91780000D02*
X54370000Y-91260000D01*
X54370000Y-91260000D02*
X54370000Y-91070000D01*
X59390000Y-89605000D02*
X59315000Y-89680000D01*
X59315000Y-89680000D02*
X54380000Y-89680000D01*
X54380000Y-89680000D02*
X54370000Y-89670000D01*
D60*
X56010000Y-90950000D02*
X56010000Y-91080000D01*
X56440000Y-90520000D02*
X56010000Y-90950000D01*
D62*
X57640000Y-91690000D02*
X57610000Y-91660000D01*
X57610000Y-91660000D02*
X57610000Y-91070000D01*
D63*
X60150000Y-89530000D02*
X59465000Y-89530000D01*
X60895000Y-89530000D02*
X60990000Y-89625000D01*
X59465000Y-89530000D02*
X59390000Y-89605000D01*
X60150000Y-89530000D02*
X60895000Y-89530000D01*
X61824949Y-91915051D02*
X61064898Y-91155000D01*
X61064898Y-91155000D02*
X59390000Y-91155000D01*
D62*
X60990000Y-89625000D02*
X60880000Y-89625000D01*
X63460000Y-123450000D02*
X63460000Y-123090000D01*
X63460000Y-123090000D02*
X63280000Y-122910000D01*
X71900000Y-91530000D02*
X72650000Y-90780000D01*
X72650000Y-90780000D02*
X72650000Y-90655000D01*
D60*
X60457500Y-124339002D02*
X60457500Y-123692500D01*
X60700498Y-124582000D02*
X60457500Y-124339002D01*
X60457500Y-123692500D02*
X61240000Y-122910000D01*
D62*
X66250000Y-122110000D02*
X66250000Y-122910000D01*
X65890000Y-121750000D02*
X66250000Y-122110000D01*
D60*
X57874000Y-125200000D02*
X57874000Y-125944000D01*
X57874000Y-125944000D02*
X58490000Y-126560000D01*
X58490000Y-126560000D02*
X61250000Y-126560000D01*
D62*
X76170000Y-93950000D02*
X76170000Y-92270000D01*
X76170000Y-92270000D02*
X72900000Y-89000000D01*
X72900000Y-89000000D02*
X70300000Y-89000000D01*
X70300000Y-89000000D02*
X70200000Y-89100000D01*
X72370000Y-100250000D02*
X73380000Y-99240000D01*
X73380000Y-99240000D02*
X73380000Y-94960000D01*
X73380000Y-94960000D02*
X72370000Y-93950000D01*
X76170000Y-93950000D02*
X75270000Y-94850000D01*
X75270000Y-94850000D02*
X75270000Y-99350000D01*
X75270000Y-99350000D02*
X76170000Y-100250000D01*
X65754975Y-94855025D02*
X66640000Y-93970000D01*
X66640000Y-93970000D02*
X72350000Y-93970000D01*
X72350000Y-93970000D02*
X72370000Y-93950000D01*
D60*
X63120000Y-92070000D02*
X63280000Y-92230000D01*
X63280000Y-92230000D02*
X63280000Y-92380152D01*
D62*
X64709819Y-92461644D02*
X64612721Y-92461644D01*
X64612721Y-92461644D02*
X63987107Y-93087258D01*
X65124714Y-92859029D02*
X64922443Y-92859029D01*
X64922443Y-92859029D02*
X64340660Y-93440812D01*
X65840000Y-93800000D02*
X65830000Y-93810000D01*
X65830000Y-93810000D02*
X65385685Y-93810000D01*
X65385685Y-93810000D02*
X65047767Y-94147918D01*
X65520000Y-93310000D02*
X65178578Y-93310000D01*
X65178578Y-93310000D02*
X64694213Y-93794365D01*
X64037258Y-92330000D02*
X63633553Y-92733705D01*
X64289500Y-92070000D02*
X64037258Y-92322242D01*
X64037258Y-92322242D02*
X64037258Y-92330000D01*
X66676901Y-96425000D02*
X65627792Y-96425000D01*
X66656994Y-95312671D02*
X67031758Y-95687435D01*
X67031758Y-96070143D02*
X66676901Y-96425000D01*
X67031758Y-95687435D02*
X67031758Y-96070143D01*
X65627792Y-96425000D02*
X65401320Y-96198528D01*
X66606758Y-95894102D02*
X66350860Y-96150000D01*
X66350860Y-96150000D02*
X66060000Y-96150000D01*
X66060000Y-96150000D02*
X65754975Y-95844975D01*
X65754975Y-95844975D02*
X65754873Y-95844975D01*
X50990000Y-90720000D02*
X50735000Y-90465000D01*
X50735000Y-90465000D02*
X50735000Y-89860000D01*
X50755000Y-92490000D02*
X50755000Y-92945000D01*
X50755000Y-92945000D02*
X50390000Y-93310000D01*
X50390000Y-93310000D02*
X42245000Y-93310000D01*
X42245000Y-93310000D02*
X41435000Y-92500000D01*
D59*
X49940000Y-92574500D02*
X49354500Y-92574500D01*
X49354500Y-92574500D02*
X49270000Y-92490000D01*
X46740000Y-92574500D02*
X46239500Y-92574500D01*
X46239500Y-92574500D02*
X46175000Y-92510000D01*
D62*
X40780000Y-89850000D02*
X41307500Y-89850000D01*
X41307500Y-89850000D02*
X41327500Y-89830000D01*
X56876637Y-96380622D02*
X56876637Y-96426637D01*
X57540142Y-95717117D02*
X56876637Y-96380622D01*
D60*
X58043363Y-97593363D02*
X58083363Y-97593363D01*
X58083363Y-97593363D02*
X58450000Y-97960000D01*
D62*
X43770000Y-89890000D02*
X44535000Y-89890000D01*
X43085000Y-89890000D02*
X43770000Y-89890000D01*
X41435000Y-89890000D02*
X41435000Y-90095000D01*
X41435000Y-90095000D02*
X42620000Y-91280000D01*
X42620000Y-91280000D02*
X46410000Y-91280000D01*
X46410000Y-91280000D02*
X47620000Y-92490000D01*
D59*
X44525000Y-92510000D02*
X43095000Y-92510000D01*
X43095000Y-92510000D02*
X43085000Y-92500000D01*
X52405000Y-93065334D02*
X52499833Y-93160167D01*
X52405000Y-92490000D02*
X52405000Y-93065334D01*
X52385000Y-89755000D02*
X52840000Y-89300000D01*
X52385000Y-89860000D02*
X52385000Y-89755000D01*
X49275000Y-89765000D02*
X49720000Y-89320000D01*
X49275000Y-89860000D02*
X49275000Y-89765000D01*
D62*
X47960000Y-91180000D02*
X47625000Y-90845000D01*
X47625000Y-90845000D02*
X47625000Y-89860000D01*
X60168730Y-94498730D02*
X60168730Y-94501472D01*
X59825500Y-94155500D02*
X60168730Y-94498730D01*
X59220000Y-94155500D02*
X59825500Y-94155500D01*
X59540152Y-94580000D02*
X59815177Y-94855025D01*
X58770000Y-94580000D02*
X59540152Y-94580000D01*
X45530000Y-90040000D02*
X45680000Y-89890000D01*
X45680000Y-89890000D02*
X46185000Y-89890000D01*
X39764050Y-90255000D02*
X41405000Y-91895950D01*
X41405000Y-91895950D02*
X41405000Y-92745000D01*
X60755680Y-92354481D02*
X60755680Y-92402077D01*
X60755680Y-92402077D02*
X61143603Y-92790000D01*
X61143603Y-92790000D02*
X61285685Y-92790000D01*
X61285685Y-92790000D02*
X61582943Y-93087258D01*
X61229390Y-93440812D02*
X60549966Y-92761388D01*
X60549966Y-92761388D02*
X60340691Y-92761388D01*
X60155081Y-93305081D02*
X60386553Y-93305081D01*
X60386553Y-93305081D02*
X60875837Y-93794365D01*
X59620000Y-93730000D02*
X60104365Y-93730000D01*
X60104365Y-93730000D02*
X60522283Y-94147918D01*
D59*
X61330000Y-92340000D02*
X61542792Y-92340000D01*
X61542792Y-92340000D02*
X61936497Y-92733705D01*
X66178578Y-98390000D02*
X68195000Y-98390000D01*
X64694213Y-96905635D02*
X66178578Y-98390000D01*
X68215000Y-99890000D02*
X68230000Y-99905000D01*
X68195000Y-98390000D02*
X68230000Y-98355000D01*
X66700000Y-99905000D02*
X66715000Y-99890000D01*
X66715000Y-99890000D02*
X68215000Y-99890000D01*
D62*
X64260000Y-102680000D02*
X64260000Y-99299848D01*
X64260000Y-99299848D02*
X63280000Y-98319848D01*
X63346100Y-102900000D02*
X64040000Y-102900000D01*
X64040000Y-102900000D02*
X64260000Y-102680000D01*
D61*
X63199999Y-101350001D02*
X63199999Y-101899900D01*
X63390000Y-101160000D02*
X63199999Y-101350001D01*
X63390000Y-100705411D02*
X63390000Y-101160000D01*
X61884994Y-99200405D02*
X63390000Y-100705411D01*
D62*
X63828911Y-102188911D02*
X63517822Y-102500000D01*
X63517822Y-102500000D02*
X63396900Y-102500000D01*
X62400001Y-103500100D02*
X61580100Y-103500100D01*
X61580100Y-103500100D02*
X60800000Y-102720000D01*
X60800000Y-102720000D02*
X60800000Y-97688578D01*
X60800000Y-97688578D02*
X61229390Y-97259188D01*
D59*
X61340000Y-102340000D02*
X61340000Y-102605800D01*
X61634200Y-102900000D02*
X62203100Y-102900000D01*
X61340000Y-102605800D02*
X61634200Y-102900000D01*
X60677155Y-120392845D02*
X61010000Y-120060000D01*
X61010000Y-120060000D02*
X62399901Y-120060000D01*
X62399901Y-120060000D02*
X62400001Y-120060100D01*
X62800000Y-120590000D02*
X62800000Y-120060100D01*
X62698500Y-120691500D02*
X62800000Y-120590000D01*
X61798500Y-120691500D02*
X62698500Y-120691500D01*
X64010000Y-119000000D02*
X63396900Y-119000000D01*
D62*
X61180000Y-118270000D02*
X61180000Y-118660000D01*
X61180000Y-118660000D02*
X61520000Y-119000000D01*
X61520000Y-119000000D02*
X62253900Y-119000000D01*
D59*
X75040000Y-118840000D02*
X75670000Y-119470000D01*
X74782500Y-118840000D02*
X75040000Y-118840000D01*
X71190000Y-122330000D02*
X71200000Y-122320000D01*
X74605000Y-122230000D02*
X75390000Y-123015000D01*
X75390000Y-126070000D02*
X74660000Y-126800000D01*
X75390000Y-123015000D02*
X75390000Y-126070000D01*
X71200000Y-122320000D02*
X74515000Y-122320000D01*
X76545000Y-122520000D02*
X76730000Y-122520000D01*
X74515000Y-122320000D02*
X74605000Y-122230000D01*
X76255000Y-122230000D02*
X76545000Y-122520000D01*
X71190000Y-126180000D02*
X71190000Y-124430000D01*
D62*
X76170000Y-126000000D02*
X76170000Y-126760000D01*
X76170000Y-126000000D02*
X76170000Y-125250000D01*
X76170000Y-125250000D02*
X76200000Y-125220000D01*
D59*
X74550000Y-124870000D02*
X74210000Y-124530000D01*
X71190000Y-120920000D02*
X71190000Y-122330000D01*
X71930000Y-120587500D02*
X71522500Y-120587500D01*
X71522500Y-120587500D02*
X71190000Y-120920000D01*
D62*
X75954500Y-116600000D02*
X75594500Y-116960000D01*
X75594500Y-116960000D02*
X75085000Y-116960000D01*
D59*
X76735000Y-116960000D02*
X76735000Y-118762500D01*
X76735000Y-118762500D02*
X76657500Y-118840000D01*
D63*
X35480000Y-114900000D02*
X35660000Y-115080000D01*
D64*
X71110000Y-118272875D02*
X71110000Y-117507125D01*
D65*
X74735500Y-103630000D02*
X74735500Y-104630500D01*
X74735500Y-104630500D02*
X74755000Y-104650000D01*
X74735500Y-103630000D02*
X74740000Y-103634500D01*
X74740000Y-103634500D02*
X74740000Y-102790000D01*
D59*
X57110000Y-126000000D02*
X57274000Y-126000000D01*
X57274000Y-126000000D02*
X57474000Y-125800000D01*
X57474000Y-125800000D02*
X57474000Y-125200000D01*
X53520000Y-128190000D02*
X53520000Y-129190000D01*
X53520000Y-129190000D02*
X53420000Y-129290000D01*
D61*
X62660000Y-105720000D02*
X62800000Y-105580000D01*
X62800000Y-105580000D02*
X62800000Y-103560100D01*
D59*
X42610000Y-100770000D02*
X42590000Y-100750000D01*
X42590000Y-100750000D02*
X40240000Y-100750000D01*
X42520000Y-99275000D02*
X42495000Y-99250000D01*
X42495000Y-99250000D02*
X40240000Y-99250000D01*
X59369500Y-123380000D02*
X59049500Y-123700000D01*
X59049500Y-123700000D02*
X58974000Y-123700000D01*
X55870000Y-125260000D02*
X56014000Y-125260000D01*
X56014000Y-125260000D02*
X56374000Y-124900000D01*
X55940000Y-124500000D02*
X56374000Y-124500000D01*
X55880000Y-124560000D02*
X55940000Y-124500000D01*
X55310000Y-124560000D02*
X55880000Y-124560000D01*
X54761044Y-122061044D02*
X54772121Y-122072121D01*
X54772121Y-122072121D02*
X57862121Y-122072121D01*
X57862121Y-122072121D02*
X58260000Y-122470000D01*
X58260000Y-122470000D02*
X59380000Y-122470000D01*
X59380000Y-122470000D02*
X59850000Y-122940000D01*
X59850000Y-122940000D02*
X59850000Y-123830397D01*
X59850000Y-123830397D02*
X59580397Y-124100000D01*
X59580397Y-124100000D02*
X58974000Y-124100000D01*
X57659978Y-122522121D02*
X57659978Y-122585978D01*
X57659978Y-122585978D02*
X57874000Y-122800000D01*
X57874000Y-122800000D02*
X57874000Y-123400000D01*
X57474000Y-122974500D02*
X57474000Y-123400000D01*
X57089500Y-122590000D02*
X57474000Y-122974500D01*
X57089500Y-122590000D02*
X56360000Y-122590000D01*
X56360000Y-122590000D02*
X55940000Y-123010000D01*
X59280167Y-125389833D02*
X58463833Y-125389833D01*
X58463833Y-125389833D02*
X58274000Y-125200000D01*
D65*
X50720000Y-129175000D02*
X49675000Y-129175000D01*
X49675000Y-129175000D02*
X49312500Y-129537500D01*
X49312500Y-129537500D02*
X48610000Y-129537500D01*
X50720000Y-129175000D02*
X50845000Y-129300000D01*
X50845000Y-129300000D02*
X53410000Y-129300000D01*
X53410000Y-129300000D02*
X53420000Y-129290000D01*
X39150000Y-129500000D02*
X39505000Y-129145000D01*
X39505000Y-129145000D02*
X40430000Y-129145000D01*
X42820000Y-128910000D02*
X40650000Y-128910000D01*
X40650000Y-128910000D02*
X40470000Y-129090000D01*
X42820000Y-128910000D02*
X44340000Y-128910000D01*
X44340000Y-128910000D02*
X44660000Y-129230000D01*
D61*
X69760000Y-110750000D02*
X69234999Y-110750000D01*
X69234999Y-110750000D02*
X69131499Y-110853500D01*
X69131499Y-110853500D02*
X64898483Y-110853500D01*
X63921804Y-109876821D02*
X63618279Y-109573296D01*
X63618279Y-109573296D02*
X63618279Y-109354799D01*
X64898483Y-110853500D02*
X64487491Y-110442508D01*
X64487491Y-110442508D02*
X64487491Y-110159664D01*
X64487491Y-110159664D02*
X64204648Y-109876821D01*
X64204648Y-109876821D02*
X63921804Y-109876821D01*
X63199999Y-103560100D02*
X63199999Y-106040001D01*
X63199999Y-106040001D02*
X62940000Y-106300000D01*
X62940000Y-106300000D02*
X62939000Y-106300000D01*
X40240000Y-100250000D02*
X39580000Y-100250000D01*
X39580000Y-100250000D02*
X38930000Y-99600000D01*
X39750000Y-99750000D02*
X40240000Y-99750000D01*
X48695501Y-100146501D02*
X48850000Y-100301000D01*
X40868501Y-100146500D02*
X48695501Y-100146501D01*
X40765001Y-100250000D02*
X40868501Y-100146500D01*
X40240000Y-100250000D02*
X40765001Y-100250000D01*
X54750000Y-116395000D02*
X54750000Y-116927501D01*
X53965721Y-119217093D02*
X52718110Y-120464707D01*
X54750000Y-116927501D02*
X54803500Y-116981001D01*
X54803500Y-116981001D02*
X54803500Y-118379316D01*
X54531408Y-118651408D02*
X54248564Y-118651408D01*
X54248564Y-118651408D02*
X53965721Y-118934250D01*
X54803500Y-118379316D02*
X54531408Y-118651408D01*
X53965721Y-118934250D02*
X53965721Y-119217093D01*
X52718110Y-120464707D02*
X52499613Y-120464707D01*
X40868501Y-98146500D02*
X40765001Y-98250000D01*
X41690684Y-98146500D02*
X40868501Y-98146500D01*
X46653500Y-97700703D02*
X46459298Y-97506500D01*
X47059298Y-97700703D02*
X46653500Y-97700703D01*
X47253500Y-97506500D02*
X47059298Y-97700703D01*
X54750000Y-105605000D02*
X54750000Y-105072499D01*
X54803500Y-105018999D02*
X54803500Y-103216500D01*
X54803500Y-103216500D02*
X54603500Y-103016500D01*
X52125721Y-99355749D02*
X52125721Y-99072905D01*
X54750000Y-105072499D02*
X54803500Y-105018999D01*
X54603500Y-102616500D02*
X54803500Y-102416500D01*
X40765001Y-98250000D02*
X40240000Y-98250000D01*
X54803500Y-101750684D02*
X52691408Y-99638592D01*
X52408564Y-99638592D02*
X52125721Y-99355749D01*
X46459298Y-97506500D02*
X42330684Y-97506500D01*
X50559316Y-97506500D02*
X47253500Y-97506500D01*
X54803500Y-102416500D02*
X54803500Y-101750684D01*
X52691408Y-99638592D02*
X52408564Y-99638592D01*
X42330684Y-97506500D02*
X41690684Y-98146500D01*
X54603500Y-103016500D02*
X54603500Y-102616500D01*
X52125721Y-99072905D02*
X50559316Y-97506500D01*
X46260000Y-118237000D02*
X46463500Y-118033500D01*
X46260000Y-118630000D02*
X46260000Y-118237000D01*
X46463500Y-118033500D02*
X46463500Y-113419316D01*
X49909316Y-109973500D02*
X52133500Y-109973500D01*
X46463500Y-118833500D02*
X46260000Y-118630000D01*
X46463500Y-119233500D02*
X46463500Y-118833500D01*
X46280000Y-119417000D02*
X46463500Y-119233500D01*
X46463500Y-120033500D02*
X46280000Y-119850000D01*
X52133500Y-109973500D02*
X52327704Y-109779296D01*
X46463500Y-122359316D02*
X46463500Y-120033500D01*
X44969316Y-123853500D02*
X46463500Y-122359316D01*
X46280000Y-119850000D02*
X46280000Y-119417000D01*
X46463500Y-113419316D02*
X49909316Y-109973500D01*
X40868501Y-123853500D02*
X44969316Y-123853500D01*
X40240000Y-123750000D02*
X40765001Y-123750000D01*
X40765001Y-123750000D02*
X40868501Y-123853500D01*
X54169316Y-109973500D02*
X54803500Y-109339316D01*
X52327704Y-109779296D02*
X52733500Y-109779296D01*
X52733500Y-109779296D02*
X52927704Y-109973500D01*
X52927704Y-109973500D02*
X54169316Y-109973500D01*
X54803500Y-109339316D02*
X54803500Y-108981001D01*
X54803500Y-108981001D02*
X54750000Y-108927501D01*
X54750000Y-108927501D02*
X54750000Y-108395000D01*
X41569316Y-97853500D02*
X40868501Y-97853500D01*
X42209316Y-97213500D02*
X41569316Y-97853500D01*
X40765001Y-97750000D02*
X40240000Y-97750000D01*
X50680684Y-97213500D02*
X42209316Y-97213500D01*
X55096500Y-101629316D02*
X50680684Y-97213500D01*
X55096500Y-105018999D02*
X55096500Y-101629316D01*
X55150000Y-105072499D02*
X55096500Y-105018999D01*
X40868501Y-97853500D02*
X40765001Y-97750000D01*
X55150000Y-105605000D02*
X55150000Y-105072499D01*
D59*
X38880000Y-127970500D02*
X37980500Y-128870000D01*
X37980500Y-128870000D02*
X37887500Y-128870000D01*
X35350000Y-116380000D02*
X35410000Y-116320000D01*
X35350000Y-116480000D02*
X35350000Y-116380000D01*
X33730000Y-127249500D02*
X33730000Y-127947500D01*
X33800000Y-127179500D02*
X33730000Y-127249500D01*
D62*
X59725497Y-124525437D02*
X58999437Y-124525437D01*
X58999437Y-124525437D02*
X58974000Y-124500000D01*
X55587845Y-123997845D02*
X55690000Y-124100000D01*
X55690000Y-124100000D02*
X56374000Y-124100000D01*
X63500100Y-118339900D02*
X63199999Y-118339900D01*
X63750000Y-118090000D02*
X63500100Y-118339900D01*
D59*
X63636295Y-97966295D02*
X64240000Y-98570000D01*
X63633553Y-97966295D02*
X63636295Y-97966295D01*
D62*
X58901558Y-96381892D02*
X59199666Y-96680000D01*
X59199666Y-96680000D02*
X59687258Y-96680000D01*
X59687258Y-96680000D02*
X60168730Y-96198528D01*
X59490152Y-96170000D02*
X59815177Y-95844975D01*
X59290000Y-96170000D02*
X59490152Y-96170000D01*
X58760000Y-95640000D02*
X59290000Y-96170000D01*
D61*
X40240000Y-99750000D02*
X40765001Y-99750000D01*
X40765001Y-99750000D02*
X40868501Y-99853500D01*
X40868501Y-99853500D02*
X48695501Y-99853499D01*
X48695501Y-99853499D02*
X48850000Y-99699000D01*
D62*
X55950000Y-113605000D02*
X55950000Y-111736397D01*
X55950000Y-111736397D02*
X56000000Y-111686397D01*
X56000000Y-111686397D02*
X56000000Y-111313603D01*
X56000000Y-111313603D02*
X55508199Y-110821801D01*
D59*
X34030001Y-112843800D02*
X34030001Y-112089999D01*
X34030001Y-112089999D02*
X34380000Y-111740000D01*
X32490000Y-109740000D02*
X32490000Y-106103998D01*
X34030001Y-105690001D02*
X34030001Y-106223800D01*
X34380000Y-111740000D02*
X34380000Y-110440000D01*
X32850000Y-110100000D02*
X32490000Y-109740000D01*
X34380000Y-110440000D02*
X34040000Y-110100000D01*
X33830000Y-105490000D02*
X34030001Y-105690001D01*
X34040000Y-110100000D02*
X32850000Y-110100000D01*
X32490000Y-106103998D02*
X33103998Y-105490000D01*
X33103998Y-105490000D02*
X33830000Y-105490000D01*
D65*
X56000000Y-131760000D02*
X54920000Y-130680000D01*
D59*
X55550000Y-117068000D02*
X55740000Y-117258000D01*
D65*
X57549998Y-132195000D02*
X57114998Y-131760000D01*
X59020000Y-132195000D02*
X57549998Y-132195000D01*
X59020000Y-132195000D02*
X61410000Y-132195000D01*
D59*
X55550000Y-108395000D02*
X55550000Y-109394584D01*
D63*
X54920000Y-128270000D02*
X54920000Y-129377500D01*
X54421794Y-127101794D02*
X54421794Y-127771794D01*
X54421794Y-127771794D02*
X54920000Y-128270000D01*
D65*
X57114998Y-131760000D02*
X56000000Y-131760000D01*
D59*
X55550000Y-116395000D02*
X55550000Y-117068000D01*
X55550000Y-109394584D02*
X55562000Y-109406584D01*
X65047767Y-96552082D02*
X65792842Y-97297157D01*
D65*
X61410000Y-132195000D02*
X61420000Y-132185000D01*
D59*
X62290050Y-92380152D02*
X61627898Y-91718000D01*
D65*
X54920000Y-130680000D02*
X54920000Y-129377500D01*
D59*
X65792842Y-97297157D02*
X65792845Y-97297157D01*
D61*
X62860000Y-101060000D02*
X62860000Y-101340000D01*
X62860000Y-101340000D02*
X62800000Y-101400000D01*
X62800000Y-101400000D02*
X62800000Y-101839900D01*
X69760000Y-111250000D02*
X70283602Y-111250000D01*
X70283602Y-111250000D02*
X70341801Y-111308199D01*
X69760000Y-110750000D02*
X70420000Y-110750000D01*
X70420000Y-110750000D02*
X71070000Y-111400000D01*
X63411096Y-109780479D02*
X63192599Y-109780479D01*
X69760000Y-111250000D02*
X69234999Y-111250000D01*
X69234999Y-111250000D02*
X69131499Y-111146500D01*
X69131499Y-111146500D02*
X64777117Y-111146500D01*
X64777117Y-111146500D02*
X63411096Y-109780479D01*
D59*
X41405000Y-89820000D02*
X41415000Y-89830000D01*
D61*
X61880000Y-101740000D02*
X61880000Y-102176900D01*
X61880000Y-102176900D02*
X62203100Y-102500000D01*
D59*
X48725000Y-99824000D02*
X48850000Y-99699000D01*
X48725000Y-100176000D02*
X48850000Y-100301000D01*
D66*
X39605599Y-122386857D02*
X39742456Y-122250000D01*
X39742456Y-122250000D02*
X40240000Y-122250000D01*
X40240000Y-121750000D02*
X39567876Y-121750000D01*
X39567876Y-121750000D02*
X38930000Y-122387876D01*
X38930000Y-122387876D02*
X38930000Y-122400000D01*
D61*
X40240000Y-121750000D02*
X40765001Y-121750000D01*
X44222304Y-122146501D02*
X44376803Y-122301000D01*
X40765001Y-121750000D02*
X40868501Y-121853500D01*
X40868501Y-121853500D02*
X44222304Y-121853499D01*
X44222304Y-121853499D02*
X44376803Y-121699000D01*
X40240000Y-122250000D02*
X40765001Y-122250000D01*
X40765001Y-122250000D02*
X40868501Y-122146500D01*
X40868501Y-122146500D02*
X44222304Y-122146501D01*
X56877501Y-114200000D02*
X56931001Y-114253500D01*
X56931001Y-114253500D02*
X57079316Y-114253500D01*
X61160684Y-113493500D02*
X62870684Y-115203500D01*
X56345000Y-114200000D02*
X56877501Y-114200000D01*
X65085501Y-115496501D02*
X65240000Y-115651000D01*
X61039316Y-113786500D02*
X62749316Y-115496500D01*
X57200684Y-114546500D02*
X57960684Y-113786500D01*
X56931001Y-114546500D02*
X57200684Y-114546500D01*
X57079316Y-114253500D02*
X57839316Y-113493500D01*
X62749316Y-115496500D02*
X65085501Y-115496501D01*
X56877501Y-114600000D02*
X56931001Y-114546500D01*
X56345000Y-114600000D02*
X56877501Y-114600000D01*
X65085501Y-115203499D02*
X65240000Y-115049000D01*
X57960684Y-113786500D02*
X61039316Y-113786500D01*
X57839316Y-113493500D02*
X61160684Y-113493500D01*
X62870684Y-115203500D02*
X65085501Y-115203499D01*
X56345000Y-115400000D02*
X56877501Y-115400000D01*
X56931001Y-115453500D02*
X59314389Y-115453499D01*
X56877501Y-115400000D02*
X56931001Y-115453500D01*
X59314389Y-115453499D02*
X59468888Y-115299000D01*
X56345000Y-115800000D02*
X56877501Y-115800000D01*
X56931001Y-115746500D02*
X59314389Y-115746501D01*
X56877501Y-115800000D02*
X56931001Y-115746500D01*
X59314389Y-115746501D02*
X59468888Y-115901000D01*
X67130684Y-107463500D02*
X68520684Y-108853500D01*
X61559316Y-107983500D02*
X62079316Y-107463500D01*
X56345000Y-107400000D02*
X56877501Y-107400000D01*
X57790684Y-107983500D02*
X61559316Y-107983500D01*
X68520684Y-108853500D02*
X69131499Y-108853500D01*
X56877501Y-107800000D02*
X56931001Y-107746500D01*
X69234999Y-109250000D02*
X69760000Y-109250000D01*
X57260684Y-107453500D02*
X57790684Y-107983500D01*
X56931001Y-107453500D02*
X57260684Y-107453500D01*
X62079316Y-107463500D02*
X67130684Y-107463500D01*
X56877501Y-107400000D02*
X56931001Y-107453500D01*
X69131499Y-108853500D02*
X69234999Y-108750000D01*
X69234999Y-108750000D02*
X69760000Y-108750000D01*
X56345000Y-107800000D02*
X56877501Y-107800000D01*
X61680684Y-108276500D02*
X62200684Y-107756500D01*
X56931001Y-107746500D02*
X57139316Y-107746500D01*
X57139316Y-107746500D02*
X57669316Y-108276500D01*
X57669316Y-108276500D02*
X61680684Y-108276500D01*
X68399316Y-109146500D02*
X69131499Y-109146500D01*
X62200684Y-107756500D02*
X67009316Y-107756500D01*
X67009316Y-107756500D02*
X68399316Y-109146500D01*
X69131499Y-109146500D02*
X69234999Y-109250000D01*
X61240128Y-111256668D02*
X61458625Y-111256668D01*
X61458625Y-111256668D02*
X63348457Y-113146500D01*
X63348457Y-113146500D02*
X69131499Y-113146500D01*
X69234999Y-113250000D02*
X69760000Y-113250000D01*
X69131499Y-113146500D02*
X69234999Y-113250000D01*
X61665808Y-110830988D02*
X61665808Y-111049485D01*
X69234999Y-112750000D02*
X69760000Y-112750000D01*
X61665808Y-111049485D02*
X63469823Y-112853500D01*
X63469823Y-112853500D02*
X69131499Y-112853500D01*
X69131499Y-112853500D02*
X69234999Y-112750000D01*
X58447572Y-106546501D02*
X58602071Y-106701000D01*
X56931001Y-106253500D02*
X58447572Y-106253499D01*
X56931001Y-106546500D02*
X58447572Y-106546501D01*
X56345000Y-106600000D02*
X56877501Y-106600000D01*
X56877501Y-106600000D02*
X56931001Y-106546500D01*
X56345000Y-106200000D02*
X56877501Y-106200000D01*
X56877501Y-106200000D02*
X56931001Y-106253500D01*
X58447572Y-106253499D02*
X58602071Y-106099000D01*
X55150000Y-116395000D02*
X55150000Y-116927501D01*
X55150000Y-116927501D02*
X55096500Y-116981001D01*
X52925293Y-120671890D02*
X52925293Y-120890387D01*
X55096500Y-116981001D02*
X55096500Y-118500684D01*
X55096500Y-118500684D02*
X52925293Y-120671890D01*
X54750000Y-113605000D02*
X54750000Y-113350000D01*
X54803500Y-113296500D02*
X54803500Y-113120684D01*
X54750000Y-113350000D02*
X54803500Y-113296500D01*
X53183500Y-112196500D02*
X53040000Y-112340000D01*
X54803500Y-113120684D02*
X53879316Y-112196500D01*
X53879316Y-112196500D02*
X53183500Y-112196500D01*
X55150000Y-113605000D02*
X55150000Y-113350000D01*
X55150000Y-113350000D02*
X55096500Y-113296500D01*
X54000684Y-111903500D02*
X53205500Y-111903500D01*
X55096500Y-113296500D02*
X55096500Y-112999316D01*
X55096500Y-112999316D02*
X54000684Y-111903500D01*
X53205500Y-111903500D02*
X53040000Y-111738000D01*
D59*
X53570000Y-115000000D02*
X54355000Y-115000000D01*
D61*
X51844499Y-115746501D02*
X51690000Y-115901000D01*
X53822499Y-115400000D02*
X53768999Y-115453500D01*
X54355000Y-115800000D02*
X53822499Y-115800000D01*
X53822499Y-115800000D02*
X53768999Y-115746500D01*
X54355000Y-115400000D02*
X53822499Y-115400000D01*
X53768999Y-115746500D02*
X51844499Y-115746501D01*
X53768999Y-115453500D02*
X51844499Y-115453499D01*
X51844499Y-115453499D02*
X51690000Y-115299000D01*
X54046500Y-114546500D02*
X53759316Y-114546500D01*
X54100000Y-114600000D02*
X54046500Y-114546500D01*
X53759316Y-114546500D02*
X53059316Y-113846500D01*
X54355000Y-114600000D02*
X54100000Y-114600000D01*
X53059316Y-113846500D02*
X50230684Y-113846500D01*
X48569379Y-115507804D02*
X48569379Y-115726301D01*
X50230684Y-113846500D02*
X48569379Y-115507804D01*
X50030684Y-110266500D02*
X46756500Y-113540684D01*
X54290684Y-110266500D02*
X50030684Y-110266500D01*
X45090684Y-124146500D02*
X40868501Y-124146500D01*
X55096500Y-109460684D02*
X54290684Y-110266500D01*
X46756500Y-122480684D02*
X45090684Y-124146500D01*
X55150000Y-108927501D02*
X55096500Y-108981001D01*
X46756500Y-113540684D02*
X46756500Y-122480684D01*
X55150000Y-108395000D02*
X55150000Y-108927501D01*
X55096500Y-108981001D02*
X55096500Y-109460684D01*
X40868501Y-124146500D02*
X40765001Y-124250000D01*
X40765001Y-124250000D02*
X40240000Y-124250000D01*
D65*
X42620000Y-131550000D02*
X42620000Y-132230000D01*
X45720000Y-133050000D02*
X48240000Y-133050000D01*
X48240000Y-133050000D02*
X48610000Y-132680000D01*
X45610000Y-131850000D02*
X45610000Y-132940000D01*
X42620000Y-132230000D02*
X43440000Y-133050000D01*
X45610000Y-132750000D02*
X45610000Y-131850000D01*
X45310000Y-133050000D02*
X45720000Y-133050000D01*
X45610000Y-132940000D02*
X45720000Y-133050000D01*
X43440000Y-133050000D02*
X45310000Y-133050000D01*
X48610000Y-132680000D02*
X48610000Y-131662500D01*
X46560000Y-131189998D02*
X46020002Y-130650000D01*
X43620000Y-130650000D02*
X42620000Y-129650000D01*
X46560000Y-131850000D02*
X46560000Y-131189998D01*
X46020002Y-130650000D02*
X43620000Y-130650000D01*
D59*
X56345000Y-115000000D02*
X55350000Y-115000000D01*
X54355000Y-115000000D02*
X55350000Y-115000000D01*
X54355000Y-107000000D02*
X55350000Y-107000000D01*
X56345000Y-107000000D02*
X55350000Y-107000000D01*
D65*
X44660000Y-131850000D02*
X44120000Y-131850000D01*
X44120000Y-131850000D02*
X43700000Y-132270000D01*
D59*
X36590000Y-112200000D02*
X36590000Y-111040000D01*
D62*
X67638667Y-123963333D02*
X67702000Y-123900000D01*
D59*
X35029999Y-109609999D02*
X35179980Y-109759980D01*
D62*
X33740699Y-116338601D02*
X34030001Y-116049299D01*
X37887500Y-93130000D02*
X38700000Y-93130000D01*
D59*
X36090000Y-109694990D02*
X36150000Y-109634990D01*
X40165000Y-102675000D02*
X39055000Y-102675000D01*
D65*
X56420000Y-129290000D02*
X56420000Y-127840000D01*
D59*
X39055000Y-124675000D02*
X38930000Y-124800000D01*
X34530000Y-112219633D02*
X35302500Y-111447133D01*
X55950000Y-108395000D02*
X55950000Y-108890000D01*
X32765010Y-105164990D02*
X32470000Y-105460000D01*
D62*
X61310000Y-119400000D02*
X61290000Y-119420000D01*
D59*
X35029999Y-109216200D02*
X35029999Y-109609999D01*
X36590000Y-111040000D02*
X36580000Y-111030000D01*
X35029999Y-115836200D02*
X35029999Y-116189999D01*
X35160000Y-116320000D02*
X35220000Y-116320000D01*
D65*
X59020000Y-129245000D02*
X56465000Y-129245000D01*
D62*
X33590000Y-112903801D02*
X33590000Y-113290000D01*
X33960499Y-115560001D02*
X33710000Y-115309502D01*
X66373833Y-123900000D02*
X66089066Y-124184767D01*
X34030001Y-115836200D02*
X34030001Y-115560001D01*
D63*
X40240000Y-119250000D02*
X38980000Y-119250000D01*
D59*
X39055000Y-102675000D02*
X38930000Y-102800000D01*
X40240000Y-102750000D02*
X40165000Y-102675000D01*
D62*
X67702000Y-123900000D02*
X67875000Y-123900000D01*
D59*
X62140167Y-123866500D02*
X62173667Y-123900000D01*
X35571382Y-109759980D02*
X36090000Y-109759980D01*
X62203100Y-119400000D02*
X61310000Y-119400000D01*
D62*
X32990000Y-115880000D02*
X32990000Y-116047903D01*
D59*
X35946200Y-112843800D02*
X36590000Y-112200000D01*
X64701851Y-124369281D02*
X64471132Y-124600000D01*
X66089066Y-124184767D02*
X66040233Y-124184767D01*
D65*
X61410000Y-129245000D02*
X61420000Y-129235000D01*
D67*
X70920000Y-108350000D02*
X70190000Y-108350000D01*
D62*
X33710000Y-115309502D02*
X33710000Y-113410000D01*
D59*
X70080000Y-108250000D02*
X70090000Y-108260000D01*
D62*
X34030001Y-115560001D02*
X33960499Y-115560001D01*
D59*
X33973589Y-105164990D02*
X32765010Y-105164990D01*
X62173667Y-123900000D02*
X62450000Y-123900000D01*
X66040233Y-124184767D02*
X65625000Y-124600000D01*
X35160000Y-116320000D02*
X35410000Y-116320000D01*
X34030001Y-109529267D02*
X34030001Y-109216200D01*
D67*
X71070000Y-108200000D02*
X70920000Y-108350000D01*
D63*
X38980000Y-119250000D02*
X38930000Y-119200000D01*
D65*
X56420000Y-127840000D02*
X56470000Y-127790000D01*
D62*
X67895000Y-124052000D02*
X67895000Y-123837000D01*
D59*
X35302500Y-110801766D02*
X34030001Y-109529267D01*
D65*
X40765000Y-132095000D02*
X41750000Y-133080000D01*
D59*
X35302500Y-111030000D02*
X35302500Y-110801766D01*
D62*
X38700000Y-93130000D02*
X39360000Y-93790000D01*
D59*
X33163800Y-106223800D02*
X33100000Y-106160000D01*
X61002000Y-123900000D02*
X61175000Y-123900000D01*
X36090000Y-109759980D02*
X36090000Y-109694990D01*
X64340660Y-97259188D02*
X64340660Y-97260660D01*
X35530001Y-109718599D02*
X35571382Y-109759980D01*
D62*
X66600000Y-123900000D02*
X66373833Y-123900000D01*
X33280698Y-116338601D02*
X33740699Y-116338601D01*
D59*
X35302500Y-111030000D02*
X36580000Y-111030000D01*
X69760000Y-108250000D02*
X70080000Y-108250000D01*
X35530001Y-116199999D02*
X35530001Y-115836200D01*
D65*
X56465000Y-129245000D02*
X56420000Y-129290000D01*
D63*
X38980000Y-97250000D02*
X38930000Y-97200000D01*
D59*
X36580000Y-111030000D02*
X37967500Y-111030000D01*
D65*
X50720000Y-132125000D02*
X50720000Y-133460042D01*
D67*
X39030000Y-102700000D02*
X38930000Y-102800000D01*
D59*
X40240000Y-124750000D02*
X40165000Y-124675000D01*
X60870000Y-124032000D02*
X61002000Y-123900000D01*
D63*
X71020000Y-113750000D02*
X71070000Y-113800000D01*
D59*
X35302500Y-111447133D02*
X35302500Y-111030000D01*
D65*
X59020000Y-129245000D02*
X61410000Y-129245000D01*
D67*
X39030000Y-124700000D02*
X38930000Y-124800000D01*
D62*
X34030001Y-116049299D02*
X34030001Y-115836200D01*
X35530001Y-106139989D02*
X36370000Y-105299990D01*
D59*
X33529999Y-106223800D02*
X33163800Y-106223800D01*
X35530001Y-112843800D02*
X35946200Y-112843800D01*
X35179980Y-109759980D02*
X35571382Y-109759980D01*
D65*
X50720000Y-133460042D02*
X50839979Y-133580021D01*
D62*
X33710000Y-113410000D02*
X33590000Y-113290000D01*
D63*
X40240000Y-97250000D02*
X38980000Y-97250000D01*
D59*
X40165000Y-124675000D02*
X39055000Y-124675000D01*
X55950000Y-108890000D02*
X56120000Y-109060000D01*
D62*
X32990000Y-116047903D02*
X33280698Y-116338601D01*
D59*
X35410000Y-116320000D02*
X35530001Y-116199999D01*
D63*
X69760000Y-113750000D02*
X71020000Y-113750000D01*
D59*
X56335000Y-116395000D02*
X56600000Y-116660000D01*
D62*
X33529999Y-112843800D02*
X33590000Y-112903801D01*
D59*
X34530000Y-105721401D02*
X33973589Y-105164990D01*
X34530000Y-106223800D02*
X34530000Y-105721401D01*
X34530000Y-112843800D02*
X34530000Y-112219633D01*
X64340660Y-97260660D02*
X65150000Y-98070000D01*
X35530001Y-109216200D02*
X35530001Y-109718599D01*
X35029999Y-116189999D02*
X35160000Y-116320000D01*
D62*
X35530001Y-106223800D02*
X35530001Y-106139989D01*
D65*
X40430000Y-132095000D02*
X40765000Y-132095000D01*
D59*
X55950000Y-116395000D02*
X56335000Y-116395000D01*
X64471132Y-124600000D02*
X64350000Y-124600000D01*
D65*
X47727500Y-129537500D02*
X47420000Y-129230000D01*
X47420000Y-129230000D02*
X46560000Y-129230000D01*
X48610000Y-129537500D02*
X47727500Y-129537500D01*
D59*
X35190000Y-128870000D02*
X36012500Y-128870000D01*
X34287500Y-129772500D02*
X35190000Y-128870000D01*
X33730000Y-129772500D02*
X34287500Y-129772500D01*
D63*
X40370000Y-98750000D02*
X39110000Y-98750000D01*
X39110000Y-98750000D02*
X39060000Y-98800000D01*
X40240000Y-101250000D02*
X38980000Y-101250000D01*
X38980000Y-101250000D02*
X38930000Y-101200000D01*
D68*
X40810000Y-115000000D02*
X40810000Y-114500000D01*
X40810000Y-115000000D02*
X40810000Y-116000000D01*
X39772500Y-115260000D02*
X40540000Y-115260000D01*
D63*
X40240000Y-123250000D02*
X38980000Y-123250000D01*
X38980000Y-120750000D02*
X38930000Y-120800000D01*
X38980000Y-123250000D02*
X38930000Y-123200000D01*
X40240000Y-120750000D02*
X38980000Y-120750000D01*
X71020000Y-109750000D02*
X71070000Y-109800000D01*
X71020000Y-112250000D02*
X71070000Y-112200000D01*
D64*
X70410000Y-117010000D02*
X71040000Y-117010000D01*
D63*
X69760000Y-109750000D02*
X71020000Y-109750000D01*
D64*
X71040000Y-117010000D02*
X71800000Y-117010000D01*
D63*
X69760000Y-112250000D02*
X71020000Y-112250000D01*
D68*
X32380000Y-104330000D02*
X38280000Y-104330000D01*
X32380000Y-126330000D02*
X38280000Y-126330000D01*
X77620000Y-106670000D02*
X71720000Y-106670000D01*
D65*
X76520000Y-102670000D02*
X76520000Y-104622500D01*
D68*
X32380000Y-95670000D02*
X38280000Y-95670000D01*
D65*
X76520000Y-102670000D02*
X78420000Y-102670000D01*
X76520000Y-104622500D02*
X76492500Y-104650000D01*
X76492500Y-104650000D02*
X78500000Y-104650000D01*
D68*
X77620000Y-115330000D02*
X71720000Y-115330000D01*
X32380000Y-117670000D02*
X38280000Y-117670000D01*
D60*
X62250000Y-126560000D02*
X61250000Y-126560000D01*
D59*
X63610034Y-119400000D02*
X63396900Y-119400000D01*
X63950623Y-119740589D02*
X63610034Y-119400000D01*
X63790000Y-126612000D02*
X63738000Y-126560000D01*
D62*
X64250000Y-126560000D02*
X63250000Y-126560000D01*
D59*
X42910000Y-120630000D02*
X41960000Y-120630000D01*
X41960000Y-120630000D02*
X41340000Y-121250000D01*
X41340000Y-121250000D02*
X40240000Y-121250000D01*
D62*
X65250000Y-126560000D02*
X66250000Y-126560000D01*
D59*
X63199999Y-120060100D02*
X63199999Y-120109999D01*
X40840000Y-122750000D02*
X40990000Y-122900000D01*
X63199999Y-120109999D02*
X63490000Y-120400000D01*
X40240000Y-122750000D02*
X40840000Y-122750000D01*
D62*
X67250000Y-126560000D02*
X67742000Y-126560000D01*
X67742000Y-126560000D02*
X68250000Y-126560000D01*
X62260000Y-122910000D02*
X63280000Y-122910000D01*
D59*
X66930000Y-111750000D02*
X69760000Y-111750000D01*
X57074000Y-123400000D02*
X57074000Y-124050000D01*
X57944000Y-124220000D02*
X58274000Y-124550000D01*
X57074000Y-124050000D02*
X57244000Y-124220000D01*
X57244000Y-124220000D02*
X57944000Y-124220000D01*
D62*
X66250000Y-122910000D02*
X67230000Y-122910000D01*
D59*
X58274000Y-124550000D02*
X58274000Y-125200000D01*
X66860000Y-111820000D02*
X66930000Y-111750000D01*
D67*
X35493800Y-108663800D02*
X35969999Y-108663800D01*
D63*
X36120000Y-108430000D02*
X35930000Y-108430000D01*
X35900000Y-108460000D02*
X35930000Y-108430000D01*
X34790000Y-108150000D02*
X34700000Y-108240000D01*
X35380000Y-108240000D02*
X35600000Y-108460000D01*
X36260000Y-108080000D02*
X36260000Y-108050000D01*
X35020000Y-107920000D02*
X34700000Y-108240000D01*
D67*
X35070001Y-108219999D02*
X35060000Y-108230000D01*
D63*
X36330000Y-108680000D02*
X36330000Y-108150000D01*
X36330000Y-108150000D02*
X34790000Y-108150000D01*
X36130000Y-107920000D02*
X35020000Y-107920000D01*
X36289999Y-108720001D02*
X36330000Y-108680000D01*
D67*
X36026200Y-108219999D02*
X35070001Y-108219999D01*
D63*
X36260000Y-108050000D02*
X36130000Y-107920000D01*
D67*
X35969999Y-108663800D02*
X36026200Y-108720001D01*
D63*
X36026200Y-108720001D02*
X36289999Y-108720001D01*
X35600000Y-108460000D02*
X35900000Y-108460000D01*
X34680000Y-108080000D02*
X36260000Y-108080000D01*
X36260000Y-108080000D02*
X36330000Y-108150000D01*
X34700000Y-108240000D02*
X35380000Y-108240000D01*
D67*
X35060000Y-108230000D02*
X35493800Y-108663800D01*
D59*
X39564990Y-110104990D02*
X35065357Y-110104990D01*
X39792500Y-110332500D02*
X39564990Y-110104990D01*
X35065357Y-110104990D02*
X34530000Y-109569633D01*
X34530000Y-109470000D02*
X34530000Y-109216200D01*
X34530000Y-109569633D02*
X34530000Y-109470000D01*
X39792500Y-111030000D02*
X39792500Y-110332500D01*
D60*
X34530000Y-116245200D02*
X34530000Y-115836200D01*
X33477500Y-111030000D02*
X32543900Y-111963600D01*
X34174089Y-116601111D02*
X34530000Y-116245200D01*
X33041111Y-116601111D02*
X34174089Y-116601111D01*
X32543900Y-116103900D02*
X33041111Y-116601111D01*
X32543900Y-111963600D02*
X32543900Y-116103900D01*
D61*
X61884994Y-98724904D02*
X62290050Y-98319848D01*
X61884994Y-99200405D02*
X61884994Y-98724904D01*
X62400000Y-101343499D02*
X62400000Y-100530000D01*
X61434993Y-99564993D02*
X61550000Y-99680000D01*
X62400001Y-101899900D02*
X62400000Y-101343499D01*
X61936497Y-97966295D02*
X61434993Y-98467799D01*
X62400000Y-100530000D02*
X61550000Y-99680000D01*
X61434993Y-98467799D02*
X61434993Y-99564993D01*
D62*
X35029999Y-106223800D02*
X35029999Y-105890001D01*
X35029999Y-105890001D02*
X35680000Y-105240000D01*
D59*
X35029999Y-112341401D02*
X35306400Y-112065000D01*
X35029999Y-112843800D02*
X35029999Y-112341401D01*
X35306400Y-112065000D02*
X35832168Y-112065000D01*
D61*
X48933150Y-104986249D02*
X48714653Y-104986249D01*
X48714653Y-104986249D02*
X46961904Y-103233500D01*
X52484862Y-107453499D02*
X52330363Y-107299000D01*
X53768999Y-107453500D02*
X52484862Y-107453499D01*
X54355000Y-107400000D02*
X53822499Y-107400000D01*
X40868501Y-101853500D02*
X40765001Y-101750000D01*
X40765001Y-101750000D02*
X40240000Y-101750000D01*
X46961904Y-103233500D02*
X42870684Y-103233500D01*
X53822499Y-107400000D02*
X53768999Y-107453500D01*
X41490684Y-101853500D02*
X40868501Y-101853500D01*
X42870684Y-103233500D02*
X41490684Y-101853500D01*
X41369316Y-102146500D02*
X40868501Y-102146500D01*
X53822499Y-107800000D02*
X53768999Y-107746500D01*
X48507470Y-105411929D02*
X48507470Y-105193432D01*
X40868501Y-102146500D02*
X40765001Y-102250000D01*
X46840538Y-103526500D02*
X42749316Y-103526500D01*
X54355000Y-107800000D02*
X53822499Y-107800000D01*
X42749316Y-103526500D02*
X41369316Y-102146500D01*
X48507470Y-105193432D02*
X46840538Y-103526500D01*
X52484862Y-107746501D02*
X52330363Y-107901000D01*
X40765001Y-102250000D02*
X40240000Y-102250000D01*
X53768999Y-107746500D02*
X52484862Y-107746501D01*
X42623500Y-118639316D02*
X41409316Y-119853500D01*
X54355000Y-106200000D02*
X53822499Y-106200000D01*
X40868501Y-119853500D02*
X40765001Y-119750000D01*
X52930684Y-105643500D02*
X50539316Y-105643500D01*
X50539316Y-105643500D02*
X42623500Y-113559316D01*
X53822499Y-106200000D02*
X53768999Y-106253500D01*
X41409316Y-119853500D02*
X40868501Y-119853500D01*
X42623500Y-113559316D02*
X42623500Y-118639316D01*
X53768999Y-106253500D02*
X53540684Y-106253500D01*
X53540684Y-106253500D02*
X52930684Y-105643500D01*
X40765001Y-119750000D02*
X40240000Y-119750000D01*
X40765001Y-120250000D02*
X40240000Y-120250000D01*
X41530684Y-120146500D02*
X40868501Y-120146500D01*
X52809316Y-105936500D02*
X50660684Y-105936500D01*
X53419316Y-106546500D02*
X52809316Y-105936500D01*
X53822499Y-106600000D02*
X53768999Y-106546500D01*
X42916500Y-113680684D02*
X42916500Y-118760684D01*
X50660684Y-105936500D02*
X42916500Y-113680684D01*
X54355000Y-106600000D02*
X53822499Y-106600000D01*
X53768999Y-106546500D02*
X53419316Y-106546500D01*
X40868501Y-120146500D02*
X40765001Y-120250000D01*
X42916500Y-118760684D02*
X41530684Y-120146500D01*
D62*
X55550000Y-113605000D02*
X55550000Y-111500000D01*
X56480000Y-99942762D02*
X56566667Y-99856095D01*
X60119355Y-96955010D02*
X60522283Y-96552082D01*
X55550000Y-104380000D02*
X56480000Y-103450000D01*
X55550000Y-105605000D02*
X55550000Y-104380000D01*
X56480000Y-103450000D02*
X56480000Y-99942762D01*
X56566667Y-99856095D02*
X59467752Y-96955010D01*
X59467752Y-96955010D02*
X60119355Y-96955010D01*
D59*
X65754873Y-94855025D02*
X65754975Y-94855025D01*
X35090000Y-94052500D02*
X36012500Y-93130000D01*
X33730000Y-94052500D02*
X35090000Y-94052500D01*
D62*
X38020000Y-90930000D02*
X35027500Y-90930000D01*
X38970000Y-91880000D02*
X38020000Y-90930000D01*
X35027500Y-90930000D02*
X33730000Y-92227500D01*
D67*
X36026200Y-106719999D02*
X35969998Y-106776201D01*
X36026200Y-106719999D02*
X36799999Y-106719999D01*
X36799999Y-106719999D02*
X36800000Y-106720000D01*
X36789999Y-107220001D02*
X36810000Y-107200000D01*
D68*
X37230000Y-106780000D02*
X36810000Y-107200000D01*
X37947500Y-106780000D02*
X37230000Y-106780000D01*
D67*
X35453799Y-106776201D02*
X35030000Y-107200000D01*
X35050001Y-107220001D02*
X35030000Y-107200000D01*
D68*
X36970000Y-107400000D02*
X37327500Y-107400000D01*
X37922500Y-106805000D02*
X37947500Y-106780000D01*
D67*
X35969998Y-106776201D02*
X35453799Y-106776201D01*
D68*
X37327500Y-107400000D02*
X37947500Y-106780000D01*
X36810000Y-107200000D02*
X36810000Y-106730000D01*
X37922500Y-108730000D02*
X37922500Y-106805000D01*
X37717500Y-106550000D02*
X37947500Y-106780000D01*
X36810000Y-106730000D02*
X36800000Y-106720000D01*
X36930000Y-106550000D02*
X37717500Y-106550000D01*
D67*
X36026200Y-107220001D02*
X36789999Y-107220001D01*
X36026200Y-107220001D02*
X35050001Y-107220001D01*
D68*
X37947500Y-115260000D02*
X37947500Y-113355000D01*
D67*
X36026200Y-113840001D02*
X36026200Y-113793800D01*
X36090000Y-113530000D02*
X36770000Y-113530000D01*
X35770000Y-113600000D02*
X36020000Y-113600000D01*
X36770000Y-113530000D02*
X36330000Y-113530000D01*
D68*
X36910000Y-113930000D02*
X36910000Y-114486399D01*
X36910000Y-113390000D02*
X36900000Y-113380000D01*
D65*
X34810000Y-113930000D02*
X34700000Y-113820000D01*
D68*
X37852500Y-113380000D02*
X37912500Y-113320000D01*
D67*
X36210001Y-113609999D02*
X36290001Y-113609999D01*
X35550000Y-113610000D02*
X35760000Y-113610000D01*
D68*
X37302500Y-113930000D02*
X37912500Y-113320000D01*
X36910000Y-114486399D02*
X36953601Y-114530000D01*
D67*
X36290001Y-113840001D02*
X36569999Y-113840001D01*
X34700000Y-113820000D02*
X35340000Y-113820000D01*
X36300000Y-113600000D02*
X36290001Y-113609999D01*
X36020000Y-113600000D02*
X36090000Y-113530000D01*
D68*
X37947500Y-113355000D02*
X37912500Y-113320000D01*
D67*
X35969998Y-113396201D02*
X35483799Y-113396201D01*
X35483799Y-113396201D02*
X35060000Y-113820000D01*
X35080001Y-113840001D02*
X35060000Y-113820000D01*
X36026200Y-113793800D02*
X36210001Y-113609999D01*
X36330000Y-113530000D02*
X36260000Y-113600000D01*
X35340000Y-113820000D02*
X35550000Y-113610000D01*
X36770000Y-113530000D02*
X36910000Y-113390000D01*
X35760000Y-113610000D02*
X35770000Y-113600000D01*
X36026200Y-113840001D02*
X35080001Y-113840001D01*
D68*
X36900000Y-113380000D02*
X37852500Y-113380000D01*
X36910000Y-113930000D02*
X37302500Y-113930000D01*
D65*
X36910000Y-113930000D02*
X34810000Y-113930000D01*
D67*
X36026200Y-113339999D02*
X35969998Y-113396201D01*
D68*
X36910000Y-113930000D02*
X36910000Y-113390000D01*
X37683601Y-115260000D02*
X36910000Y-114486399D01*
X37947500Y-115260000D02*
X37683601Y-115260000D01*
D67*
X36026200Y-113339999D02*
X36578600Y-113340000D01*
X36026200Y-113840001D02*
X36290001Y-113840001D01*
X36260000Y-113600000D02*
X36300000Y-113600000D01*
X36290001Y-113609999D02*
X36290001Y-113840001D01*
D63*
X36320000Y-115270000D02*
X36320000Y-114992428D01*
X35810000Y-114600000D02*
X34960000Y-114600000D01*
X34700000Y-114860000D02*
X35135000Y-114860000D01*
X36060000Y-115080000D02*
X36026200Y-115113800D01*
D64*
X70464000Y-120696000D02*
X70460000Y-120700000D01*
X71765750Y-120696000D02*
X70464000Y-120696000D01*
D63*
X36320000Y-114992428D02*
X36167571Y-114839999D01*
X35440000Y-114860000D02*
X35480000Y-114900000D01*
X34960000Y-114600000D02*
X34700000Y-114860000D01*
X36026200Y-114816200D02*
X35810000Y-114600000D01*
X35679998Y-114860000D02*
X35699999Y-114839999D01*
X35135000Y-114860000D02*
X35533800Y-115258800D01*
X36026200Y-114839999D02*
X35699999Y-114839999D01*
X36249999Y-115340001D02*
X36320000Y-115270000D01*
X36026200Y-115113800D02*
X36026200Y-115340001D01*
X36026200Y-115340001D02*
X35944999Y-115258800D01*
X36167571Y-114839999D02*
X36026200Y-114839999D01*
X36026200Y-114839999D02*
X36026200Y-114816200D01*
X34700000Y-114860000D02*
X35440000Y-114860000D01*
X35440000Y-114860000D02*
X35679998Y-114860000D01*
X35660000Y-115080000D02*
X36060000Y-115080000D01*
X36026200Y-115340001D02*
X36249999Y-115340001D01*
X35944999Y-115258800D02*
X35533800Y-115258800D01*
D65*
X44660000Y-129230000D02*
X45610000Y-129230000D01*
D63*
X40480000Y-108730000D02*
X40840000Y-109090000D01*
X39787500Y-113320000D02*
X40510000Y-113320000D01*
X40840000Y-110920000D02*
X40840000Y-112990000D01*
X40840000Y-112990000D02*
X40765000Y-113065000D01*
X40510000Y-113320000D02*
X40765000Y-113065000D01*
X40840000Y-109090000D02*
X40840000Y-110920000D01*
X39797500Y-108730000D02*
X40480000Y-108730000D01*
D62*
X55950000Y-105605000D02*
X55950000Y-104440000D01*
X56850000Y-103540000D02*
X56850000Y-100190000D01*
X55950000Y-104440000D02*
X56850000Y-103540000D01*
X59750000Y-97290000D02*
X57140000Y-99900000D01*
X60875837Y-96905635D02*
X60491472Y-97290000D01*
X60491472Y-97290000D02*
X59750000Y-97290000D01*
X56850000Y-100190000D02*
X57140000Y-99900000D01*
D60*
X67050000Y-123975000D02*
X67460000Y-124385000D01*
X68140000Y-123500000D02*
X67240000Y-123500000D01*
X66250000Y-125540000D02*
X67250000Y-125540000D01*
X67250000Y-125540000D02*
X66888000Y-125540000D01*
X67050000Y-123690000D02*
X67050000Y-123900000D01*
X67240000Y-123500000D02*
X67050000Y-123690000D01*
X67050000Y-123900000D02*
X67050000Y-123975000D01*
X67460000Y-124385000D02*
X67460000Y-125330000D01*
X68325000Y-123685000D02*
X68140000Y-123500000D01*
X67460000Y-125330000D02*
X67250000Y-125540000D01*
X66888000Y-125540000D02*
X66750000Y-125402000D01*
D62*
X68325000Y-123692706D02*
X68325000Y-123900000D01*
X61930000Y-123442000D02*
X61625000Y-123747000D01*
X61625000Y-123747000D02*
X61625000Y-123900000D01*
D60*
X62250000Y-125312000D02*
X62040000Y-125102000D01*
D62*
X62622000Y-123442000D02*
X61930000Y-123442000D01*
D60*
X62250000Y-125540000D02*
X62250000Y-125312000D01*
X61625000Y-123952374D02*
X62040000Y-124367374D01*
D62*
X62250000Y-125540000D02*
X63250000Y-125540000D01*
X62900000Y-123720000D02*
X62622000Y-123442000D01*
D60*
X62040000Y-124367374D02*
X62040000Y-125102000D01*
D62*
X62900000Y-123900000D02*
X62900000Y-123720000D01*
D60*
X61625000Y-123900000D02*
X61625000Y-123952374D01*
D62*
X65250000Y-125540000D02*
X65402288Y-125540000D01*
X65402288Y-125540000D02*
X66342288Y-124600000D01*
X66342288Y-124600000D02*
X66825000Y-124600000D01*
X61400000Y-124600000D02*
X61300000Y-124700000D01*
X61300000Y-125490000D02*
X61250000Y-125540000D01*
X61300000Y-124700000D02*
X61300000Y-125490000D01*
D60*
X64822435Y-125020687D02*
X64823122Y-125020000D01*
X63900000Y-124830000D02*
X64090687Y-125020687D01*
X63900000Y-124600000D02*
X63900000Y-124830000D01*
X64747241Y-125020687D02*
X64739657Y-125028271D01*
X64822435Y-125020687D02*
X64747241Y-125020687D01*
X64090687Y-125020687D02*
X64822435Y-125020687D01*
X64960000Y-125020000D02*
X65175000Y-124805000D01*
X64823122Y-125020000D02*
X64960000Y-125020000D01*
X65175000Y-124805000D02*
X65175000Y-124600000D01*
D62*
X68100000Y-124600000D02*
X68100000Y-125390000D01*
X68100000Y-125390000D02*
X68250000Y-125540000D01*
X64050000Y-125540000D02*
X63110000Y-124600000D01*
X63110000Y-124600000D02*
X62675000Y-124600000D01*
X64250000Y-125540000D02*
X64050000Y-125540000D01*
X65220000Y-123720000D02*
X65220000Y-122920000D01*
X65220000Y-122920000D02*
X65230000Y-122910000D01*
X65400000Y-123900000D02*
X65220000Y-123720000D01*
X64330000Y-122940000D02*
X64300000Y-122910000D01*
X64125000Y-123900000D02*
X64330000Y-123695000D01*
X64330000Y-123695000D02*
X64330000Y-122940000D01*
G04 #@! TA.AperFunction,Conductor*
G36*
X32259133Y-134413574D02*
G01*
X32412468Y-134560104D01*
X32414121Y-134561232D01*
X32414124Y-134561234D01*
X32614640Y-134698017D01*
X32614643Y-134698019D01*
X32616300Y-134699149D01*
X32618121Y-134699994D01*
X32618124Y-134699996D01*
X32838276Y-134802187D01*
X32838281Y-134802189D01*
X32840104Y-134803035D01*
X32842044Y-134803573D01*
X33075934Y-134868437D01*
X33075936Y-134868437D01*
X33077871Y-134868974D01*
X33197048Y-134881711D01*
X33277998Y-134890362D01*
X33278003Y-134890362D01*
X33279292Y-134890500D01*
X33422554Y-134890500D01*
X33423559Y-134890417D01*
X33423568Y-134890417D01*
X33517568Y-134882688D01*
X33605911Y-134875425D01*
X33724146Y-134845727D01*
X33843267Y-134815806D01*
X33843269Y-134815805D01*
X33845217Y-134815316D01*
X34071493Y-134716928D01*
X34100725Y-134698017D01*
X34276974Y-134583997D01*
X34276979Y-134583993D01*
X34278661Y-134582905D01*
X34280146Y-134581554D01*
X34459675Y-134418196D01*
X34459679Y-134418192D01*
X34461158Y-134416846D01*
X34462179Y-134415554D01*
X34497948Y-134400000D01*
X75505280Y-134400000D01*
X75539133Y-134413574D01*
X75692468Y-134560104D01*
X75694121Y-134561232D01*
X75694124Y-134561234D01*
X75894640Y-134698017D01*
X75894643Y-134698019D01*
X75896300Y-134699149D01*
X75898121Y-134699994D01*
X75898124Y-134699996D01*
X76118276Y-134802187D01*
X76118281Y-134802189D01*
X76120104Y-134803035D01*
X76122044Y-134803573D01*
X76355934Y-134868437D01*
X76355936Y-134868437D01*
X76357871Y-134868974D01*
X76477048Y-134881711D01*
X76557998Y-134890362D01*
X76558003Y-134890362D01*
X76559292Y-134890500D01*
X76702554Y-134890500D01*
X76703559Y-134890417D01*
X76703568Y-134890417D01*
X76797568Y-134882688D01*
X76885911Y-134875425D01*
X77004146Y-134845727D01*
X77123267Y-134815806D01*
X77123269Y-134815805D01*
X77125217Y-134815316D01*
X77351493Y-134716928D01*
X77380725Y-134698017D01*
X77556974Y-134583997D01*
X77556979Y-134583993D01*
X77558661Y-134582905D01*
X77600521Y-134544816D01*
X77655641Y-134494660D01*
X77740000Y-134417900D01*
X77740000Y-135834994D01*
X77738473Y-135835403D01*
X77577397Y-135867444D01*
X77501085Y-135882623D01*
X77494735Y-135883460D01*
X77413375Y-135888792D01*
X77272641Y-135898016D01*
X77262320Y-135896726D01*
X77257380Y-135896726D01*
X77250000Y-135894328D01*
X77242620Y-135896726D01*
X77241463Y-135897102D01*
X77226320Y-135899500D01*
X32773680Y-135899500D01*
X32758537Y-135897102D01*
X32757380Y-135896726D01*
X32750000Y-135894328D01*
X32742620Y-135896726D01*
X32737680Y-135896726D01*
X32727359Y-135898016D01*
X32586625Y-135888792D01*
X32505265Y-135883460D01*
X32498915Y-135882623D01*
X32261526Y-135835403D01*
X32255341Y-135833747D01*
X32144854Y-135796241D01*
X32026131Y-135755940D01*
X32020210Y-135753487D01*
X31803130Y-135646435D01*
X31797579Y-135643230D01*
X31596328Y-135508759D01*
X31591243Y-135504857D01*
X31409266Y-135345266D01*
X31404734Y-135340734D01*
X31245143Y-135158757D01*
X31241241Y-135153672D01*
X31106770Y-134952421D01*
X31103565Y-134946870D01*
X30996513Y-134729790D01*
X30994060Y-134723869D01*
X30916254Y-134494660D01*
X30914596Y-134488469D01*
X30896998Y-134400000D01*
X32225280Y-134400000D01*
X32259133Y-134413574D01*
G37*
G04 #@! TD.AperFunction*
G04 #@! TA.AperFunction,Conductor*
G36*
X32130000Y-87729282D02*
G01*
X32119455Y-87759649D01*
X32105918Y-87776790D01*
X32104947Y-87778549D01*
X31987644Y-87991042D01*
X31987642Y-87991048D01*
X31986673Y-87992802D01*
X31904309Y-88225390D01*
X31861039Y-88468306D01*
X31858025Y-88715028D01*
X31895347Y-88958930D01*
X31972003Y-89193460D01*
X32085935Y-89412321D01*
X32087146Y-89413933D01*
X32087146Y-89413934D01*
X32120185Y-89457939D01*
X32130000Y-89487359D01*
X32130000Y-105362265D01*
X32129397Y-105369930D01*
X32115131Y-105460000D01*
X32115734Y-105463807D01*
X32129397Y-105550070D01*
X32130000Y-105557735D01*
X32130000Y-132509282D01*
X32119455Y-132539649D01*
X32105918Y-132556790D01*
X32104947Y-132558549D01*
X31987644Y-132771042D01*
X31987642Y-132771048D01*
X31986673Y-132772802D01*
X31904309Y-133005390D01*
X31861039Y-133248306D01*
X31858025Y-133495028D01*
X31895347Y-133738930D01*
X31972003Y-133973460D01*
X32085935Y-134192321D01*
X32087146Y-134193933D01*
X32087146Y-134193934D01*
X32120185Y-134237939D01*
X32130000Y-134267359D01*
X32130000Y-135791198D01*
X32026131Y-135755939D01*
X32020210Y-135753487D01*
X31803130Y-135646435D01*
X31797579Y-135643230D01*
X31596328Y-135508759D01*
X31591243Y-135504857D01*
X31409266Y-135345266D01*
X31404734Y-135340734D01*
X31245143Y-135158757D01*
X31241241Y-135153672D01*
X31106770Y-134952421D01*
X31103565Y-134946870D01*
X30996513Y-134729790D01*
X30994060Y-134723869D01*
X30916254Y-134494662D01*
X30914596Y-134488471D01*
X30867377Y-134251088D01*
X30866540Y-134244733D01*
X30851984Y-134022641D01*
X30853274Y-134012320D01*
X30853274Y-134007380D01*
X30855672Y-134000000D01*
X30852898Y-133991463D01*
X30850500Y-133976320D01*
X30850500Y-88023680D01*
X30852898Y-88008537D01*
X30853274Y-88007380D01*
X30855672Y-88000000D01*
X30853274Y-87992620D01*
X30853274Y-87987680D01*
X30851984Y-87977359D01*
X30865129Y-87776790D01*
X30866540Y-87755265D01*
X30867377Y-87748912D01*
X30914596Y-87511529D01*
X30916254Y-87505338D01*
X30994060Y-87276131D01*
X30996513Y-87270210D01*
X31103565Y-87053130D01*
X31106770Y-87047579D01*
X31241241Y-86846328D01*
X31245143Y-86841243D01*
X31404734Y-86659266D01*
X31409266Y-86654734D01*
X31591243Y-86495143D01*
X31596328Y-86491241D01*
X31797579Y-86356770D01*
X31803130Y-86353565D01*
X32020210Y-86246513D01*
X32026131Y-86244061D01*
X32130000Y-86208802D01*
X32130000Y-87729282D01*
G37*
G04 #@! TD.AperFunction*
G04 #@! TA.AperFunction,Conductor*
G36*
X77241463Y-86102898D02*
G01*
X77250000Y-86105672D01*
X77257380Y-86103274D01*
X77262320Y-86103274D01*
X77272641Y-86101984D01*
X77413375Y-86111208D01*
X77494735Y-86116540D01*
X77501085Y-86117377D01*
X77560961Y-86129287D01*
X77690000Y-86154955D01*
X77690000Y-87460000D01*
X77628218Y-87460000D01*
X77594364Y-87446425D01*
X77588984Y-87441283D01*
X77588980Y-87441280D01*
X77587532Y-87439896D01*
X77556088Y-87418446D01*
X77385360Y-87301983D01*
X77385357Y-87301981D01*
X77383700Y-87300851D01*
X77381879Y-87300006D01*
X77381876Y-87300004D01*
X77161724Y-87197813D01*
X77161719Y-87197811D01*
X77159896Y-87196965D01*
X77113846Y-87184194D01*
X76924066Y-87131563D01*
X76924064Y-87131563D01*
X76922129Y-87131026D01*
X76802952Y-87118289D01*
X76722002Y-87109638D01*
X76721997Y-87109638D01*
X76720708Y-87109500D01*
X76577446Y-87109500D01*
X76576441Y-87109583D01*
X76576432Y-87109583D01*
X76482432Y-87117312D01*
X76394089Y-87124575D01*
X76275854Y-87154273D01*
X76156733Y-87184194D01*
X76156731Y-87184195D01*
X76154783Y-87184684D01*
X75928507Y-87283072D01*
X75926816Y-87284166D01*
X75723026Y-87416003D01*
X75723021Y-87416007D01*
X75721339Y-87417095D01*
X75719856Y-87418445D01*
X75719854Y-87418446D01*
X75688208Y-87447242D01*
X75655230Y-87460000D01*
X34348218Y-87460000D01*
X34314364Y-87446425D01*
X34308984Y-87441283D01*
X34308980Y-87441280D01*
X34307532Y-87439896D01*
X34276088Y-87418446D01*
X34105360Y-87301983D01*
X34105357Y-87301981D01*
X34103700Y-87300851D01*
X34101879Y-87300006D01*
X34101876Y-87300004D01*
X33881724Y-87197813D01*
X33881719Y-87197811D01*
X33879896Y-87196965D01*
X33833846Y-87184194D01*
X33644066Y-87131563D01*
X33644064Y-87131563D01*
X33642129Y-87131026D01*
X33522952Y-87118289D01*
X33442002Y-87109638D01*
X33441997Y-87109638D01*
X33440708Y-87109500D01*
X33297446Y-87109500D01*
X33296441Y-87109583D01*
X33296432Y-87109583D01*
X33202432Y-87117312D01*
X33114089Y-87124575D01*
X32995854Y-87154273D01*
X32876733Y-87184194D01*
X32876731Y-87184195D01*
X32874783Y-87184684D01*
X32648507Y-87283072D01*
X32646816Y-87284166D01*
X32443026Y-87416003D01*
X32443021Y-87416007D01*
X32441339Y-87417095D01*
X32439856Y-87418445D01*
X32439854Y-87418446D01*
X32408208Y-87447242D01*
X32375230Y-87460000D01*
X30931644Y-87460000D01*
X30936253Y-87446425D01*
X30985284Y-87301983D01*
X30994060Y-87276131D01*
X30996513Y-87270210D01*
X31103565Y-87053130D01*
X31106770Y-87047579D01*
X31241241Y-86846328D01*
X31245143Y-86841243D01*
X31404734Y-86659266D01*
X31409266Y-86654734D01*
X31591243Y-86495143D01*
X31596328Y-86491241D01*
X31797579Y-86356770D01*
X31803130Y-86353565D01*
X32020210Y-86246513D01*
X32026131Y-86244060D01*
X32144854Y-86203759D01*
X32255341Y-86166253D01*
X32261526Y-86164597D01*
X32498915Y-86117377D01*
X32505265Y-86116540D01*
X32586625Y-86111208D01*
X32727359Y-86101984D01*
X32737680Y-86103274D01*
X32742620Y-86103274D01*
X32750000Y-86105672D01*
X32758537Y-86102898D01*
X32773680Y-86100500D01*
X77226320Y-86100500D01*
X77241463Y-86102898D01*
G37*
G04 #@! TD.AperFunction*
G04 #@! TA.AperFunction,Conductor*
G36*
X77738485Y-86164599D02*
G01*
X77744659Y-86166253D01*
X77855146Y-86203759D01*
X77973869Y-86244060D01*
X77979790Y-86246513D01*
X78196870Y-86353565D01*
X78202421Y-86356770D01*
X78403672Y-86491241D01*
X78408757Y-86495143D01*
X78590734Y-86654734D01*
X78595266Y-86659266D01*
X78754857Y-86841243D01*
X78758759Y-86846328D01*
X78893230Y-87047579D01*
X78896435Y-87053130D01*
X79003487Y-87270210D01*
X79005940Y-87276131D01*
X79083746Y-87505338D01*
X79085403Y-87511526D01*
X79093512Y-87552291D01*
X79132623Y-87748912D01*
X79133460Y-87755267D01*
X79148016Y-87977359D01*
X79146726Y-87987680D01*
X79146726Y-87992620D01*
X79144328Y-88000000D01*
X79146726Y-88007380D01*
X79147102Y-88008537D01*
X79149500Y-88023680D01*
X79149500Y-133976320D01*
X79147102Y-133991463D01*
X79144328Y-134000000D01*
X79146726Y-134007380D01*
X79146726Y-134012320D01*
X79148016Y-134022641D01*
X79133460Y-134244733D01*
X79132623Y-134251085D01*
X79099383Y-134418197D01*
X79085404Y-134488471D01*
X79083746Y-134494662D01*
X79005940Y-134723869D01*
X79003487Y-134729790D01*
X78896435Y-134946870D01*
X78893230Y-134952421D01*
X78758759Y-135153672D01*
X78754857Y-135158757D01*
X78595266Y-135340734D01*
X78590734Y-135345266D01*
X78408757Y-135504857D01*
X78403672Y-135508759D01*
X78202421Y-135643230D01*
X78196870Y-135646435D01*
X77979790Y-135753487D01*
X77973869Y-135755940D01*
X77855146Y-135796241D01*
X77744659Y-135833747D01*
X77738485Y-135835401D01*
X77690000Y-135845045D01*
X77690000Y-134463396D01*
X77739673Y-134418197D01*
X77741158Y-134416846D01*
X77742400Y-134415273D01*
X77742404Y-134415269D01*
X77892835Y-134224789D01*
X77894082Y-134223210D01*
X77911134Y-134192321D01*
X78012356Y-134008958D01*
X78012358Y-134008952D01*
X78013327Y-134007198D01*
X78095691Y-133774610D01*
X78138961Y-133531694D01*
X78141975Y-133284972D01*
X78104653Y-133041070D01*
X78027997Y-132806540D01*
X77914065Y-132587679D01*
X77765917Y-132390364D01*
X77764465Y-132388977D01*
X77764462Y-132388973D01*
X77705147Y-132332291D01*
X77690000Y-132296866D01*
X77690000Y-89705059D01*
X77706023Y-89668817D01*
X77739668Y-89638203D01*
X77739675Y-89638195D01*
X77741158Y-89636846D01*
X77742400Y-89635273D01*
X77742404Y-89635269D01*
X77892835Y-89444789D01*
X77894082Y-89443210D01*
X77911134Y-89412321D01*
X78012356Y-89228958D01*
X78012358Y-89228952D01*
X78013327Y-89227198D01*
X78095691Y-88994610D01*
X78138961Y-88751694D01*
X78141975Y-88504972D01*
X78104653Y-88261070D01*
X78027997Y-88026540D01*
X77914065Y-87807679D01*
X77765917Y-87610364D01*
X77764465Y-87608977D01*
X77764462Y-87608973D01*
X77705147Y-87552291D01*
X77690000Y-87516866D01*
X77690000Y-86154955D01*
X77738485Y-86164599D01*
G37*
G04 #@! TD.AperFunction*
G04 #@! TA.AperFunction,Conductor*
G36*
X41582121Y-105420002D02*
G01*
X41628614Y-105473658D01*
X41640000Y-105526000D01*
X41640000Y-108274000D01*
X41619998Y-108342121D01*
X41566342Y-108388614D01*
X41514000Y-108400000D01*
X40866000Y-108400000D01*
X40797879Y-108379998D01*
X40751386Y-108326342D01*
X40740000Y-108274000D01*
X40740000Y-107700000D01*
X39166000Y-107700000D01*
X39097879Y-107679998D01*
X39051386Y-107626342D01*
X39040000Y-107574000D01*
X39040000Y-105526000D01*
X39060002Y-105457879D01*
X39113658Y-105411386D01*
X39166000Y-105400000D01*
X41514000Y-105400000D01*
X41582121Y-105420002D01*
G37*
G04 #@! TD.AperFunction*
M02*
