M48
; DRILL file {KiCad 5.1.9-73d0e3b20d~88~ubuntu20.04.1} date Sun Jan 17 19:15:34 2021
; FORMAT={-:-/ absolute / inch / decimal}
; #@! TF.CreationDate,2021-01-17T19:15:34+02:00
; #@! TF.GenerationSoftware,Kicad,Pcbnew,5.1.9-73d0e3b20d~88~ubuntu20.04.1
; #@! TF.FileFunction,Plated,1,4,PTH
FMAT,2
INCH
T1C0.0118
T2C0.0157
T3C0.0236
T4C0.0256
%
G90
G05
T1
X1.276Y-4.3248
X1.2783Y-4.152
X1.2988Y-4.5622
X1.3031Y-4.1795
X1.3472Y-4.2106
X1.348Y-4.2689
X1.3484Y-4.474
X1.3484Y-4.5291
X1.3642Y-4.2539
X1.3657Y-4.2268
X1.3661Y-4.4882
X1.3665Y-4.515
X1.3819Y-4.2685
X1.3835Y-4.474
X1.3839Y-4.5291
X1.3843Y-4.2114
X1.3866Y-4.5992
X1.4047Y-4.1433
X1.4075Y-5.0287
X1.4107Y-4.412
X1.4232Y-4.3163
X1.4287Y-4.5764
X1.4319Y-4.1457
X1.4402Y-4.2114
X1.4402Y-4.3713
X1.4528Y-4.4638
X1.4528Y-4.5091
X1.4531Y-4.4854
X1.4547Y-4.1878
X1.4579Y-4.2339
X1.5343Y-3.6173
X1.5453Y-5.0366
X1.5496Y-3.6925
X1.5611Y-4.8146
X1.5611Y-3.9485
X1.5655Y-3.5533
X1.5831Y-3.5374
X1.5854Y-4.639
X1.5882Y-3.7736
X1.5906Y-4.0992
X1.5906Y-4.9618
X1.6067Y-4.5039
X1.6067Y-4.526
X1.6067Y-4.5488
X1.6067Y-4.5709
X1.6079Y-4.3669
X1.6437Y-5.2394
X1.6795Y-3.7654
X1.684Y-4.8274
X1.6965Y-4.3496
X1.6984Y-3.9776
X1.7028Y-5.0579
X1.7043Y-4.9705
X1.7205Y-5.2075
X1.7217Y-4.1654
X1.728Y-4.8299
X1.7453Y-4.6791
X1.7461Y-4.7031
X1.7484Y-4.7918
X1.7484Y-4.8145
X1.7496Y-4.5272
X1.7496Y-4.5508
X1.7512Y-4.1693
X1.7512Y-4.1929
X1.7622Y-4.4839
X1.7661Y-4.7748
X1.7685Y-4.8307
X1.7693Y-4.539
X1.7693Y-4.5626
X1.7693Y-4.7035
X1.7709Y-4.1811
X1.7709Y-4.2047
X1.772Y-4.6803
X1.7819Y-4.7547
X1.8028Y-4.2594
X1.837Y-3.6283
X1.865Y-3.5
X1.8701Y-4.5469
X1.8764Y-4.5236
X1.885Y-4.1437
X1.8854Y-3.9118
X1.8921Y-4.1677
X1.8929Y-4.6551
X1.8941Y-4.7185
X1.8946Y-4.5414
X1.8992Y-3.8909
X1.9Y-4.5165
X1.9031Y-4.8488
X1.9043Y-3.9661
X1.9051Y-4.5823
X1.9097Y-4.1493
X1.9106Y-4.5574
X1.9146Y-3.7634
X1.9157Y-4.174
X1.9205Y-4.1087
X1.9209Y-4.9732
X1.9232Y-3.9257
X1.9232Y-3.9483
X1.9257Y-4.1333
X1.9268Y-3.8988
X1.9291Y-4.5752
X1.9354Y-4.5516
X1.9437Y-4.115
X1.9453Y-3.9614
X1.9508Y-4.1386
X1.9567Y-3.8913
X1.9622Y-4.0354
X1.9752Y-4.4165
X1.9906Y-4.6154
X1.9937Y-4.9402
X2.0016Y-5.2591
X2.002Y-4.2823
X2.0024Y-3.6451
X2.0165Y-3.7736
X2.0209Y-4.9642
X2.0346Y-4.5399
X2.0346Y-4.5625
X2.0382Y-4.2118
X2.0382Y-4.2606
X2.0425Y-4.748
X2.0488Y-4.0051
X2.0488Y-4.7248
X2.0524Y-5.0776
X2.0598Y-4.1992
X2.0602Y-4.2249
X2.0602Y-4.2475
X2.0602Y-4.2728
X2.061Y-4.8504
X2.0665Y-4.387
X2.0665Y-4.4358
X2.0668Y-4.7432
X2.0724Y-4.7177
X2.0776Y-4.7835
X2.078Y-4.0949
X2.0819Y-4.2114
X2.0819Y-4.261
X2.0828Y-4.7592
X2.0882Y-4.3744
X2.0886Y-4.4001
X2.0886Y-4.4227
X2.0886Y-4.448
X2.0925Y-4.5209
X2.0945Y-3.8232
X2.1016Y-4.7764
X2.1059Y-5.037
X2.1079Y-4.7528
X2.1102Y-4.3866
X2.1102Y-4.4362
X2.1361Y-3.6266
X2.1426Y-5.004
X2.1531Y-3.6825
X2.1622Y-3.6236
X2.1657Y-4.8996
X2.178Y-4.5472
X2.1783Y-4.5071
X2.1815Y-4.2327
X2.1823Y-4.1953
X2.1854Y-4.3631
X2.187Y-4.3898
X2.1969Y-4.6101
X2.1972Y-3.6244
X2.1976Y-4.3378
X2.2094Y-4.2937
X2.2122Y-4.798
X2.2232Y-5.0311
X2.226Y-3.6189
X2.227Y-3.9313
X2.2283Y-4.5929
X2.2429Y-4.8551
X2.2438Y-3.8848
X2.2472Y-4.7933
X2.2496Y-3.9331
X2.2583Y-4.9067
X2.2673Y-4.6976
X2.2795Y-3.9287
X2.2854Y-4.1646
X2.2874Y-4.348
X2.2882Y-4.2165
X2.3024Y-4.0634
X2.3071Y-4.152
X2.3071Y-4.1777
X2.3071Y-4.2003
X2.3189Y-4.576
X2.3213Y-4.2213
X2.3224Y-4.5224
X2.3276Y-3.8984
X2.3291Y-4.1642
X2.3366Y-4.4189
X2.3406Y-4.5399
X2.3406Y-4.5625
X2.3409Y-4.5882
X2.3524Y-4.5173
X2.3531Y-4.3
X2.3539Y-3.6295
X2.3587Y-4.0563
X2.3594Y-3.4646
X2.3626Y-4.5764
X2.3752Y-4.1165
X2.3772Y-4.8685
X2.3807Y-4.9065
X2.3858Y-4.3799
X2.3929Y-4.4035
X2.3945Y-4.0331
X2.3949Y-3.8843
X2.4047Y-3.9425
X2.4059Y-3.6354
X2.4109Y-4.3852
X2.4114Y-4.6748
X2.413Y-4.7016
X2.4161Y-4.4098
X2.4161Y-4.9711
X2.4213Y-4.1957
X2.422Y-3.9669
X2.4232Y-3.9244
X2.424Y-3.9992
X2.4269Y-4.3692
X2.428Y-4.3437
X2.4364Y-3.9055
X2.452Y-4.3642
X2.4528Y-4.1484
X2.461Y-3.8996
X2.4622Y-4.3189
X2.4732Y-4.6264
X2.4778Y-3.9754
X2.4781Y-4.148
X2.4799Y-4.9669
X2.4858Y-4.3484
X2.4877Y-4.323
X2.4906Y-4.7788
X2.5007Y-4.148
X2.5035Y-5.011
X2.5037Y-4.307
X2.5102Y-4.6622
X2.5142Y-4.7366
X2.5157Y-4.8319
X2.5228Y-4.2898
X2.5244Y-4.0531
X2.5264Y-4.1476
X2.5331Y-4.6619
X2.5339Y-4.0201
X2.5606Y-4.8846
X2.5606Y-5.0311
X2.561Y-4.8488
X2.565Y-3.861
X2.5654Y-4.7756
X2.5903Y-3.8306
X2.6037Y-4.8907
X2.6205Y-4.1496
X2.6295Y-3.765
X2.6319Y-4.5748
X2.6398Y-4.6421
X2.6465Y-3.7815
X2.6488Y-4.5126
X2.652Y-4.3406
X2.6547Y-4.8675
X2.6594Y-4.6598
X2.6701Y-4.4929
X2.6741Y-4.5181
X2.676Y-4.6039
X2.6846Y-4.5587
X2.6898Y-4.9768
X2.6901Y-4.5341
X2.6917Y-3.9423
X2.7048Y-4.4077
X2.7087Y-4.5516
X2.715Y-4.528
X2.733Y-3.7625
X2.7336Y-3.7912
X2.7378Y-4.2063
X2.761Y-4.6469
X2.7622Y-3.7701
X2.7665Y-4.9555
X2.7694Y-4.3822
X2.7886Y-4.9555
X2.7941Y-3.7079
X2.7945Y-3.7736
X2.8024Y-4.7445
X2.8043Y-3.7299
X2.8114Y-4.9555
X2.8205Y-3.776
X2.8244Y-4.7445
X2.8335Y-4.9555
X2.8441Y-4.1173
X2.8472Y-4.7445
X2.8502Y-3.8423
X2.8654Y-3.6031
X2.8673Y-4.6953
X2.8693Y-4.7445
X2.9177Y-4.7669
X2.9197Y-4.6906
X2.9236Y-3.7366
X2.9429Y-4.9976
X2.9689Y-5.0004
X2.9709Y-4.8929
T2
X1.5051Y-3.8425
X1.5051Y-3.874
X1.5051Y-3.9055
X1.5051Y-3.9685
X1.5051Y-4.0
X1.5051Y-4.0315
X1.5051Y-4.7087
X1.5051Y-4.7402
X1.5051Y-4.7717
X1.5051Y-4.8346
X1.5051Y-4.8661
X1.5051Y-4.8976
X1.5327Y-3.8268
X1.5327Y-3.8898
X1.5327Y-3.9213
X1.5327Y-3.9528
X1.5327Y-3.9843
X1.5327Y-4.0472
X1.5327Y-4.6929
X1.5327Y-4.7559
X1.5327Y-4.7874
X1.5327Y-4.8189
X1.5327Y-4.8504
X1.5327Y-4.9134
X2.798Y-4.2598
X2.798Y-4.3228
X2.798Y-4.3543
X2.798Y-4.3858
X2.798Y-4.4173
X2.798Y-4.4803
X2.8256Y-4.2756
X2.8256Y-4.3071
X2.8256Y-4.3386
X2.8256Y-4.4016
X2.8256Y-4.4331
X2.8256Y-4.4646
T4
X2.5638Y-3.5079
X2.5638Y-3.5579
X2.6138Y-3.5079
X2.6138Y-3.5579
X2.6638Y-3.5079
X2.6638Y-3.5579
X2.7138Y-3.5079
X2.7138Y-3.5579
X2.7638Y-3.5079
X2.7638Y-3.5579
T3
G00X1.2846Y-3.7665
M15
G01X1.265Y-3.7665
M16
G05
G00X1.2846Y-4.1075
M15
G01X1.265Y-4.1075
M16
G05
G00X1.2846Y-4.6327
M15
G01X1.265Y-4.6327
M16
G05
G00X1.2846Y-4.9736
M15
G01X1.265Y-4.9736
M16
G05
G00X1.5189Y-3.7665
M15
G01X1.4953Y-3.7665
M16
G05
G00X1.5189Y-4.1075
M15
G01X1.4953Y-4.1075
M16
G05
G00X1.5189Y-4.6327
M15
G01X1.4953Y-4.6327
M16
G05
G00X1.5189Y-4.9736
M15
G01X1.4953Y-4.9736
M16
G05
G00X1.5189Y-3.7685
M15
G01X1.5189Y-3.7921
M16
G05
G00X1.5189Y-4.0819
M15
G01X1.5189Y-4.1055
M16
G05
G00X1.5189Y-4.6346
M15
G01X1.5189Y-4.6583
M16
G05
G00X1.5189Y-4.948
M15
G01X1.5189Y-4.9717
M16
G05
G00X2.8118Y-4.2252
M15
G01X2.8118Y-4.2016
M16
G05
G00X2.8118Y-4.5386
M15
G01X2.8118Y-4.515
M16
G05
G00X2.8118Y-4.1996
M15
G01X2.8354Y-4.1996
M16
G05
G00X2.8118Y-4.5406
M15
G01X2.8354Y-4.5406
M16
G05
G00X3.0461Y-4.1996
M15
G01X3.0657Y-4.1996
M16
G05
G00X3.0461Y-4.5406
M15
G01X3.0657Y-4.5406
M16
G05
T0
M30
