G04 #@! TF.GenerationSoftware,KiCad,Pcbnew,5.1.9-73d0e3b20d~88~ubuntu20.04.1*
G04 #@! TF.CreationDate,2021-01-17T19:34:15+02:00*
G04 #@! TF.ProjectId,USB-TypeC-Switch,5553422d-5479-4706-9543-2d5377697463,rev?*
G04 #@! TF.SameCoordinates,Original*
G04 #@! TF.FileFunction,Paste,Top*
G04 #@! TF.FilePolarity,Positive*
%FSLAX46Y46*%
G04 Gerber Fmt 4.6, Leading zero omitted, Abs format (unit mm)*
G04 Created by KiCad (PCBNEW 5.1.9-73d0e3b20d~88~ubuntu20.04.1) date 2021-01-17 19:34:15*
%MOMM*%
%LPD*%
G01*
G04 APERTURE LIST*
%ADD10C,0.010000*%
%ADD11R,0.710000X0.200000*%
%ADD12R,0.200000X0.710000*%
%ADD13R,0.200000X0.800000*%
%ADD14R,0.800000X0.200000*%
%ADD15R,0.914400X0.225000*%
%ADD16R,0.812800X0.225000*%
%ADD17R,0.225000X0.812800*%
%ADD18R,0.178600X0.604799*%
%ADD19R,0.604799X0.178600*%
%ADD20R,1.346200X0.812800*%
%ADD21R,0.700000X0.320000*%
%ADD22R,0.650000X1.220000*%
%ADD23C,0.100000*%
%ADD24R,0.900000X1.300000*%
%ADD25R,1.000000X1.700000*%
%ADD26R,0.600000X0.450000*%
%ADD27R,0.450000X0.600000*%
G04 APERTURE END LIST*
D10*
G36*
X55650000Y-115660000D02*
G01*
X55050000Y-115660000D01*
X55050000Y-115060000D01*
X55650000Y-115060000D01*
X55650000Y-115660000D01*
G37*
X55650000Y-115660000D02*
X55050000Y-115660000D01*
X55050000Y-115060000D01*
X55650000Y-115060000D01*
X55650000Y-115660000D01*
G36*
X55650000Y-114940000D02*
G01*
X55050000Y-114940000D01*
X55050000Y-114340000D01*
X55650000Y-114340000D01*
X55650000Y-114940000D01*
G37*
X55650000Y-114940000D02*
X55050000Y-114940000D01*
X55050000Y-114340000D01*
X55650000Y-114340000D01*
X55650000Y-114940000D01*
G36*
X55650000Y-107660000D02*
G01*
X55050000Y-107660000D01*
X55050000Y-107060000D01*
X55650000Y-107060000D01*
X55650000Y-107660000D01*
G37*
X55650000Y-107660000D02*
X55050000Y-107660000D01*
X55050000Y-107060000D01*
X55650000Y-107060000D01*
X55650000Y-107660000D01*
G36*
X55650000Y-106940000D02*
G01*
X55050000Y-106940000D01*
X55050000Y-106340000D01*
X55650000Y-106340000D01*
X55650000Y-106940000D01*
G37*
X55650000Y-106940000D02*
X55050000Y-106940000D01*
X55050000Y-106340000D01*
X55650000Y-106340000D01*
X55650000Y-106940000D01*
G36*
G01*
X49191250Y-129975000D02*
X48028750Y-129975000D01*
G75*
G02*
X47810000Y-129756250I0J218750D01*
G01*
X47810000Y-129318750D01*
G75*
G02*
X48028750Y-129100000I218750J0D01*
G01*
X49191250Y-129100000D01*
G75*
G02*
X49410000Y-129318750I0J-218750D01*
G01*
X49410000Y-129756250D01*
G75*
G02*
X49191250Y-129975000I-218750J0D01*
G01*
G37*
G36*
G01*
X49191250Y-132100000D02*
X48028750Y-132100000D01*
G75*
G02*
X47810000Y-131881250I0J218750D01*
G01*
X47810000Y-131443750D01*
G75*
G02*
X48028750Y-131225000I218750J0D01*
G01*
X49191250Y-131225000D01*
G75*
G02*
X49410000Y-131443750I0J-218750D01*
G01*
X49410000Y-131881250D01*
G75*
G02*
X49191250Y-132100000I-218750J0D01*
G01*
G37*
D11*
X56345000Y-115800000D03*
X56345000Y-115400000D03*
X56345000Y-115000000D03*
X56345000Y-114600000D03*
X56345000Y-114200000D03*
D12*
X55950000Y-113605000D03*
X55550000Y-113605000D03*
X55150000Y-113605000D03*
X54750000Y-113605000D03*
D11*
X54355000Y-114200000D03*
X54355000Y-114600000D03*
X54355000Y-115000000D03*
X54355000Y-115400000D03*
X54355000Y-115800000D03*
D12*
X54750000Y-116395000D03*
X55150000Y-116395000D03*
X55550000Y-116395000D03*
X55950000Y-116395000D03*
D11*
X56345000Y-107800000D03*
X56345000Y-107400000D03*
X56345000Y-107000000D03*
X56345000Y-106600000D03*
X56345000Y-106200000D03*
D12*
X55950000Y-105605000D03*
X55550000Y-105605000D03*
X55150000Y-105605000D03*
X54750000Y-105605000D03*
D11*
X54355000Y-106200000D03*
X54355000Y-106600000D03*
X54355000Y-107000000D03*
X54355000Y-107400000D03*
X54355000Y-107800000D03*
D12*
X54750000Y-108395000D03*
X55150000Y-108395000D03*
X55550000Y-108395000D03*
X55950000Y-108395000D03*
D13*
X63390000Y-123450000D03*
X62990000Y-123450000D03*
X62590000Y-123450000D03*
X62190000Y-123450000D03*
D14*
X61490000Y-123750000D03*
X61490000Y-124150000D03*
X61490000Y-124550000D03*
X61490000Y-124950000D03*
D13*
X62190000Y-125250000D03*
X62590000Y-125250000D03*
X62990000Y-125250000D03*
X63390000Y-125250000D03*
D14*
X64090000Y-124950000D03*
X64090000Y-124550000D03*
X64090000Y-124150000D03*
X64090000Y-123750000D03*
D15*
X62253900Y-119000000D03*
D16*
X62203100Y-119400000D03*
D17*
X62400001Y-120060100D03*
X62800000Y-120060100D03*
X63199999Y-120060100D03*
D16*
X63396900Y-119400000D03*
X63396900Y-119000000D03*
D17*
X63199999Y-118339900D03*
X62800000Y-118339900D03*
X62400001Y-118339900D03*
D15*
X63346100Y-102900000D03*
D16*
X63396900Y-102500000D03*
D17*
X63199999Y-101839900D03*
X62800000Y-101839900D03*
X62400001Y-101839900D03*
D16*
X62203100Y-102500000D03*
X62203100Y-102900000D03*
D17*
X62400001Y-103560100D03*
X62800000Y-103560100D03*
X63199999Y-103560100D03*
D18*
X35530001Y-112843800D03*
X35029999Y-112843800D03*
X34530000Y-112843800D03*
X34030001Y-112843800D03*
X33529999Y-112843800D03*
D19*
X33033800Y-113339999D03*
X33033800Y-113840001D03*
X33033800Y-114340000D03*
X33033800Y-114839999D03*
X33033800Y-115340001D03*
D18*
X33529999Y-115836200D03*
X34030001Y-115836200D03*
X34530000Y-115836200D03*
X35029999Y-115836200D03*
X35530001Y-115836200D03*
D19*
X36026200Y-115340001D03*
X36026200Y-114839999D03*
X36026200Y-113840001D03*
X36026200Y-113339999D03*
D20*
X34700000Y-113820000D03*
X34700000Y-114860000D03*
D18*
X35530001Y-106223800D03*
X35029999Y-106223800D03*
X34530000Y-106223800D03*
X34030001Y-106223800D03*
X33529999Y-106223800D03*
D19*
X33033800Y-106719999D03*
X33033800Y-107220001D03*
X33033800Y-107720000D03*
X33033800Y-108219999D03*
X33033800Y-108720001D03*
D18*
X33529999Y-109216200D03*
X34030001Y-109216200D03*
X34530000Y-109216200D03*
X35029999Y-109216200D03*
X35530001Y-109216200D03*
D19*
X36026200Y-108720001D03*
X36026200Y-108219999D03*
X36026200Y-107220001D03*
X36026200Y-106719999D03*
D20*
X34700000Y-107200000D03*
X34700000Y-108240000D03*
D21*
X40240000Y-119250000D03*
X40240000Y-119750000D03*
X40240000Y-120250000D03*
X40240000Y-120750000D03*
X40240000Y-121250000D03*
X40240000Y-121750000D03*
X40240000Y-122250000D03*
X40240000Y-122750000D03*
X40240000Y-123250000D03*
X40240000Y-123750000D03*
X40240000Y-124250000D03*
X40240000Y-124750000D03*
X69760000Y-113750000D03*
X69760000Y-113250000D03*
X69760000Y-112750000D03*
X69760000Y-112250000D03*
X69760000Y-111750000D03*
X69760000Y-111250000D03*
X69760000Y-110750000D03*
X69760000Y-110250000D03*
X69760000Y-109750000D03*
X69760000Y-109250000D03*
X69760000Y-108750000D03*
X69760000Y-108250000D03*
X40240000Y-97250000D03*
X40240000Y-97750000D03*
X40240000Y-98250000D03*
X40240000Y-98750000D03*
X40240000Y-99250000D03*
X40240000Y-99750000D03*
X40240000Y-100250000D03*
X40240000Y-100750000D03*
X40240000Y-101250000D03*
X40240000Y-101750000D03*
X40240000Y-102250000D03*
X40240000Y-102750000D03*
G36*
G01*
X43095000Y-130150000D02*
X42145000Y-130150000D01*
G75*
G02*
X41895000Y-129900000I0J250000D01*
G01*
X41895000Y-129400000D01*
G75*
G02*
X42145000Y-129150000I250000J0D01*
G01*
X43095000Y-129150000D01*
G75*
G02*
X43345000Y-129400000I0J-250000D01*
G01*
X43345000Y-129900000D01*
G75*
G02*
X43095000Y-130150000I-250000J0D01*
G01*
G37*
G36*
G01*
X43095000Y-132050000D02*
X42145000Y-132050000D01*
G75*
G02*
X41895000Y-131800000I0J250000D01*
G01*
X41895000Y-131300000D01*
G75*
G02*
X42145000Y-131050000I250000J0D01*
G01*
X43095000Y-131050000D01*
G75*
G02*
X43345000Y-131300000I0J-250000D01*
G01*
X43345000Y-131800000D01*
G75*
G02*
X43095000Y-132050000I-250000J0D01*
G01*
G37*
G36*
G01*
X68915000Y-97706000D02*
X69865000Y-97706000D01*
G75*
G02*
X70115000Y-97956000I0J-250000D01*
G01*
X70115000Y-98456000D01*
G75*
G02*
X69865000Y-98706000I-250000J0D01*
G01*
X68915000Y-98706000D01*
G75*
G02*
X68665000Y-98456000I0J250000D01*
G01*
X68665000Y-97956000D01*
G75*
G02*
X68915000Y-97706000I250000J0D01*
G01*
G37*
G36*
G01*
X68915000Y-99606000D02*
X69865000Y-99606000D01*
G75*
G02*
X70115000Y-99856000I0J-250000D01*
G01*
X70115000Y-100356000D01*
G75*
G02*
X69865000Y-100606000I-250000J0D01*
G01*
X68915000Y-100606000D01*
G75*
G02*
X68665000Y-100356000I0J250000D01*
G01*
X68665000Y-99856000D01*
G75*
G02*
X68915000Y-99606000I250000J0D01*
G01*
G37*
G36*
G01*
X66883000Y-99606000D02*
X67833000Y-99606000D01*
G75*
G02*
X68083000Y-99856000I0J-250000D01*
G01*
X68083000Y-100356000D01*
G75*
G02*
X67833000Y-100606000I-250000J0D01*
G01*
X66883000Y-100606000D01*
G75*
G02*
X66633000Y-100356000I0J250000D01*
G01*
X66633000Y-99856000D01*
G75*
G02*
X66883000Y-99606000I250000J0D01*
G01*
G37*
G36*
G01*
X66883000Y-97706000D02*
X67833000Y-97706000D01*
G75*
G02*
X68083000Y-97956000I0J-250000D01*
G01*
X68083000Y-98456000D01*
G75*
G02*
X67833000Y-98706000I-250000J0D01*
G01*
X66883000Y-98706000D01*
G75*
G02*
X66633000Y-98456000I0J250000D01*
G01*
X66633000Y-97956000D01*
G75*
G02*
X66883000Y-97706000I250000J0D01*
G01*
G37*
G36*
G01*
X61427000Y-89538000D02*
X60477000Y-89538000D01*
G75*
G02*
X60227000Y-89288000I0J250000D01*
G01*
X60227000Y-88788000D01*
G75*
G02*
X60477000Y-88538000I250000J0D01*
G01*
X61427000Y-88538000D01*
G75*
G02*
X61677000Y-88788000I0J-250000D01*
G01*
X61677000Y-89288000D01*
G75*
G02*
X61427000Y-89538000I-250000J0D01*
G01*
G37*
G36*
G01*
X61427000Y-91438000D02*
X60477000Y-91438000D01*
G75*
G02*
X60227000Y-91188000I0J250000D01*
G01*
X60227000Y-90688000D01*
G75*
G02*
X60477000Y-90438000I250000J0D01*
G01*
X61427000Y-90438000D01*
G75*
G02*
X61677000Y-90688000I0J-250000D01*
G01*
X61677000Y-91188000D01*
G75*
G02*
X61427000Y-91438000I-250000J0D01*
G01*
G37*
G36*
G01*
X59395000Y-91438000D02*
X58445000Y-91438000D01*
G75*
G02*
X58195000Y-91188000I0J250000D01*
G01*
X58195000Y-90688000D01*
G75*
G02*
X58445000Y-90438000I250000J0D01*
G01*
X59395000Y-90438000D01*
G75*
G02*
X59645000Y-90688000I0J-250000D01*
G01*
X59645000Y-91188000D01*
G75*
G02*
X59395000Y-91438000I-250000J0D01*
G01*
G37*
G36*
G01*
X59395000Y-89538000D02*
X58445000Y-89538000D01*
G75*
G02*
X58195000Y-89288000I0J250000D01*
G01*
X58195000Y-88788000D01*
G75*
G02*
X58445000Y-88538000I250000J0D01*
G01*
X59395000Y-88538000D01*
G75*
G02*
X59645000Y-88788000I0J-250000D01*
G01*
X59645000Y-89288000D01*
G75*
G02*
X59395000Y-89538000I-250000J0D01*
G01*
G37*
G36*
G01*
X40305000Y-110579999D02*
X40305000Y-111480001D01*
G75*
G02*
X40055001Y-111730000I-249999J0D01*
G01*
X39529999Y-111730000D01*
G75*
G02*
X39280000Y-111480001I0J249999D01*
G01*
X39280000Y-110579999D01*
G75*
G02*
X39529999Y-110330000I249999J0D01*
G01*
X40055001Y-110330000D01*
G75*
G02*
X40305000Y-110579999I0J-249999D01*
G01*
G37*
G36*
G01*
X38480000Y-110579999D02*
X38480000Y-111480001D01*
G75*
G02*
X38230001Y-111730000I-249999J0D01*
G01*
X37704999Y-111730000D01*
G75*
G02*
X37455000Y-111480001I0J249999D01*
G01*
X37455000Y-110579999D01*
G75*
G02*
X37704999Y-110330000I249999J0D01*
G01*
X38230001Y-110330000D01*
G75*
G02*
X38480000Y-110579999I0J-249999D01*
G01*
G37*
G36*
G01*
X32965000Y-111480001D02*
X32965000Y-110579999D01*
G75*
G02*
X33214999Y-110330000I249999J0D01*
G01*
X33740001Y-110330000D01*
G75*
G02*
X33990000Y-110579999I0J-249999D01*
G01*
X33990000Y-111480001D01*
G75*
G02*
X33740001Y-111730000I-249999J0D01*
G01*
X33214999Y-111730000D01*
G75*
G02*
X32965000Y-111480001I0J249999D01*
G01*
G37*
G36*
G01*
X34790000Y-111480001D02*
X34790000Y-110579999D01*
G75*
G02*
X35039999Y-110330000I249999J0D01*
G01*
X35565001Y-110330000D01*
G75*
G02*
X35815000Y-110579999I0J-249999D01*
G01*
X35815000Y-111480001D01*
G75*
G02*
X35565001Y-111730000I-249999J0D01*
G01*
X35039999Y-111730000D01*
G75*
G02*
X34790000Y-111480001I0J249999D01*
G01*
G37*
G36*
G01*
X41840000Y-89379999D02*
X41840000Y-90280001D01*
G75*
G02*
X41590001Y-90530000I-249999J0D01*
G01*
X41064999Y-90530000D01*
G75*
G02*
X40815000Y-90280001I0J249999D01*
G01*
X40815000Y-89379999D01*
G75*
G02*
X41064999Y-89130000I249999J0D01*
G01*
X41590001Y-89130000D01*
G75*
G02*
X41840000Y-89379999I0J-249999D01*
G01*
G37*
G36*
G01*
X43665000Y-89379999D02*
X43665000Y-90280001D01*
G75*
G02*
X43415001Y-90530000I-249999J0D01*
G01*
X42889999Y-90530000D01*
G75*
G02*
X42640000Y-90280001I0J249999D01*
G01*
X42640000Y-89379999D01*
G75*
G02*
X42889999Y-89130000I249999J0D01*
G01*
X43415001Y-89130000D01*
G75*
G02*
X43665000Y-89379999I0J-249999D01*
G01*
G37*
G36*
G01*
X47085000Y-89379999D02*
X47085000Y-90280001D01*
G75*
G02*
X46835001Y-90530000I-249999J0D01*
G01*
X46309999Y-90530000D01*
G75*
G02*
X46060000Y-90280001I0J249999D01*
G01*
X46060000Y-89379999D01*
G75*
G02*
X46309999Y-89130000I249999J0D01*
G01*
X46835001Y-89130000D01*
G75*
G02*
X47085000Y-89379999I0J-249999D01*
G01*
G37*
G36*
G01*
X45260000Y-89379999D02*
X45260000Y-90280001D01*
G75*
G02*
X45010001Y-90530000I-249999J0D01*
G01*
X44484999Y-90530000D01*
G75*
G02*
X44235000Y-90280001I0J249999D01*
G01*
X44235000Y-89379999D01*
G75*
G02*
X44484999Y-89130000I249999J0D01*
G01*
X45010001Y-89130000D01*
G75*
G02*
X45260000Y-89379999I0J-249999D01*
G01*
G37*
G36*
G01*
X43655000Y-92829999D02*
X43655000Y-93730001D01*
G75*
G02*
X43405001Y-93980000I-249999J0D01*
G01*
X42879999Y-93980000D01*
G75*
G02*
X42630000Y-93730001I0J249999D01*
G01*
X42630000Y-92829999D01*
G75*
G02*
X42879999Y-92580000I249999J0D01*
G01*
X43405001Y-92580000D01*
G75*
G02*
X43655000Y-92829999I0J-249999D01*
G01*
G37*
G36*
G01*
X41830000Y-92829999D02*
X41830000Y-93730001D01*
G75*
G02*
X41580001Y-93980000I-249999J0D01*
G01*
X41054999Y-93980000D01*
G75*
G02*
X40805000Y-93730001I0J249999D01*
G01*
X40805000Y-92829999D01*
G75*
G02*
X41054999Y-92580000I249999J0D01*
G01*
X41580001Y-92580000D01*
G75*
G02*
X41830000Y-92829999I0J-249999D01*
G01*
G37*
G36*
G01*
X45330000Y-92809999D02*
X45330000Y-93710001D01*
G75*
G02*
X45080001Y-93960000I-249999J0D01*
G01*
X44554999Y-93960000D01*
G75*
G02*
X44305000Y-93710001I0J249999D01*
G01*
X44305000Y-92809999D01*
G75*
G02*
X44554999Y-92560000I249999J0D01*
G01*
X45080001Y-92560000D01*
G75*
G02*
X45330000Y-92809999I0J-249999D01*
G01*
G37*
G36*
G01*
X47155000Y-92809999D02*
X47155000Y-93710001D01*
G75*
G02*
X46905001Y-93960000I-249999J0D01*
G01*
X46379999Y-93960000D01*
G75*
G02*
X46130000Y-93710001I0J249999D01*
G01*
X46130000Y-92809999D01*
G75*
G02*
X46379999Y-92560000I249999J0D01*
G01*
X46905001Y-92560000D01*
G75*
G02*
X47155000Y-92809999I0J-249999D01*
G01*
G37*
G36*
G01*
X77209000Y-122639999D02*
X77209000Y-123540001D01*
G75*
G02*
X76959001Y-123790000I-249999J0D01*
G01*
X76433999Y-123790000D01*
G75*
G02*
X76184000Y-123540001I0J249999D01*
G01*
X76184000Y-122639999D01*
G75*
G02*
X76433999Y-122390000I249999J0D01*
G01*
X76959001Y-122390000D01*
G75*
G02*
X77209000Y-122639999I0J-249999D01*
G01*
G37*
G36*
G01*
X75384000Y-122639999D02*
X75384000Y-123540001D01*
G75*
G02*
X75134001Y-123790000I-249999J0D01*
G01*
X74608999Y-123790000D01*
G75*
G02*
X74359000Y-123540001I0J249999D01*
G01*
X74359000Y-122639999D01*
G75*
G02*
X74608999Y-122390000I249999J0D01*
G01*
X75134001Y-122390000D01*
G75*
G02*
X75384000Y-122639999I0J-249999D01*
G01*
G37*
G36*
G01*
X76190000Y-125770001D02*
X76190000Y-124869999D01*
G75*
G02*
X76439999Y-124620000I249999J0D01*
G01*
X76965001Y-124620000D01*
G75*
G02*
X77215000Y-124869999I0J-249999D01*
G01*
X77215000Y-125770001D01*
G75*
G02*
X76965001Y-126020000I-249999J0D01*
G01*
X76439999Y-126020000D01*
G75*
G02*
X76190000Y-125770001I0J249999D01*
G01*
G37*
G36*
G01*
X74365000Y-125770001D02*
X74365000Y-124869999D01*
G75*
G02*
X74614999Y-124620000I249999J0D01*
G01*
X75140001Y-124620000D01*
G75*
G02*
X75390000Y-124869999I0J-249999D01*
G01*
X75390000Y-125770001D01*
G75*
G02*
X75140001Y-126020000I-249999J0D01*
G01*
X74614999Y-126020000D01*
G75*
G02*
X74365000Y-125770001I0J249999D01*
G01*
G37*
G36*
G01*
X73250001Y-91075000D02*
X72349999Y-91075000D01*
G75*
G02*
X72100000Y-90825001I0J249999D01*
G01*
X72100000Y-90299999D01*
G75*
G02*
X72349999Y-90050000I249999J0D01*
G01*
X73250001Y-90050000D01*
G75*
G02*
X73500000Y-90299999I0J-249999D01*
G01*
X73500000Y-90825001D01*
G75*
G02*
X73250001Y-91075000I-249999J0D01*
G01*
G37*
G36*
G01*
X73250001Y-89250000D02*
X72349999Y-89250000D01*
G75*
G02*
X72100000Y-89000001I0J249999D01*
G01*
X72100000Y-88474999D01*
G75*
G02*
X72349999Y-88225000I249999J0D01*
G01*
X73250001Y-88225000D01*
G75*
G02*
X73500000Y-88474999I0J-249999D01*
G01*
X73500000Y-89000001D01*
G75*
G02*
X73250001Y-89250000I-249999J0D01*
G01*
G37*
G36*
G01*
X75980000Y-105100001D02*
X75980000Y-104199999D01*
G75*
G02*
X76229999Y-103950000I249999J0D01*
G01*
X76755001Y-103950000D01*
G75*
G02*
X77005000Y-104199999I0J-249999D01*
G01*
X77005000Y-105100001D01*
G75*
G02*
X76755001Y-105350000I-249999J0D01*
G01*
X76229999Y-105350000D01*
G75*
G02*
X75980000Y-105100001I0J249999D01*
G01*
G37*
G36*
G01*
X74155000Y-105100001D02*
X74155000Y-104199999D01*
G75*
G02*
X74404999Y-103950000I249999J0D01*
G01*
X74930001Y-103950000D01*
G75*
G02*
X75180000Y-104199999I0J-249999D01*
G01*
X75180000Y-105100001D01*
G75*
G02*
X74930001Y-105350000I-249999J0D01*
G01*
X74404999Y-105350000D01*
G75*
G02*
X74155000Y-105100001I0J249999D01*
G01*
G37*
D22*
X46560000Y-131850000D03*
X45610000Y-131850000D03*
X44660000Y-131850000D03*
X44660000Y-129230000D03*
X45610000Y-129230000D03*
X46560000Y-129230000D03*
D23*
G36*
X54053500Y-133240000D02*
G01*
X54053500Y-130115000D01*
X54470000Y-130115000D01*
X54470000Y-128640000D01*
X55370000Y-128640000D01*
X55370000Y-130115000D01*
X55786500Y-130115000D01*
X55786500Y-133240000D01*
X54053500Y-133240000D01*
G37*
D24*
X53420000Y-129290000D03*
X56420000Y-129290000D03*
G36*
G01*
X61259442Y-94835580D02*
X61602389Y-95178527D01*
G75*
G02*
X61602389Y-95521473I-171473J-171473D01*
G01*
X61259442Y-95864420D01*
G75*
G02*
X60916496Y-95864420I-171473J171473D01*
G01*
X60573549Y-95521473D01*
G75*
G02*
X60573549Y-95178527I171473J171473D01*
G01*
X60916496Y-94835580D01*
G75*
G02*
X61259442Y-94835580I171473J-171473D01*
G01*
G37*
G36*
G01*
X62107970Y-95684108D02*
X62450917Y-96027055D01*
G75*
G02*
X62450917Y-96370001I-171473J-171473D01*
G01*
X62107970Y-96712948D01*
G75*
G02*
X61765024Y-96712948I-171473J171473D01*
G01*
X61422077Y-96370001D01*
G75*
G02*
X61422077Y-96027055I171473J171473D01*
G01*
X61765024Y-95684108D01*
G75*
G02*
X62107970Y-95684108I171473J-171473D01*
G01*
G37*
G36*
G01*
X62956498Y-96532636D02*
X63299445Y-96875583D01*
G75*
G02*
X63299445Y-97218529I-171473J-171473D01*
G01*
X62956498Y-97561476D01*
G75*
G02*
X62613552Y-97561476I-171473J171473D01*
G01*
X62270605Y-97218529D01*
G75*
G02*
X62270605Y-96875583I171473J171473D01*
G01*
X62613552Y-96532636D01*
G75*
G02*
X62956498Y-96532636I171473J-171473D01*
G01*
G37*
G36*
G01*
X62107970Y-93987052D02*
X62450917Y-94329999D01*
G75*
G02*
X62450917Y-94672945I-171473J-171473D01*
G01*
X62107970Y-95015892D01*
G75*
G02*
X61765024Y-95015892I-171473J171473D01*
G01*
X61422077Y-94672945D01*
G75*
G02*
X61422077Y-94329999I171473J171473D01*
G01*
X61765024Y-93987052D01*
G75*
G02*
X62107970Y-93987052I171473J-171473D01*
G01*
G37*
G36*
G01*
X62956498Y-94835580D02*
X63299445Y-95178527D01*
G75*
G02*
X63299445Y-95521473I-171473J-171473D01*
G01*
X62956498Y-95864420D01*
G75*
G02*
X62613552Y-95864420I-171473J171473D01*
G01*
X62270605Y-95521473D01*
G75*
G02*
X62270605Y-95178527I171473J171473D01*
G01*
X62613552Y-94835580D01*
G75*
G02*
X62956498Y-94835580I171473J-171473D01*
G01*
G37*
G36*
G01*
X63805026Y-95684108D02*
X64147973Y-96027055D01*
G75*
G02*
X64147973Y-96370001I-171473J-171473D01*
G01*
X63805026Y-96712948D01*
G75*
G02*
X63462080Y-96712948I-171473J171473D01*
G01*
X63119133Y-96370001D01*
G75*
G02*
X63119133Y-96027055I171473J171473D01*
G01*
X63462080Y-95684108D01*
G75*
G02*
X63805026Y-95684108I171473J-171473D01*
G01*
G37*
G36*
G01*
X62956498Y-93138524D02*
X63299445Y-93481471D01*
G75*
G02*
X63299445Y-93824417I-171473J-171473D01*
G01*
X62956498Y-94167364D01*
G75*
G02*
X62613552Y-94167364I-171473J171473D01*
G01*
X62270605Y-93824417D01*
G75*
G02*
X62270605Y-93481471I171473J171473D01*
G01*
X62613552Y-93138524D01*
G75*
G02*
X62956498Y-93138524I171473J-171473D01*
G01*
G37*
G36*
G01*
X63805026Y-93987052D02*
X64147973Y-94329999D01*
G75*
G02*
X64147973Y-94672945I-171473J-171473D01*
G01*
X63805026Y-95015892D01*
G75*
G02*
X63462080Y-95015892I-171473J171473D01*
G01*
X63119133Y-94672945D01*
G75*
G02*
X63119133Y-94329999I171473J171473D01*
G01*
X63462080Y-93987052D01*
G75*
G02*
X63805026Y-93987052I171473J-171473D01*
G01*
G37*
G36*
G01*
X64653554Y-94835580D02*
X64996501Y-95178527D01*
G75*
G02*
X64996501Y-95521473I-171473J-171473D01*
G01*
X64653554Y-95864420D01*
G75*
G02*
X64310608Y-95864420I-171473J171473D01*
G01*
X63967661Y-95521473D01*
G75*
G02*
X63967661Y-95178527I171473J171473D01*
G01*
X64310608Y-94835580D01*
G75*
G02*
X64653554Y-94835580I171473J-171473D01*
G01*
G37*
G36*
G01*
X65604613Y-95517938D02*
X66081910Y-95995235D01*
G75*
G02*
X66081910Y-96083623I-44194J-44194D01*
G01*
X65993521Y-96172012D01*
G75*
G02*
X65905133Y-96172012I-44194J44194D01*
G01*
X65427836Y-95694715D01*
G75*
G02*
X65427836Y-95606327I44194J44194D01*
G01*
X65516225Y-95517938D01*
G75*
G02*
X65604613Y-95517938I44194J-44194D01*
G01*
G37*
G36*
G01*
X65251060Y-95871491D02*
X65728357Y-96348788D01*
G75*
G02*
X65728357Y-96437176I-44194J-44194D01*
G01*
X65639968Y-96525565D01*
G75*
G02*
X65551580Y-96525565I-44194J44194D01*
G01*
X65074283Y-96048268D01*
G75*
G02*
X65074283Y-95959880I44194J44194D01*
G01*
X65162672Y-95871491D01*
G75*
G02*
X65251060Y-95871491I44194J-44194D01*
G01*
G37*
G36*
G01*
X64897507Y-96225045D02*
X65374804Y-96702342D01*
G75*
G02*
X65374804Y-96790730I-44194J-44194D01*
G01*
X65286415Y-96879119D01*
G75*
G02*
X65198027Y-96879119I-44194J44194D01*
G01*
X64720730Y-96401822D01*
G75*
G02*
X64720730Y-96313434I44194J44194D01*
G01*
X64809119Y-96225045D01*
G75*
G02*
X64897507Y-96225045I44194J-44194D01*
G01*
G37*
G36*
G01*
X64543953Y-96578598D02*
X65021250Y-97055895D01*
G75*
G02*
X65021250Y-97144283I-44194J-44194D01*
G01*
X64932861Y-97232672D01*
G75*
G02*
X64844473Y-97232672I-44194J44194D01*
G01*
X64367176Y-96755375D01*
G75*
G02*
X64367176Y-96666987I44194J44194D01*
G01*
X64455565Y-96578598D01*
G75*
G02*
X64543953Y-96578598I44194J-44194D01*
G01*
G37*
G36*
G01*
X64190400Y-96932151D02*
X64667697Y-97409448D01*
G75*
G02*
X64667697Y-97497836I-44194J-44194D01*
G01*
X64579308Y-97586225D01*
G75*
G02*
X64490920Y-97586225I-44194J44194D01*
G01*
X64013623Y-97108928D01*
G75*
G02*
X64013623Y-97020540I44194J44194D01*
G01*
X64102012Y-96932151D01*
G75*
G02*
X64190400Y-96932151I44194J-44194D01*
G01*
G37*
G36*
G01*
X63836847Y-97285705D02*
X64314144Y-97763002D01*
G75*
G02*
X64314144Y-97851390I-44194J-44194D01*
G01*
X64225755Y-97939779D01*
G75*
G02*
X64137367Y-97939779I-44194J44194D01*
G01*
X63660070Y-97462482D01*
G75*
G02*
X63660070Y-97374094I44194J44194D01*
G01*
X63748459Y-97285705D01*
G75*
G02*
X63836847Y-97285705I44194J-44194D01*
G01*
G37*
G36*
G01*
X63483293Y-97639258D02*
X63960590Y-98116555D01*
G75*
G02*
X63960590Y-98204943I-44194J-44194D01*
G01*
X63872201Y-98293332D01*
G75*
G02*
X63783813Y-98293332I-44194J44194D01*
G01*
X63306516Y-97816035D01*
G75*
G02*
X63306516Y-97727647I44194J44194D01*
G01*
X63394905Y-97639258D01*
G75*
G02*
X63483293Y-97639258I44194J-44194D01*
G01*
G37*
G36*
G01*
X63129740Y-97992811D02*
X63607037Y-98470108D01*
G75*
G02*
X63607037Y-98558496I-44194J-44194D01*
G01*
X63518648Y-98646885D01*
G75*
G02*
X63430260Y-98646885I-44194J44194D01*
G01*
X62952963Y-98169588D01*
G75*
G02*
X62952963Y-98081200I44194J44194D01*
G01*
X63041352Y-97992811D01*
G75*
G02*
X63129740Y-97992811I44194J-44194D01*
G01*
G37*
G36*
G01*
X62528698Y-97992811D02*
X62617087Y-98081200D01*
G75*
G02*
X62617087Y-98169588I-44194J-44194D01*
G01*
X62139790Y-98646885D01*
G75*
G02*
X62051402Y-98646885I-44194J44194D01*
G01*
X61963013Y-98558496D01*
G75*
G02*
X61963013Y-98470108I44194J44194D01*
G01*
X62440310Y-97992811D01*
G75*
G02*
X62528698Y-97992811I44194J-44194D01*
G01*
G37*
G36*
G01*
X62175145Y-97639258D02*
X62263534Y-97727647D01*
G75*
G02*
X62263534Y-97816035I-44194J-44194D01*
G01*
X61786237Y-98293332D01*
G75*
G02*
X61697849Y-98293332I-44194J44194D01*
G01*
X61609460Y-98204943D01*
G75*
G02*
X61609460Y-98116555I44194J44194D01*
G01*
X62086757Y-97639258D01*
G75*
G02*
X62175145Y-97639258I44194J-44194D01*
G01*
G37*
G36*
G01*
X61821591Y-97285705D02*
X61909980Y-97374094D01*
G75*
G02*
X61909980Y-97462482I-44194J-44194D01*
G01*
X61432683Y-97939779D01*
G75*
G02*
X61344295Y-97939779I-44194J44194D01*
G01*
X61255906Y-97851390D01*
G75*
G02*
X61255906Y-97763002I44194J44194D01*
G01*
X61733203Y-97285705D01*
G75*
G02*
X61821591Y-97285705I44194J-44194D01*
G01*
G37*
G36*
G01*
X61468038Y-96932151D02*
X61556427Y-97020540D01*
G75*
G02*
X61556427Y-97108928I-44194J-44194D01*
G01*
X61079130Y-97586225D01*
G75*
G02*
X60990742Y-97586225I-44194J44194D01*
G01*
X60902353Y-97497836D01*
G75*
G02*
X60902353Y-97409448I44194J44194D01*
G01*
X61379650Y-96932151D01*
G75*
G02*
X61468038Y-96932151I44194J-44194D01*
G01*
G37*
G36*
G01*
X61114485Y-96578598D02*
X61202874Y-96666987D01*
G75*
G02*
X61202874Y-96755375I-44194J-44194D01*
G01*
X60725577Y-97232672D01*
G75*
G02*
X60637189Y-97232672I-44194J44194D01*
G01*
X60548800Y-97144283D01*
G75*
G02*
X60548800Y-97055895I44194J44194D01*
G01*
X61026097Y-96578598D01*
G75*
G02*
X61114485Y-96578598I44194J-44194D01*
G01*
G37*
G36*
G01*
X60760931Y-96225045D02*
X60849320Y-96313434D01*
G75*
G02*
X60849320Y-96401822I-44194J-44194D01*
G01*
X60372023Y-96879119D01*
G75*
G02*
X60283635Y-96879119I-44194J44194D01*
G01*
X60195246Y-96790730D01*
G75*
G02*
X60195246Y-96702342I44194J44194D01*
G01*
X60672543Y-96225045D01*
G75*
G02*
X60760931Y-96225045I44194J-44194D01*
G01*
G37*
G36*
G01*
X60407378Y-95871491D02*
X60495767Y-95959880D01*
G75*
G02*
X60495767Y-96048268I-44194J-44194D01*
G01*
X60018470Y-96525565D01*
G75*
G02*
X59930082Y-96525565I-44194J44194D01*
G01*
X59841693Y-96437176D01*
G75*
G02*
X59841693Y-96348788I44194J44194D01*
G01*
X60318990Y-95871491D01*
G75*
G02*
X60407378Y-95871491I44194J-44194D01*
G01*
G37*
G36*
G01*
X60053825Y-95517938D02*
X60142214Y-95606327D01*
G75*
G02*
X60142214Y-95694715I-44194J-44194D01*
G01*
X59664917Y-96172012D01*
G75*
G02*
X59576529Y-96172012I-44194J44194D01*
G01*
X59488140Y-96083623D01*
G75*
G02*
X59488140Y-95995235I44194J44194D01*
G01*
X59965437Y-95517938D01*
G75*
G02*
X60053825Y-95517938I44194J-44194D01*
G01*
G37*
G36*
G01*
X59664917Y-94527988D02*
X60142214Y-95005285D01*
G75*
G02*
X60142214Y-95093673I-44194J-44194D01*
G01*
X60053825Y-95182062D01*
G75*
G02*
X59965437Y-95182062I-44194J44194D01*
G01*
X59488140Y-94704765D01*
G75*
G02*
X59488140Y-94616377I44194J44194D01*
G01*
X59576529Y-94527988D01*
G75*
G02*
X59664917Y-94527988I44194J-44194D01*
G01*
G37*
G36*
G01*
X60018470Y-94174435D02*
X60495767Y-94651732D01*
G75*
G02*
X60495767Y-94740120I-44194J-44194D01*
G01*
X60407378Y-94828509D01*
G75*
G02*
X60318990Y-94828509I-44194J44194D01*
G01*
X59841693Y-94351212D01*
G75*
G02*
X59841693Y-94262824I44194J44194D01*
G01*
X59930082Y-94174435D01*
G75*
G02*
X60018470Y-94174435I44194J-44194D01*
G01*
G37*
G36*
G01*
X60372023Y-93820881D02*
X60849320Y-94298178D01*
G75*
G02*
X60849320Y-94386566I-44194J-44194D01*
G01*
X60760931Y-94474955D01*
G75*
G02*
X60672543Y-94474955I-44194J44194D01*
G01*
X60195246Y-93997658D01*
G75*
G02*
X60195246Y-93909270I44194J44194D01*
G01*
X60283635Y-93820881D01*
G75*
G02*
X60372023Y-93820881I44194J-44194D01*
G01*
G37*
G36*
G01*
X60725577Y-93467328D02*
X61202874Y-93944625D01*
G75*
G02*
X61202874Y-94033013I-44194J-44194D01*
G01*
X61114485Y-94121402D01*
G75*
G02*
X61026097Y-94121402I-44194J44194D01*
G01*
X60548800Y-93644105D01*
G75*
G02*
X60548800Y-93555717I44194J44194D01*
G01*
X60637189Y-93467328D01*
G75*
G02*
X60725577Y-93467328I44194J-44194D01*
G01*
G37*
G36*
G01*
X61079130Y-93113775D02*
X61556427Y-93591072D01*
G75*
G02*
X61556427Y-93679460I-44194J-44194D01*
G01*
X61468038Y-93767849D01*
G75*
G02*
X61379650Y-93767849I-44194J44194D01*
G01*
X60902353Y-93290552D01*
G75*
G02*
X60902353Y-93202164I44194J44194D01*
G01*
X60990742Y-93113775D01*
G75*
G02*
X61079130Y-93113775I44194J-44194D01*
G01*
G37*
G36*
G01*
X61432683Y-92760221D02*
X61909980Y-93237518D01*
G75*
G02*
X61909980Y-93325906I-44194J-44194D01*
G01*
X61821591Y-93414295D01*
G75*
G02*
X61733203Y-93414295I-44194J44194D01*
G01*
X61255906Y-92936998D01*
G75*
G02*
X61255906Y-92848610I44194J44194D01*
G01*
X61344295Y-92760221D01*
G75*
G02*
X61432683Y-92760221I44194J-44194D01*
G01*
G37*
G36*
G01*
X61786237Y-92406668D02*
X62263534Y-92883965D01*
G75*
G02*
X62263534Y-92972353I-44194J-44194D01*
G01*
X62175145Y-93060742D01*
G75*
G02*
X62086757Y-93060742I-44194J44194D01*
G01*
X61609460Y-92583445D01*
G75*
G02*
X61609460Y-92495057I44194J44194D01*
G01*
X61697849Y-92406668D01*
G75*
G02*
X61786237Y-92406668I44194J-44194D01*
G01*
G37*
G36*
G01*
X62139790Y-92053115D02*
X62617087Y-92530412D01*
G75*
G02*
X62617087Y-92618800I-44194J-44194D01*
G01*
X62528698Y-92707189D01*
G75*
G02*
X62440310Y-92707189I-44194J44194D01*
G01*
X61963013Y-92229892D01*
G75*
G02*
X61963013Y-92141504I44194J44194D01*
G01*
X62051402Y-92053115D01*
G75*
G02*
X62139790Y-92053115I44194J-44194D01*
G01*
G37*
G36*
G01*
X63518648Y-92053115D02*
X63607037Y-92141504D01*
G75*
G02*
X63607037Y-92229892I-44194J-44194D01*
G01*
X63129740Y-92707189D01*
G75*
G02*
X63041352Y-92707189I-44194J44194D01*
G01*
X62952963Y-92618800D01*
G75*
G02*
X62952963Y-92530412I44194J44194D01*
G01*
X63430260Y-92053115D01*
G75*
G02*
X63518648Y-92053115I44194J-44194D01*
G01*
G37*
G36*
G01*
X63872201Y-92406668D02*
X63960590Y-92495057D01*
G75*
G02*
X63960590Y-92583445I-44194J-44194D01*
G01*
X63483293Y-93060742D01*
G75*
G02*
X63394905Y-93060742I-44194J44194D01*
G01*
X63306516Y-92972353D01*
G75*
G02*
X63306516Y-92883965I44194J44194D01*
G01*
X63783813Y-92406668D01*
G75*
G02*
X63872201Y-92406668I44194J-44194D01*
G01*
G37*
G36*
G01*
X64225755Y-92760221D02*
X64314144Y-92848610D01*
G75*
G02*
X64314144Y-92936998I-44194J-44194D01*
G01*
X63836847Y-93414295D01*
G75*
G02*
X63748459Y-93414295I-44194J44194D01*
G01*
X63660070Y-93325906D01*
G75*
G02*
X63660070Y-93237518I44194J44194D01*
G01*
X64137367Y-92760221D01*
G75*
G02*
X64225755Y-92760221I44194J-44194D01*
G01*
G37*
G36*
G01*
X64579308Y-93113775D02*
X64667697Y-93202164D01*
G75*
G02*
X64667697Y-93290552I-44194J-44194D01*
G01*
X64190400Y-93767849D01*
G75*
G02*
X64102012Y-93767849I-44194J44194D01*
G01*
X64013623Y-93679460D01*
G75*
G02*
X64013623Y-93591072I44194J44194D01*
G01*
X64490920Y-93113775D01*
G75*
G02*
X64579308Y-93113775I44194J-44194D01*
G01*
G37*
G36*
G01*
X64932861Y-93467328D02*
X65021250Y-93555717D01*
G75*
G02*
X65021250Y-93644105I-44194J-44194D01*
G01*
X64543953Y-94121402D01*
G75*
G02*
X64455565Y-94121402I-44194J44194D01*
G01*
X64367176Y-94033013D01*
G75*
G02*
X64367176Y-93944625I44194J44194D01*
G01*
X64844473Y-93467328D01*
G75*
G02*
X64932861Y-93467328I44194J-44194D01*
G01*
G37*
G36*
G01*
X65286415Y-93820881D02*
X65374804Y-93909270D01*
G75*
G02*
X65374804Y-93997658I-44194J-44194D01*
G01*
X64897507Y-94474955D01*
G75*
G02*
X64809119Y-94474955I-44194J44194D01*
G01*
X64720730Y-94386566D01*
G75*
G02*
X64720730Y-94298178I44194J44194D01*
G01*
X65198027Y-93820881D01*
G75*
G02*
X65286415Y-93820881I44194J-44194D01*
G01*
G37*
G36*
G01*
X65639968Y-94174435D02*
X65728357Y-94262824D01*
G75*
G02*
X65728357Y-94351212I-44194J-44194D01*
G01*
X65251060Y-94828509D01*
G75*
G02*
X65162672Y-94828509I-44194J44194D01*
G01*
X65074283Y-94740120D01*
G75*
G02*
X65074283Y-94651732I44194J44194D01*
G01*
X65551580Y-94174435D01*
G75*
G02*
X65639968Y-94174435I44194J-44194D01*
G01*
G37*
G36*
G01*
X65993521Y-94527988D02*
X66081910Y-94616377D01*
G75*
G02*
X66081910Y-94704765I-44194J-44194D01*
G01*
X65604613Y-95182062D01*
G75*
G02*
X65516225Y-95182062I-44194J44194D01*
G01*
X65427836Y-95093673D01*
G75*
G02*
X65427836Y-95005285I44194J44194D01*
G01*
X65905133Y-94527988D01*
G75*
G02*
X65993521Y-94527988I44194J-44194D01*
G01*
G37*
G36*
G01*
X38375000Y-92673750D02*
X38375000Y-93586250D01*
G75*
G02*
X38131250Y-93830000I-243750J0D01*
G01*
X37643750Y-93830000D01*
G75*
G02*
X37400000Y-93586250I0J243750D01*
G01*
X37400000Y-92673750D01*
G75*
G02*
X37643750Y-92430000I243750J0D01*
G01*
X38131250Y-92430000D01*
G75*
G02*
X38375000Y-92673750I0J-243750D01*
G01*
G37*
G36*
G01*
X36500000Y-92673750D02*
X36500000Y-93586250D01*
G75*
G02*
X36256250Y-93830000I-243750J0D01*
G01*
X35768750Y-93830000D01*
G75*
G02*
X35525000Y-93586250I0J243750D01*
G01*
X35525000Y-92673750D01*
G75*
G02*
X35768750Y-92430000I243750J0D01*
G01*
X36256250Y-92430000D01*
G75*
G02*
X36500000Y-92673750I0J-243750D01*
G01*
G37*
G36*
G01*
X73420000Y-118316250D02*
X73420000Y-117403750D01*
G75*
G02*
X73663750Y-117160000I243750J0D01*
G01*
X74151250Y-117160000D01*
G75*
G02*
X74395000Y-117403750I0J-243750D01*
G01*
X74395000Y-118316250D01*
G75*
G02*
X74151250Y-118560000I-243750J0D01*
G01*
X73663750Y-118560000D01*
G75*
G02*
X73420000Y-118316250I0J243750D01*
G01*
G37*
G36*
G01*
X71545000Y-118316250D02*
X71545000Y-117403750D01*
G75*
G02*
X71788750Y-117160000I243750J0D01*
G01*
X72276250Y-117160000D01*
G75*
G02*
X72520000Y-117403750I0J-243750D01*
G01*
X72520000Y-118316250D01*
G75*
G02*
X72276250Y-118560000I-243750J0D01*
G01*
X71788750Y-118560000D01*
G75*
G02*
X71545000Y-118316250I0J243750D01*
G01*
G37*
G36*
G01*
X33279999Y-93540000D02*
X34180001Y-93540000D01*
G75*
G02*
X34430000Y-93789999I0J-249999D01*
G01*
X34430000Y-94315001D01*
G75*
G02*
X34180001Y-94565000I-249999J0D01*
G01*
X33279999Y-94565000D01*
G75*
G02*
X33030000Y-94315001I0J249999D01*
G01*
X33030000Y-93789999D01*
G75*
G02*
X33279999Y-93540000I249999J0D01*
G01*
G37*
G36*
G01*
X33279999Y-91715000D02*
X34180001Y-91715000D01*
G75*
G02*
X34430000Y-91964999I0J-249999D01*
G01*
X34430000Y-92490001D01*
G75*
G02*
X34180001Y-92740000I-249999J0D01*
G01*
X33279999Y-92740000D01*
G75*
G02*
X33030000Y-92490001I0J249999D01*
G01*
X33030000Y-91964999D01*
G75*
G02*
X33279999Y-91715000I249999J0D01*
G01*
G37*
G36*
G01*
X76650001Y-119295000D02*
X75749999Y-119295000D01*
G75*
G02*
X75500000Y-119045001I0J249999D01*
G01*
X75500000Y-118519999D01*
G75*
G02*
X75749999Y-118270000I249999J0D01*
G01*
X76650001Y-118270000D01*
G75*
G02*
X76900000Y-118519999I0J-249999D01*
G01*
X76900000Y-119045001D01*
G75*
G02*
X76650001Y-119295000I-249999J0D01*
G01*
G37*
G36*
G01*
X76650001Y-117470000D02*
X75749999Y-117470000D01*
G75*
G02*
X75500000Y-117220001I0J249999D01*
G01*
X75500000Y-116694999D01*
G75*
G02*
X75749999Y-116445000I249999J0D01*
G01*
X76650001Y-116445000D01*
G75*
G02*
X76900000Y-116694999I0J-249999D01*
G01*
X76900000Y-117220001D01*
G75*
G02*
X76650001Y-117470000I-249999J0D01*
G01*
G37*
G36*
G01*
X38375000Y-128413750D02*
X38375000Y-129326250D01*
G75*
G02*
X38131250Y-129570000I-243750J0D01*
G01*
X37643750Y-129570000D01*
G75*
G02*
X37400000Y-129326250I0J243750D01*
G01*
X37400000Y-128413750D01*
G75*
G02*
X37643750Y-128170000I243750J0D01*
G01*
X38131250Y-128170000D01*
G75*
G02*
X38375000Y-128413750I0J-243750D01*
G01*
G37*
G36*
G01*
X36500000Y-128413750D02*
X36500000Y-129326250D01*
G75*
G02*
X36256250Y-129570000I-243750J0D01*
G01*
X35768750Y-129570000D01*
G75*
G02*
X35525000Y-129326250I0J243750D01*
G01*
X35525000Y-128413750D01*
G75*
G02*
X35768750Y-128170000I243750J0D01*
G01*
X36256250Y-128170000D01*
G75*
G02*
X36500000Y-128413750I0J-243750D01*
G01*
G37*
G36*
G01*
X33279999Y-127435000D02*
X34180001Y-127435000D01*
G75*
G02*
X34430000Y-127684999I0J-249999D01*
G01*
X34430000Y-128210001D01*
G75*
G02*
X34180001Y-128460000I-249999J0D01*
G01*
X33279999Y-128460000D01*
G75*
G02*
X33030000Y-128210001I0J249999D01*
G01*
X33030000Y-127684999D01*
G75*
G02*
X33279999Y-127435000I249999J0D01*
G01*
G37*
G36*
G01*
X33279999Y-129260000D02*
X34180001Y-129260000D01*
G75*
G02*
X34430000Y-129509999I0J-249999D01*
G01*
X34430000Y-130035001D01*
G75*
G02*
X34180001Y-130285000I-249999J0D01*
G01*
X33279999Y-130285000D01*
G75*
G02*
X33030000Y-130035001I0J249999D01*
G01*
X33030000Y-129509999D01*
G75*
G02*
X33279999Y-129260000I249999J0D01*
G01*
G37*
D25*
X76170000Y-93950000D03*
X76170000Y-100250000D03*
X72370000Y-93950000D03*
X72370000Y-100250000D03*
G36*
G01*
X52340001Y-92625000D02*
X51439999Y-92625000D01*
G75*
G02*
X51190000Y-92375001I0J249999D01*
G01*
X51190000Y-91849999D01*
G75*
G02*
X51439999Y-91600000I249999J0D01*
G01*
X52340001Y-91600000D01*
G75*
G02*
X52590000Y-91849999I0J-249999D01*
G01*
X52590000Y-92375001D01*
G75*
G02*
X52340001Y-92625000I-249999J0D01*
G01*
G37*
G36*
G01*
X52340001Y-90800000D02*
X51439999Y-90800000D01*
G75*
G02*
X51190000Y-90550001I0J249999D01*
G01*
X51190000Y-90024999D01*
G75*
G02*
X51439999Y-89775000I249999J0D01*
G01*
X52340001Y-89775000D01*
G75*
G02*
X52590000Y-90024999I0J-249999D01*
G01*
X52590000Y-90550001D01*
G75*
G02*
X52340001Y-90800000I-249999J0D01*
G01*
G37*
G36*
G01*
X50320001Y-90810000D02*
X49419999Y-90810000D01*
G75*
G02*
X49170000Y-90560001I0J249999D01*
G01*
X49170000Y-90034999D01*
G75*
G02*
X49419999Y-89785000I249999J0D01*
G01*
X50320001Y-89785000D01*
G75*
G02*
X50570000Y-90034999I0J-249999D01*
G01*
X50570000Y-90560001D01*
G75*
G02*
X50320001Y-90810000I-249999J0D01*
G01*
G37*
G36*
G01*
X50320001Y-92635000D02*
X49419999Y-92635000D01*
G75*
G02*
X49170000Y-92385001I0J249999D01*
G01*
X49170000Y-91859999D01*
G75*
G02*
X49419999Y-91610000I249999J0D01*
G01*
X50320001Y-91610000D01*
G75*
G02*
X50570000Y-91859999I0J-249999D01*
G01*
X50570000Y-92385001D01*
G75*
G02*
X50320001Y-92635000I-249999J0D01*
G01*
G37*
G36*
G01*
X54899999Y-95415000D02*
X55800001Y-95415000D01*
G75*
G02*
X56050000Y-95664999I0J-249999D01*
G01*
X56050000Y-96190001D01*
G75*
G02*
X55800001Y-96440000I-249999J0D01*
G01*
X54899999Y-96440000D01*
G75*
G02*
X54650000Y-96190001I0J249999D01*
G01*
X54650000Y-95664999D01*
G75*
G02*
X54899999Y-95415000I249999J0D01*
G01*
G37*
G36*
G01*
X54899999Y-97240000D02*
X55800001Y-97240000D01*
G75*
G02*
X56050000Y-97489999I0J-249999D01*
G01*
X56050000Y-98015001D01*
G75*
G02*
X55800001Y-98265000I-249999J0D01*
G01*
X54899999Y-98265000D01*
G75*
G02*
X54650000Y-98015001I0J249999D01*
G01*
X54650000Y-97489999D01*
G75*
G02*
X54899999Y-97240000I249999J0D01*
G01*
G37*
G36*
G01*
X77020000Y-102195000D02*
X77020000Y-103145000D01*
G75*
G02*
X76770000Y-103395000I-250000J0D01*
G01*
X76270000Y-103395000D01*
G75*
G02*
X76020000Y-103145000I0J250000D01*
G01*
X76020000Y-102195000D01*
G75*
G02*
X76270000Y-101945000I250000J0D01*
G01*
X76770000Y-101945000D01*
G75*
G02*
X77020000Y-102195000I0J-250000D01*
G01*
G37*
G36*
G01*
X75120000Y-102195000D02*
X75120000Y-103145000D01*
G75*
G02*
X74870000Y-103395000I-250000J0D01*
G01*
X74370000Y-103395000D01*
G75*
G02*
X74120000Y-103145000I0J250000D01*
G01*
X74120000Y-102195000D01*
G75*
G02*
X74370000Y-101945000I250000J0D01*
G01*
X74870000Y-101945000D01*
G75*
G02*
X75120000Y-102195000I0J-250000D01*
G01*
G37*
D26*
X40050000Y-108730000D03*
X37950000Y-108730000D03*
X37950000Y-113310000D03*
X40050000Y-113310000D03*
D27*
X69830000Y-122390000D03*
X69830000Y-124490000D03*
G36*
G01*
X50069999Y-128600000D02*
X51370001Y-128600000D01*
G75*
G02*
X51620000Y-128849999I0J-249999D01*
G01*
X51620000Y-129500001D01*
G75*
G02*
X51370001Y-129750000I-249999J0D01*
G01*
X50069999Y-129750000D01*
G75*
G02*
X49820000Y-129500001I0J249999D01*
G01*
X49820000Y-128849999D01*
G75*
G02*
X50069999Y-128600000I249999J0D01*
G01*
G37*
G36*
G01*
X50069999Y-131550000D02*
X51370001Y-131550000D01*
G75*
G02*
X51620000Y-131799999I0J-249999D01*
G01*
X51620000Y-132450001D01*
G75*
G02*
X51370001Y-132700000I-249999J0D01*
G01*
X50069999Y-132700000D01*
G75*
G02*
X49820000Y-132450001I0J249999D01*
G01*
X49820000Y-131799999D01*
G75*
G02*
X50069999Y-131550000I249999J0D01*
G01*
G37*
G36*
G01*
X59670001Y-129820000D02*
X58369999Y-129820000D01*
G75*
G02*
X58120000Y-129570001I0J249999D01*
G01*
X58120000Y-128919999D01*
G75*
G02*
X58369999Y-128670000I249999J0D01*
G01*
X59670001Y-128670000D01*
G75*
G02*
X59920000Y-128919999I0J-249999D01*
G01*
X59920000Y-129570001D01*
G75*
G02*
X59670001Y-129820000I-249999J0D01*
G01*
G37*
G36*
G01*
X59670001Y-132770000D02*
X58369999Y-132770000D01*
G75*
G02*
X58120000Y-132520001I0J249999D01*
G01*
X58120000Y-131869999D01*
G75*
G02*
X58369999Y-131620000I249999J0D01*
G01*
X59670001Y-131620000D01*
G75*
G02*
X59920000Y-131869999I0J-249999D01*
G01*
X59920000Y-132520001D01*
G75*
G02*
X59670001Y-132770000I-249999J0D01*
G01*
G37*
G36*
G01*
X39779999Y-131520000D02*
X41080001Y-131520000D01*
G75*
G02*
X41330000Y-131769999I0J-249999D01*
G01*
X41330000Y-132420001D01*
G75*
G02*
X41080001Y-132670000I-249999J0D01*
G01*
X39779999Y-132670000D01*
G75*
G02*
X39530000Y-132420001I0J249999D01*
G01*
X39530000Y-131769999D01*
G75*
G02*
X39779999Y-131520000I249999J0D01*
G01*
G37*
G36*
G01*
X39779999Y-128570000D02*
X41080001Y-128570000D01*
G75*
G02*
X41330000Y-128819999I0J-249999D01*
G01*
X41330000Y-129470001D01*
G75*
G02*
X41080001Y-129720000I-249999J0D01*
G01*
X39779999Y-129720000D01*
G75*
G02*
X39530000Y-129470001I0J249999D01*
G01*
X39530000Y-128819999D01*
G75*
G02*
X39779999Y-128570000I249999J0D01*
G01*
G37*
G36*
G01*
X62070001Y-132760000D02*
X60769999Y-132760000D01*
G75*
G02*
X60520000Y-132510001I0J249999D01*
G01*
X60520000Y-131859999D01*
G75*
G02*
X60769999Y-131610000I249999J0D01*
G01*
X62070001Y-131610000D01*
G75*
G02*
X62320000Y-131859999I0J-249999D01*
G01*
X62320000Y-132510001D01*
G75*
G02*
X62070001Y-132760000I-249999J0D01*
G01*
G37*
G36*
G01*
X62070001Y-129810000D02*
X60769999Y-129810000D01*
G75*
G02*
X60520000Y-129560001I0J249999D01*
G01*
X60520000Y-128909999D01*
G75*
G02*
X60769999Y-128660000I249999J0D01*
G01*
X62070001Y-128660000D01*
G75*
G02*
X62320000Y-128909999I0J-249999D01*
G01*
X62320000Y-129560001D01*
G75*
G02*
X62070001Y-129810000I-249999J0D01*
G01*
G37*
G36*
G01*
X40085000Y-106523750D02*
X40085000Y-107036250D01*
G75*
G02*
X39866250Y-107255000I-218750J0D01*
G01*
X39428750Y-107255000D01*
G75*
G02*
X39210000Y-107036250I0J218750D01*
G01*
X39210000Y-106523750D01*
G75*
G02*
X39428750Y-106305000I218750J0D01*
G01*
X39866250Y-106305000D01*
G75*
G02*
X40085000Y-106523750I0J-218750D01*
G01*
G37*
G36*
G01*
X38510000Y-106523750D02*
X38510000Y-107036250D01*
G75*
G02*
X38291250Y-107255000I-218750J0D01*
G01*
X37853750Y-107255000D01*
G75*
G02*
X37635000Y-107036250I0J218750D01*
G01*
X37635000Y-106523750D01*
G75*
G02*
X37853750Y-106305000I218750J0D01*
G01*
X38291250Y-106305000D01*
G75*
G02*
X38510000Y-106523750I0J-218750D01*
G01*
G37*
G36*
G01*
X38510000Y-115003750D02*
X38510000Y-115516250D01*
G75*
G02*
X38291250Y-115735000I-218750J0D01*
G01*
X37853750Y-115735000D01*
G75*
G02*
X37635000Y-115516250I0J218750D01*
G01*
X37635000Y-115003750D01*
G75*
G02*
X37853750Y-114785000I218750J0D01*
G01*
X38291250Y-114785000D01*
G75*
G02*
X38510000Y-115003750I0J-218750D01*
G01*
G37*
G36*
G01*
X40085000Y-115003750D02*
X40085000Y-115516250D01*
G75*
G02*
X39866250Y-115735000I-218750J0D01*
G01*
X39428750Y-115735000D01*
G75*
G02*
X39210000Y-115516250I0J218750D01*
G01*
X39210000Y-115003750D01*
G75*
G02*
X39428750Y-114785000I218750J0D01*
G01*
X39866250Y-114785000D01*
G75*
G02*
X40085000Y-115003750I0J-218750D01*
G01*
G37*
G36*
G01*
X72246250Y-124745000D02*
X71733750Y-124745000D01*
G75*
G02*
X71515000Y-124526250I0J218750D01*
G01*
X71515000Y-124088750D01*
G75*
G02*
X71733750Y-123870000I218750J0D01*
G01*
X72246250Y-123870000D01*
G75*
G02*
X72465000Y-124088750I0J-218750D01*
G01*
X72465000Y-124526250D01*
G75*
G02*
X72246250Y-124745000I-218750J0D01*
G01*
G37*
G36*
G01*
X72246250Y-123170000D02*
X71733750Y-123170000D01*
G75*
G02*
X71515000Y-122951250I0J218750D01*
G01*
X71515000Y-122513750D01*
G75*
G02*
X71733750Y-122295000I218750J0D01*
G01*
X72246250Y-122295000D01*
G75*
G02*
X72465000Y-122513750I0J-218750D01*
G01*
X72465000Y-122951250D01*
G75*
G02*
X72246250Y-123170000I-218750J0D01*
G01*
G37*
M02*
