G04 #@! TF.GenerationSoftware,KiCad,Pcbnew,6.0.9-8da3e8f707~116~ubuntu20.04.1*
G04 #@! TF.CreationDate,2022-11-26T18:10:52+02:00*
G04 #@! TF.ProjectId,USB-TypeC-Switch,5553422d-5479-4706-9543-2d5377697463,rev?*
G04 #@! TF.SameCoordinates,Original*
G04 #@! TF.FileFunction,Paste,Top*
G04 #@! TF.FilePolarity,Positive*
%FSLAX46Y46*%
G04 Gerber Fmt 4.6, Leading zero omitted, Abs format (unit mm)*
G04 Created by KiCad (PCBNEW 6.0.9-8da3e8f707~116~ubuntu20.04.1) date 2022-11-26 18:10:52*
%MOMM*%
%LPD*%
G01*
G04 APERTURE LIST*
G04 Aperture macros list*
%AMRoundRect*
0 Rectangle with rounded corners*
0 $1 Rounding radius*
0 $2 $3 $4 $5 $6 $7 $8 $9 X,Y pos of 4 corners*
0 Add a 4 corners polygon primitive as box body*
4,1,4,$2,$3,$4,$5,$6,$7,$8,$9,$2,$3,0*
0 Add four circle primitives for the rounded corners*
1,1,$1+$1,$2,$3*
1,1,$1+$1,$4,$5*
1,1,$1+$1,$6,$7*
1,1,$1+$1,$8,$9*
0 Add four rect primitives between the rounded corners*
20,1,$1+$1,$2,$3,$4,$5,0*
20,1,$1+$1,$4,$5,$6,$7,0*
20,1,$1+$1,$6,$7,$8,$9,0*
20,1,$1+$1,$8,$9,$2,$3,0*%
%AMFreePoly0*
4,1,9,3.862500,-0.866500,0.737500,-0.866500,0.737500,-0.450000,-0.737500,-0.450000,-0.737500,0.450000,0.737500,0.450000,0.737500,0.866500,3.862500,0.866500,3.862500,-0.866500,3.862500,-0.866500,$1*%
G04 Aperture macros list end*
%ADD10C,0.010000*%
%ADD11R,0.700000X0.320000*%
%ADD12RoundRect,0.200000X0.200000X0.275000X-0.200000X0.275000X-0.200000X-0.275000X0.200000X-0.275000X0*%
%ADD13R,0.178600X0.604799*%
%ADD14R,0.604799X0.178600*%
%ADD15R,1.346200X0.812800*%
%ADD16RoundRect,0.200000X-0.200000X-0.275000X0.200000X-0.275000X0.200000X0.275000X-0.200000X0.275000X0*%
%ADD17RoundRect,0.225000X0.250000X-0.225000X0.250000X0.225000X-0.250000X0.225000X-0.250000X-0.225000X0*%
%ADD18R,0.200000X0.800000*%
%ADD19R,0.800000X0.200000*%
%ADD20RoundRect,0.218750X0.581250X-0.218750X0.581250X0.218750X-0.581250X0.218750X-0.581250X-0.218750X0*%
%ADD21R,0.650000X1.220000*%
%ADD22RoundRect,0.243750X-0.243750X-0.456250X0.243750X-0.456250X0.243750X0.456250X-0.243750X0.456250X0*%
%ADD23RoundRect,0.200000X-0.275000X0.200000X-0.275000X-0.200000X0.275000X-0.200000X0.275000X0.200000X0*%
%ADD24RoundRect,0.243750X0.243750X0.456250X-0.243750X0.456250X-0.243750X-0.456250X0.243750X-0.456250X0*%
%ADD25RoundRect,0.242500X0.000000X0.342947X-0.342947X0.000000X0.000000X-0.342947X0.342947X0.000000X0*%
%ADD26RoundRect,0.062500X0.194454X0.282843X-0.282843X-0.194454X-0.194454X-0.282843X0.282843X0.194454X0*%
%ADD27RoundRect,0.062500X-0.194454X0.282843X-0.282843X0.194454X0.194454X-0.282843X0.282843X-0.194454X0*%
%ADD28RoundRect,0.225000X-0.250000X0.225000X-0.250000X-0.225000X0.250000X-0.225000X0.250000X0.225000X0*%
%ADD29RoundRect,0.200000X0.275000X-0.200000X0.275000X0.200000X-0.275000X0.200000X-0.275000X-0.200000X0*%
%ADD30R,1.000000X1.700000*%
%ADD31R,0.710000X0.200000*%
%ADD32R,0.200000X0.710000*%
%ADD33RoundRect,0.200000X-0.335876X-0.053033X-0.053033X-0.335876X0.335876X0.053033X0.053033X0.335876X0*%
%ADD34R,0.914400X0.225000*%
%ADD35R,0.812800X0.225000*%
%ADD36R,0.225000X0.812800*%
%ADD37RoundRect,0.225000X0.225000X0.250000X-0.225000X0.250000X-0.225000X-0.250000X0.225000X-0.250000X0*%
%ADD38R,0.600000X0.450000*%
%ADD39R,0.450000X0.600000*%
%ADD40RoundRect,0.249999X-0.650001X0.325001X-0.650001X-0.325001X0.650001X-0.325001X0.650001X0.325001X0*%
%ADD41RoundRect,0.249999X0.650001X-0.325001X0.650001X0.325001X-0.650001X0.325001X-0.650001X-0.325001X0*%
%ADD42R,0.900000X1.300000*%
%ADD43FreePoly0,270.000000*%
%ADD44RoundRect,0.218750X0.218750X0.256250X-0.218750X0.256250X-0.218750X-0.256250X0.218750X-0.256250X0*%
%ADD45RoundRect,0.218750X0.256250X-0.218750X0.256250X0.218750X-0.256250X0.218750X-0.256250X-0.218750X0*%
%ADD46RoundRect,0.135000X0.135000X0.185000X-0.135000X0.185000X-0.135000X-0.185000X0.135000X-0.185000X0*%
%ADD47R,0.700000X0.600000*%
%ADD48RoundRect,0.135000X0.185000X-0.135000X0.185000X0.135000X-0.185000X0.135000X-0.185000X-0.135000X0*%
%ADD49R,0.250000X0.400000*%
%ADD50R,0.700000X0.400000*%
%ADD51RoundRect,0.135000X-0.135000X-0.185000X0.135000X-0.185000X0.135000X0.185000X-0.135000X0.185000X0*%
G04 APERTURE END LIST*
G36*
X55650000Y-106940000D02*
G01*
X55050000Y-106940000D01*
X55050000Y-106340000D01*
X55650000Y-106340000D01*
X55650000Y-106940000D01*
G37*
D10*
X55650000Y-106940000D02*
X55050000Y-106940000D01*
X55050000Y-106340000D01*
X55650000Y-106340000D01*
X55650000Y-106940000D01*
G36*
X55650000Y-107660000D02*
G01*
X55050000Y-107660000D01*
X55050000Y-107060000D01*
X55650000Y-107060000D01*
X55650000Y-107660000D01*
G37*
X55650000Y-107660000D02*
X55050000Y-107660000D01*
X55050000Y-107060000D01*
X55650000Y-107060000D01*
X55650000Y-107660000D01*
G36*
X55650000Y-114940000D02*
G01*
X55050000Y-114940000D01*
X55050000Y-114340000D01*
X55650000Y-114340000D01*
X55650000Y-114940000D01*
G37*
X55650000Y-114940000D02*
X55050000Y-114940000D01*
X55050000Y-114340000D01*
X55650000Y-114340000D01*
X55650000Y-114940000D01*
G36*
X55650000Y-115660000D02*
G01*
X55050000Y-115660000D01*
X55050000Y-115060000D01*
X55650000Y-115060000D01*
X55650000Y-115660000D01*
G37*
X55650000Y-115660000D02*
X55050000Y-115660000D01*
X55050000Y-115060000D01*
X55650000Y-115060000D01*
X55650000Y-115660000D01*
D11*
X40240000Y-97250000D03*
X40240000Y-97750000D03*
X40240000Y-98250000D03*
X40240000Y-98750000D03*
X40240000Y-99250000D03*
X40240000Y-99750000D03*
X40240000Y-100250000D03*
X40240000Y-100750000D03*
X40240000Y-101250000D03*
X40240000Y-101750000D03*
X40240000Y-102250000D03*
X40240000Y-102750000D03*
D12*
X74605000Y-122230000D03*
X76255000Y-122230000D03*
X52405000Y-92490000D03*
X50755000Y-92490000D03*
X49270000Y-92490000D03*
X47620000Y-92490000D03*
D13*
X35530001Y-106223800D03*
X35029999Y-106223800D03*
X34530000Y-106223800D03*
X34030001Y-106223800D03*
X33529999Y-106223800D03*
D14*
X33033800Y-106719999D03*
X33033800Y-107220001D03*
X33033800Y-107720000D03*
X33033800Y-108219999D03*
X33033800Y-108720001D03*
D13*
X33529999Y-109216200D03*
X34030001Y-109216200D03*
X34530000Y-109216200D03*
X35029999Y-109216200D03*
X35530001Y-109216200D03*
D14*
X36026200Y-108720001D03*
X36026200Y-108219999D03*
X36026200Y-107220001D03*
X36026200Y-106719999D03*
D15*
X34700000Y-107200000D03*
X34700000Y-108240000D03*
D11*
X69760000Y-113750000D03*
X69760000Y-113250000D03*
X69760000Y-112750000D03*
X69760000Y-112250000D03*
X69760000Y-111750000D03*
X69760000Y-111250000D03*
X69760000Y-110750000D03*
X69760000Y-110250000D03*
X69760000Y-109750000D03*
X69760000Y-109250000D03*
X69760000Y-108750000D03*
X69760000Y-108250000D03*
D13*
X35530001Y-112843800D03*
X35029999Y-112843800D03*
X34530000Y-112843800D03*
X34030001Y-112843800D03*
X33529999Y-112843800D03*
D14*
X33033800Y-113339999D03*
X33033800Y-113840001D03*
X33033800Y-114340000D03*
X33033800Y-114839999D03*
X33033800Y-115340001D03*
D13*
X33529999Y-115836200D03*
X34030001Y-115836200D03*
X34530000Y-115836200D03*
X35029999Y-115836200D03*
X35530001Y-115836200D03*
D14*
X36026200Y-115340001D03*
X36026200Y-114839999D03*
X36026200Y-113840001D03*
X36026200Y-113339999D03*
D15*
X34700000Y-113820000D03*
X34700000Y-114860000D03*
D11*
X40240000Y-119250000D03*
X40240000Y-119750000D03*
X40240000Y-120250000D03*
X40240000Y-120750000D03*
X40240000Y-121250000D03*
X40240000Y-121750000D03*
X40240000Y-122250000D03*
X40240000Y-122750000D03*
X40240000Y-123250000D03*
X40240000Y-123750000D03*
X40240000Y-124250000D03*
X40240000Y-124750000D03*
D16*
X74550000Y-125220000D03*
X76200000Y-125220000D03*
D12*
X74560000Y-126800000D03*
X76210000Y-126800000D03*
D17*
X59390000Y-91155000D03*
X59390000Y-89605000D03*
D18*
X58274000Y-123400000D03*
X57874000Y-123400000D03*
X57474000Y-123400000D03*
X57074000Y-123400000D03*
D19*
X56374000Y-123700000D03*
X56374000Y-124100000D03*
X56374000Y-124500000D03*
X56374000Y-124900000D03*
D18*
X57074000Y-125200000D03*
X57474000Y-125200000D03*
X57874000Y-125200000D03*
X58274000Y-125200000D03*
D19*
X58974000Y-124900000D03*
X58974000Y-124500000D03*
X58974000Y-124100000D03*
X58974000Y-123700000D03*
D12*
X39705000Y-111030000D03*
X38055000Y-111030000D03*
D16*
X33565000Y-111030000D03*
X35215000Y-111030000D03*
D12*
X46175000Y-92510000D03*
X44525000Y-92510000D03*
X43085000Y-92500000D03*
X41435000Y-92500000D03*
X43085000Y-89890000D03*
X41435000Y-89890000D03*
X46185000Y-89890000D03*
X44535000Y-89890000D03*
D20*
X48610000Y-131662500D03*
X48610000Y-129537500D03*
D21*
X46560000Y-129230000D03*
X45610000Y-129230000D03*
X44660000Y-129230000D03*
X44660000Y-131850000D03*
X45610000Y-131850000D03*
X46560000Y-131850000D03*
D17*
X42620000Y-131375000D03*
X42620000Y-129825000D03*
D22*
X74782500Y-118840000D03*
X76657500Y-118840000D03*
D23*
X33730000Y-128035000D03*
X33730000Y-129685000D03*
D24*
X37887500Y-93130000D03*
X36012500Y-93130000D03*
D23*
X33730000Y-92315000D03*
X33730000Y-93965000D03*
D25*
X62785025Y-95350000D03*
X61087969Y-95350000D03*
X62785025Y-97047056D03*
X61936497Y-96198528D03*
X63633553Y-96198528D03*
X64482081Y-95350000D03*
X61936497Y-94501472D03*
X63633553Y-94501472D03*
X62785025Y-93652944D03*
D26*
X65754873Y-94855025D03*
X65401320Y-94501472D03*
X65047767Y-94147918D03*
X64694213Y-93794365D03*
X64340660Y-93440812D03*
X63987107Y-93087258D03*
X63633553Y-92733705D03*
X63280000Y-92380152D03*
D27*
X62290050Y-92380152D03*
X61936497Y-92733705D03*
X61582943Y-93087258D03*
X61229390Y-93440812D03*
X60875837Y-93794365D03*
X60522283Y-94147918D03*
X60168730Y-94501472D03*
X59815177Y-94855025D03*
D26*
X59815177Y-95844975D03*
X60168730Y-96198528D03*
X60522283Y-96552082D03*
X60875837Y-96905635D03*
X61229390Y-97259188D03*
X61582943Y-97612742D03*
X61936497Y-97966295D03*
X62290050Y-98319848D03*
D27*
X63280000Y-98319848D03*
X63633553Y-97966295D03*
X63987107Y-97612742D03*
X64340660Y-97259188D03*
X64694213Y-96905635D03*
X65047767Y-96552082D03*
X65401320Y-96198528D03*
X65754873Y-95844975D03*
D16*
X75085000Y-116960000D03*
X76735000Y-116960000D03*
X74755000Y-104650000D03*
X76405000Y-104650000D03*
D17*
X60990000Y-91175000D03*
X60990000Y-89625000D03*
D28*
X66700000Y-98355000D03*
X66700000Y-99905000D03*
X68230000Y-98355000D03*
X68230000Y-99905000D03*
D29*
X72650000Y-89005000D03*
X72650000Y-90655000D03*
D30*
X76170000Y-93950000D03*
X76170000Y-100250000D03*
X72370000Y-93950000D03*
X72370000Y-100250000D03*
D31*
X56345000Y-107800000D03*
X56345000Y-107400000D03*
X56345000Y-107000000D03*
X56345000Y-106600000D03*
X56345000Y-106200000D03*
D32*
X55950000Y-105605000D03*
X55550000Y-105605000D03*
X55150000Y-105605000D03*
X54750000Y-105605000D03*
D31*
X54355000Y-106200000D03*
X54355000Y-106600000D03*
X54355000Y-107000000D03*
X54355000Y-107400000D03*
X54355000Y-107800000D03*
D32*
X54750000Y-108395000D03*
X55150000Y-108395000D03*
X55550000Y-108395000D03*
X55950000Y-108395000D03*
D12*
X52385000Y-89860000D03*
X50735000Y-89860000D03*
X49275000Y-89860000D03*
X47625000Y-89860000D03*
D33*
X58043363Y-97593363D03*
X56876637Y-96426637D03*
D34*
X63346100Y-102900000D03*
D35*
X63396900Y-102500000D03*
D36*
X63199999Y-101839900D03*
X62800000Y-101839900D03*
X62400001Y-101839900D03*
D35*
X62203100Y-102500000D03*
X62203100Y-102900000D03*
D36*
X62400001Y-103560100D03*
X62800000Y-103560100D03*
X63199999Y-103560100D03*
D34*
X62253900Y-119000000D03*
D35*
X62203100Y-119400000D03*
D36*
X62400001Y-120060100D03*
X62800000Y-120060100D03*
X63199999Y-120060100D03*
D35*
X63396900Y-119400000D03*
X63396900Y-119000000D03*
D36*
X63199999Y-118339900D03*
X62800000Y-118339900D03*
X62400001Y-118339900D03*
D37*
X76345000Y-102670000D03*
X74795000Y-102670000D03*
D38*
X40050000Y-108730000D03*
X37950000Y-108730000D03*
X40050000Y-113310000D03*
X37950000Y-113310000D03*
D39*
X71190000Y-122330000D03*
X71190000Y-124430000D03*
D31*
X56345000Y-115800000D03*
X56345000Y-115400000D03*
X56345000Y-115000000D03*
X56345000Y-114600000D03*
X56345000Y-114200000D03*
D32*
X55950000Y-113605000D03*
X55550000Y-113605000D03*
X55150000Y-113605000D03*
X54750000Y-113605000D03*
D31*
X54355000Y-114200000D03*
X54355000Y-114600000D03*
X54355000Y-115000000D03*
X54355000Y-115400000D03*
X54355000Y-115800000D03*
D32*
X54750000Y-116395000D03*
X55150000Y-116395000D03*
X55550000Y-116395000D03*
X55950000Y-116395000D03*
D40*
X50720000Y-129175000D03*
X50720000Y-132125000D03*
X40430000Y-129145000D03*
X40430000Y-132095000D03*
D24*
X37887500Y-128870000D03*
X36012500Y-128870000D03*
D41*
X59020000Y-132195000D03*
X59020000Y-129245000D03*
D42*
X56420000Y-129290000D03*
D43*
X54920000Y-129377500D03*
D42*
X53420000Y-129290000D03*
D41*
X61420000Y-132185000D03*
X61420000Y-129235000D03*
D44*
X39647500Y-106780000D03*
X38072500Y-106780000D03*
X39647500Y-115260000D03*
X38072500Y-115260000D03*
D45*
X71120000Y-119947500D03*
X71120000Y-118372500D03*
D46*
X66250000Y-122910000D03*
X65230000Y-122910000D03*
D47*
X56010000Y-91080000D03*
X56010000Y-89680000D03*
D48*
X68250000Y-125540000D03*
X68250000Y-126560000D03*
X64250000Y-126560000D03*
X64250000Y-125540000D03*
X61250000Y-126560000D03*
X61250000Y-125540000D03*
D49*
X67050000Y-123900000D03*
X66600000Y-123900000D03*
D50*
X66825000Y-124600000D03*
X68100000Y-124600000D03*
D49*
X67875000Y-123900000D03*
X68325000Y-123900000D03*
D48*
X66250000Y-126560000D03*
X66250000Y-125540000D03*
D49*
X62900000Y-123900000D03*
X62450000Y-123900000D03*
D50*
X62675000Y-124600000D03*
D49*
X61625000Y-123900000D03*
X61175000Y-123900000D03*
D50*
X61400000Y-124600000D03*
D48*
X63250000Y-126560000D03*
X63250000Y-125540000D03*
X62250000Y-126560000D03*
X62250000Y-125540000D03*
D47*
X54370000Y-89670000D03*
X54370000Y-91070000D03*
D49*
X63900000Y-124600000D03*
X64350000Y-124600000D03*
D50*
X64125000Y-123900000D03*
D48*
X67250000Y-126560000D03*
X67250000Y-125540000D03*
D51*
X63280000Y-122910000D03*
X64300000Y-122910000D03*
D47*
X57610000Y-89670000D03*
X57610000Y-91070000D03*
D51*
X68250000Y-122910000D03*
X67230000Y-122910000D03*
D49*
X65175000Y-124600000D03*
X65625000Y-124600000D03*
D50*
X65400000Y-123900000D03*
D46*
X62260000Y-122910000D03*
X61240000Y-122910000D03*
D48*
X65250000Y-126560000D03*
X65250000Y-125540000D03*
M02*
